<?xml version="1.0" encoding="utf-8" standalone="no"?>
<!DOCTYPE svg PUBLIC "-//W3C//DTD SVG 1.1//EN"
  "http://www.w3.org/Graphics/SVG/1.1/DTD/svg11.dtd">
<svg xmlns:xlink="http://www.w3.org/1999/xlink" width="720pt" height="576pt" viewBox="0 0 720 576" xmlns="http://www.w3.org/2000/svg" version="1.1">
 <metadata>
  <rdf:RDF xmlns:dc="http://purl.org/dc/elements/1.1/" xmlns:cc="http://creativecommons.org/ns#" xmlns:rdf="http://www.w3.org/1999/02/22-rdf-syntax-ns#">
   <cc:Work>
    <dc:type rdf:resource="http://purl.org/dc/dcmitype/StillImage"/>
    <dc:date>2026-07-29T11:33:47.009010</dc:date>
    <dc:format>image/svg+xml</dc:format>
    <dc:creator>
     <cc:Agent>
      <dc:title>Matplotlib v3.10.9, https://matplotlib.org/</dc:title>
     </cc:Agent>
    </dc:creator>
   </cc:Work>
  </rdf:RDF>
 </metadata>
 <defs>
  <style type="text/css">*{stroke-linejoin: round; stroke-linecap: butt}</style>
 </defs>
 <g id="figure_1">
  <g id="patch_1">
   <path d="M 0 576 
L 720 576 
L 720 0 
L 0 0 
z
" style="fill: #ffffff"/>
  </g>
  <g id="axes_1">
   <g id="patch_2">
    <path d="M 67.38 156.714625 
L 351.8325 156.714625 
L 351.8325 40.9 
L 67.38 40.9 
z
" style="fill: #ffffff"/>
   </g>
   <g id="matplotlib.axis_1">
    <g id="xtick_1">
     <g id="line2d_1">
      <defs>
       <path id="m61039ea77a" d="M 0 0 
L 0 -6 
" style="stroke: #262626; stroke-width: 0.8"/>
      </defs>
      <g>
       <use xlink:href="#m61039ea77a" x="67.38" y="156.714625" style="fill: #262626; stroke: #262626; stroke-width: 0.8"/>
      </g>
     </g>
     <g id="line2d_2">
      <defs>
       <path id="mb00737cac1" d="M 0 0 
L 0 6 
" style="stroke: #262626; stroke-width: 0.8"/>
      </defs>
      <g>
       <use xlink:href="#mb00737cac1" x="67.38" y="40.9" style="fill: #262626; stroke: #262626; stroke-width: 0.8"/>
      </g>
     </g>
     <g id="text_1">
      <!-- 0 -->
      <g style="fill: #262626" transform="translate(63.209297 170.951344) scale(0.15 -0.15)">
       <defs>
        <path id="ArialMT-30" d="M 266 2259 
Q 266 3072 433 3567 
Q 600 4063 929 4331 
Q 1259 4600 1759 4600 
Q 2128 4600 2406 4451 
Q 2684 4303 2865 4023 
Q 3047 3744 3150 3342 
Q 3253 2941 3253 2259 
Q 3253 1453 3087 958 
Q 2922 463 2592 192 
Q 2263 -78 1759 -78 
Q 1097 -78 719 397 
Q 266 969 266 2259 
z
M 844 2259 
Q 844 1131 1108 757 
Q 1372 384 1759 384 
Q 2147 384 2411 759 
Q 2675 1134 2675 2259 
Q 2675 3391 2411 3762 
Q 2147 4134 1753 4134 
Q 1366 4134 1134 3806 
Q 844 3388 844 2259 
z
" transform="scale(0.015625)"/>
       </defs>
       <use xlink:href="#ArialMT-30"/>
      </g>
     </g>
    </g>
    <g id="xtick_2">
     <g id="line2d_3">
      <g>
       <use xlink:href="#m61039ea77a" x="124.384509" y="156.714625" style="fill: #262626; stroke: #262626; stroke-width: 0.8"/>
      </g>
     </g>
     <g id="line2d_4">
      <g>
       <use xlink:href="#mb00737cac1" x="124.384509" y="40.9" style="fill: #262626; stroke: #262626; stroke-width: 0.8"/>
      </g>
     </g>
     <g id="text_2">
      <!-- 100 -->
      <g style="fill: #262626" transform="translate(111.8724 170.951344) scale(0.15 -0.15)">
       <defs>
        <path id="ArialMT-31" d="M 2384 0 
L 1822 0 
L 1822 3584 
Q 1619 3391 1289 3197 
Q 959 3003 697 2906 
L 697 3450 
Q 1169 3672 1522 3987 
Q 1875 4303 2022 4600 
L 2384 4600 
L 2384 0 
z
" transform="scale(0.015625)"/>
       </defs>
       <use xlink:href="#ArialMT-31"/>
       <use xlink:href="#ArialMT-30" transform="translate(55.615234 0)"/>
       <use xlink:href="#ArialMT-30" transform="translate(111.230469 0)"/>
      </g>
     </g>
    </g>
    <g id="xtick_3">
     <g id="line2d_5">
      <g>
       <use xlink:href="#m61039ea77a" x="181.389018" y="156.714625" style="fill: #262626; stroke: #262626; stroke-width: 0.8"/>
      </g>
     </g>
     <g id="line2d_6">
      <g>
       <use xlink:href="#mb00737cac1" x="181.389018" y="40.9" style="fill: #262626; stroke: #262626; stroke-width: 0.8"/>
      </g>
     </g>
     <g id="text_3">
      <!-- 200 -->
      <g style="fill: #262626" transform="translate(168.876909 170.951344) scale(0.15 -0.15)">
       <defs>
        <path id="ArialMT-32" d="M 3222 541 
L 3222 0 
L 194 0 
Q 188 203 259 391 
Q 375 700 629 1000 
Q 884 1300 1366 1694 
Q 2113 2306 2375 2664 
Q 2638 3022 2638 3341 
Q 2638 3675 2398 3904 
Q 2159 4134 1775 4134 
Q 1369 4134 1125 3890 
Q 881 3647 878 3216 
L 300 3275 
Q 359 3922 746 4261 
Q 1134 4600 1788 4600 
Q 2447 4600 2831 4234 
Q 3216 3869 3216 3328 
Q 3216 3053 3103 2787 
Q 2991 2522 2730 2228 
Q 2469 1934 1863 1422 
Q 1356 997 1212 845 
Q 1069 694 975 541 
L 3222 541 
z
" transform="scale(0.015625)"/>
       </defs>
       <use xlink:href="#ArialMT-32"/>
       <use xlink:href="#ArialMT-30" transform="translate(55.615234 0)"/>
       <use xlink:href="#ArialMT-30" transform="translate(111.230469 0)"/>
      </g>
     </g>
    </g>
    <g id="xtick_4">
     <g id="line2d_7">
      <g>
       <use xlink:href="#m61039ea77a" x="238.393527" y="156.714625" style="fill: #262626; stroke: #262626; stroke-width: 0.8"/>
      </g>
     </g>
     <g id="line2d_8">
      <g>
       <use xlink:href="#mb00737cac1" x="238.393527" y="40.9" style="fill: #262626; stroke: #262626; stroke-width: 0.8"/>
      </g>
     </g>
     <g id="text_4">
      <!-- 300 -->
      <g style="fill: #262626" transform="translate(225.881418 170.951344) scale(0.15 -0.15)">
       <defs>
        <path id="ArialMT-33" d="M 269 1209 
L 831 1284 
Q 928 806 1161 595 
Q 1394 384 1728 384 
Q 2125 384 2398 659 
Q 2672 934 2672 1341 
Q 2672 1728 2419 1979 
Q 2166 2231 1775 2231 
Q 1616 2231 1378 2169 
L 1441 2663 
Q 1497 2656 1531 2656 
Q 1891 2656 2178 2843 
Q 2466 3031 2466 3422 
Q 2466 3731 2256 3934 
Q 2047 4138 1716 4138 
Q 1388 4138 1169 3931 
Q 950 3725 888 3313 
L 325 3413 
Q 428 3978 793 4289 
Q 1159 4600 1703 4600 
Q 2078 4600 2393 4439 
Q 2709 4278 2876 4000 
Q 3044 3722 3044 3409 
Q 3044 3113 2884 2869 
Q 2725 2625 2413 2481 
Q 2819 2388 3044 2092 
Q 3269 1797 3269 1353 
Q 3269 753 2831 336 
Q 2394 -81 1725 -81 
Q 1122 -81 723 278 
Q 325 638 269 1209 
z
" transform="scale(0.015625)"/>
       </defs>
       <use xlink:href="#ArialMT-33"/>
       <use xlink:href="#ArialMT-30" transform="translate(55.615234 0)"/>
       <use xlink:href="#ArialMT-30" transform="translate(111.230469 0)"/>
      </g>
     </g>
    </g>
    <g id="xtick_5">
     <g id="line2d_9">
      <g>
       <use xlink:href="#m61039ea77a" x="295.398036" y="156.714625" style="fill: #262626; stroke: #262626; stroke-width: 0.8"/>
      </g>
     </g>
     <g id="line2d_10">
      <g>
       <use xlink:href="#mb00737cac1" x="295.398036" y="40.9" style="fill: #262626; stroke: #262626; stroke-width: 0.8"/>
      </g>
     </g>
     <g id="text_5">
      <!-- 400 -->
      <g style="fill: #262626" transform="translate(282.885927 170.951344) scale(0.15 -0.15)">
       <defs>
        <path id="ArialMT-34" d="M 2069 0 
L 2069 1097 
L 81 1097 
L 81 1613 
L 2172 4581 
L 2631 4581 
L 2631 1613 
L 3250 1613 
L 3250 1097 
L 2631 1097 
L 2631 0 
L 2069 0 
z
M 2069 1613 
L 2069 3678 
L 634 1613 
L 2069 1613 
z
" transform="scale(0.015625)"/>
       </defs>
       <use xlink:href="#ArialMT-34"/>
       <use xlink:href="#ArialMT-30" transform="translate(55.615234 0)"/>
       <use xlink:href="#ArialMT-30" transform="translate(111.230469 0)"/>
      </g>
     </g>
    </g>
   </g>
   <g id="matplotlib.axis_2">
    <g id="ytick_1">
     <g id="line2d_11">
      <defs>
       <path id="m3a0c62dc26" d="M 0 0 
L 6 0 
" style="stroke: #262626; stroke-width: 0.8"/>
      </defs>
      <g>
       <use xlink:href="#m3a0c62dc26" x="67.38" y="148.533608" style="fill: #262626; stroke: #262626; stroke-width: 0.8"/>
      </g>
     </g>
     <g id="line2d_12">
      <defs>
       <path id="m6e0c845c95" d="M 0 0 
L -6 0 
" style="stroke: #262626; stroke-width: 0.8"/>
      </defs>
      <g>
       <use xlink:href="#m6e0c845c95" x="351.8325" y="148.533608" style="fill: #262626; stroke: #262626; stroke-width: 0.8"/>
      </g>
     </g>
     <g id="text_6">
      <!-- 40 -->
      <g style="fill: #262626" transform="translate(47.197188 153.901967) scale(0.15 -0.15)">
       <use xlink:href="#ArialMT-34"/>
       <use xlink:href="#ArialMT-30" transform="translate(55.615234 0)"/>
      </g>
     </g>
    </g>
    <g id="ytick_2">
     <g id="line2d_13">
      <g>
       <use xlink:href="#m3a0c62dc26" x="67.38" y="104.646595" style="fill: #262626; stroke: #262626; stroke-width: 0.8"/>
      </g>
     </g>
     <g id="line2d_14">
      <g>
       <use xlink:href="#m6e0c845c95" x="351.8325" y="104.646595" style="fill: #262626; stroke: #262626; stroke-width: 0.8"/>
      </g>
     </g>
     <g id="text_7">
      <!-- 60 -->
      <g style="fill: #262626" transform="translate(47.197188 110.014955) scale(0.15 -0.15)">
       <defs>
        <path id="ArialMT-36" d="M 3184 3459 
L 2625 3416 
Q 2550 3747 2413 3897 
Q 2184 4138 1850 4138 
Q 1581 4138 1378 3988 
Q 1113 3794 959 3422 
Q 806 3050 800 2363 
Q 1003 2672 1297 2822 
Q 1591 2972 1913 2972 
Q 2475 2972 2870 2558 
Q 3266 2144 3266 1488 
Q 3266 1056 3080 686 
Q 2894 316 2569 119 
Q 2244 -78 1831 -78 
Q 1128 -78 684 439 
Q 241 956 241 2144 
Q 241 3472 731 4075 
Q 1159 4600 1884 4600 
Q 2425 4600 2770 4297 
Q 3116 3994 3184 3459 
z
M 888 1484 
Q 888 1194 1011 928 
Q 1134 663 1356 523 
Q 1578 384 1822 384 
Q 2178 384 2434 671 
Q 2691 959 2691 1453 
Q 2691 1928 2437 2201 
Q 2184 2475 1800 2475 
Q 1419 2475 1153 2201 
Q 888 1928 888 1484 
z
" transform="scale(0.015625)"/>
       </defs>
       <use xlink:href="#ArialMT-36"/>
       <use xlink:href="#ArialMT-30" transform="translate(55.615234 0)"/>
      </g>
     </g>
    </g>
    <g id="ytick_3">
     <g id="line2d_15">
      <g>
       <use xlink:href="#m3a0c62dc26" x="67.38" y="60.759582" style="fill: #262626; stroke: #262626; stroke-width: 0.8"/>
      </g>
     </g>
     <g id="line2d_16">
      <g>
       <use xlink:href="#m6e0c845c95" x="351.8325" y="60.759582" style="fill: #262626; stroke: #262626; stroke-width: 0.8"/>
      </g>
     </g>
     <g id="text_8">
      <!-- 80 -->
      <g style="fill: #262626" transform="translate(47.197188 66.127942) scale(0.15 -0.15)">
       <defs>
        <path id="ArialMT-38" d="M 1131 2484 
Q 781 2613 612 2850 
Q 444 3088 444 3419 
Q 444 3919 803 4259 
Q 1163 4600 1759 4600 
Q 2359 4600 2725 4251 
Q 3091 3903 3091 3403 
Q 3091 3084 2923 2848 
Q 2756 2613 2416 2484 
Q 2838 2347 3058 2040 
Q 3278 1734 3278 1309 
Q 3278 722 2862 322 
Q 2447 -78 1769 -78 
Q 1091 -78 675 323 
Q 259 725 259 1325 
Q 259 1772 486 2073 
Q 713 2375 1131 2484 
z
M 1019 3438 
Q 1019 3113 1228 2906 
Q 1438 2700 1772 2700 
Q 2097 2700 2305 2904 
Q 2513 3109 2513 3406 
Q 2513 3716 2298 3927 
Q 2084 4138 1766 4138 
Q 1444 4138 1231 3931 
Q 1019 3725 1019 3438 
z
M 838 1322 
Q 838 1081 952 856 
Q 1066 631 1291 507 
Q 1516 384 1775 384 
Q 2178 384 2440 643 
Q 2703 903 2703 1303 
Q 2703 1709 2433 1975 
Q 2163 2241 1756 2241 
Q 1359 2241 1098 1978 
Q 838 1716 838 1322 
z
" transform="scale(0.015625)"/>
       </defs>
       <use xlink:href="#ArialMT-38"/>
       <use xlink:href="#ArialMT-30" transform="translate(55.615234 0)"/>
      </g>
     </g>
    </g>
    <g id="text_9">
     <!-- RHT Losses -->
     <g style="fill: #262626" transform="translate(40.215938 139.935438) rotate(-90) scale(0.15 -0.15)">
      <defs>
       <path id="ArialMT-52" d="M 503 0 
L 503 4581 
L 2534 4581 
Q 3147 4581 3465 4457 
Q 3784 4334 3975 4021 
Q 4166 3709 4166 3331 
Q 4166 2844 3850 2509 
Q 3534 2175 2875 2084 
Q 3116 1969 3241 1856 
Q 3506 1613 3744 1247 
L 4541 0 
L 3778 0 
L 3172 953 
Q 2906 1366 2734 1584 
Q 2563 1803 2427 1890 
Q 2291 1978 2150 2013 
Q 2047 2034 1813 2034 
L 1109 2034 
L 1109 0 
L 503 0 
z
M 1109 2559 
L 2413 2559 
Q 2828 2559 3062 2645 
Q 3297 2731 3419 2920 
Q 3541 3109 3541 3331 
Q 3541 3656 3305 3865 
Q 3069 4075 2559 4075 
L 1109 4075 
L 1109 2559 
z
" transform="scale(0.015625)"/>
       <path id="ArialMT-48" d="M 513 0 
L 513 4581 
L 1119 4581 
L 1119 2700 
L 3500 2700 
L 3500 4581 
L 4106 4581 
L 4106 0 
L 3500 0 
L 3500 2159 
L 1119 2159 
L 1119 0 
L 513 0 
z
" transform="scale(0.015625)"/>
       <path id="ArialMT-54" d="M 1659 0 
L 1659 4041 
L 150 4041 
L 150 4581 
L 3781 4581 
L 3781 4041 
L 2266 4041 
L 2266 0 
L 1659 0 
z
" transform="scale(0.015625)"/>
       <path id="ArialMT-20" transform="scale(0.015625)"/>
       <path id="ArialMT-4c" d="M 469 0 
L 469 4581 
L 1075 4581 
L 1075 541 
L 3331 541 
L 3331 0 
L 469 0 
z
" transform="scale(0.015625)"/>
       <path id="ArialMT-6f" d="M 213 1659 
Q 213 2581 725 3025 
Q 1153 3394 1769 3394 
Q 2453 3394 2887 2945 
Q 3322 2497 3322 1706 
Q 3322 1066 3130 698 
Q 2938 331 2570 128 
Q 2203 -75 1769 -75 
Q 1072 -75 642 372 
Q 213 819 213 1659 
z
M 791 1659 
Q 791 1022 1069 705 
Q 1347 388 1769 388 
Q 2188 388 2466 706 
Q 2744 1025 2744 1678 
Q 2744 2294 2464 2611 
Q 2184 2928 1769 2928 
Q 1347 2928 1069 2612 
Q 791 2297 791 1659 
z
" transform="scale(0.015625)"/>
       <path id="ArialMT-73" d="M 197 991 
L 753 1078 
Q 800 744 1014 566 
Q 1228 388 1613 388 
Q 2000 388 2187 545 
Q 2375 703 2375 916 
Q 2375 1106 2209 1216 
Q 2094 1291 1634 1406 
Q 1016 1563 777 1677 
Q 538 1791 414 1992 
Q 291 2194 291 2438 
Q 291 2659 392 2848 
Q 494 3038 669 3163 
Q 800 3259 1026 3326 
Q 1253 3394 1513 3394 
Q 1903 3394 2198 3281 
Q 2494 3169 2634 2976 
Q 2775 2784 2828 2463 
L 2278 2388 
Q 2241 2644 2061 2787 
Q 1881 2931 1553 2931 
Q 1166 2931 1000 2803 
Q 834 2675 834 2503 
Q 834 2394 903 2306 
Q 972 2216 1119 2156 
Q 1203 2125 1616 2013 
Q 2213 1853 2448 1751 
Q 2684 1650 2818 1456 
Q 2953 1263 2953 975 
Q 2953 694 2789 445 
Q 2625 197 2315 61 
Q 2006 -75 1616 -75 
Q 969 -75 630 194 
Q 291 463 197 991 
z
" transform="scale(0.015625)"/>
       <path id="ArialMT-65" d="M 2694 1069 
L 3275 997 
Q 3138 488 2766 206 
Q 2394 -75 1816 -75 
Q 1088 -75 661 373 
Q 234 822 234 1631 
Q 234 2469 665 2931 
Q 1097 3394 1784 3394 
Q 2450 3394 2872 2941 
Q 3294 2488 3294 1666 
Q 3294 1616 3291 1516 
L 816 1516 
Q 847 969 1125 678 
Q 1403 388 1819 388 
Q 2128 388 2347 550 
Q 2566 713 2694 1069 
z
M 847 1978 
L 2700 1978 
Q 2663 2397 2488 2606 
Q 2219 2931 1791 2931 
Q 1403 2931 1139 2672 
Q 875 2413 847 1978 
z
" transform="scale(0.015625)"/>
      </defs>
      <use xlink:href="#ArialMT-52"/>
      <use xlink:href="#ArialMT-48" transform="translate(72.216797 0)"/>
      <use xlink:href="#ArialMT-54" transform="translate(144.433594 0)"/>
      <use xlink:href="#ArialMT-20" transform="translate(203.767578 0)"/>
      <use xlink:href="#ArialMT-4c" transform="translate(231.550781 0)"/>
      <use xlink:href="#ArialMT-6f" transform="translate(287.166016 0)"/>
      <use xlink:href="#ArialMT-73" transform="translate(342.78125 0)"/>
      <use xlink:href="#ArialMT-73" transform="translate(392.78125 0)"/>
      <use xlink:href="#ArialMT-65" transform="translate(442.78125 0)"/>
      <use xlink:href="#ArialMT-73" transform="translate(498.396484 0)"/>
     </g>
    </g>
   </g>
   <g id="line2d_17">
    <path d="M 67.38 46.164301 
L 67.950045 67.25223 
L 68.52009 77.848871 
L 69.66018 93.243579 
L 70.800271 105.874723 
L 71.370316 110.001804 
L 71.940361 112.224247 
L 72.510406 113.380637 
L 73.080451 114.85793 
L 74.220541 120.678035 
L 75.360631 125.110181 
L 75.930676 126.477004 
L 76.500721 127.176701 
L 77.070767 127.232132 
L 77.640812 126.85913 
L 78.210857 126.345984 
L 78.780902 126.005578 
L 79.350947 126.882108 
L 79.920992 127.230567 
L 82.201172 129.461783 
L 84.481353 131.099208 
L 85.051398 132.370094 
L 86.761533 133.799456 
L 87.331578 134.573016 
L 87.901623 135.898019 
L 88.471668 137.643051 
L 89.041713 130.913636 
L 89.611759 139.173113 
L 90.181804 136.517215 
L 91.891939 132.108984 
L 92.461984 131.321327 
L 93.032029 130.783395 
L 93.602074 130.661316 
L 94.172119 130.74201 
L 94.742164 131.08317 
L 95.882255 132.210647 
L 96.4523 133.21099 
L 97.022345 133.439026 
L 97.59239 133.324991 
L 98.73248 132.709755 
L 99.302525 132.62403 
L 99.87257 132.771523 
L 101.582705 133.635656 
L 102.152751 134.196139 
L 103.292841 134.750218 
L 105.002976 135.616091 
L 105.573021 135.898932 
L 106.143066 136.313353 
L 106.713111 136.918083 
L 107.283156 137.738395 
L 109.563337 143.404478 
L 110.133382 141.719908 
L 110.703427 145.712135 
L 111.843517 145.223097 
L 112.413562 147.480329 
L 112.983607 135.8267 
L 113.553652 135.547376 
L 114.123697 127.449656 
L 114.693742 124.952559 
L 115.263788 125.032809 
L 116.403878 126.971675 
L 118.684058 129.143425 
L 119.254103 129.504993 
L 119.824148 129.39757 
L 120.394193 129.06854 
L 120.964238 128.944686 
L 121.534284 129.276956 
L 123.244419 131.308687 
L 123.814464 131.481134 
L 127.80478 130.858038 
L 128.94487 130.977681 
L 131.22505 131.688495 
L 132.935185 131.50633 
L 135.785411 131.622617 
L 136.355456 131.835519 
L 138.065591 131.911785 
L 141.485862 131.852914 
L 142.055907 132.031998 
L 146.616268 132.052716 
L 147.186313 132.051611 
L 147.756358 132.214197 
L 158.587214 132.423525 
L 159.15726 132.58226 
L 164.287665 132.605598 
L 164.85771 132.744293 
L 169.988116 132.765178 
L 170.558161 132.887333 
L 175.688567 132.90852 
L 176.828657 133.014619 
L 187.089469 133.129642 
L 188.799604 133.193026 
L 213.311543 133.407192 
L 232.693076 133.623075 
L 234.973257 133.675878 
L 249.794429 133.925235 
L 252.074609 133.988736 
L 266.895782 134.328297 
L 269.746007 134.429089 
L 278.296683 134.755181 
L 281.716954 134.923669 
L 289.697585 135.417344 
L 295.968081 136.005885 
L 300.528442 136.651683 
L 303.948712 137.36895 
L 306.228893 138.067936 
L 307.939028 138.806791 
L 309.649163 139.804857 
L 310.789254 140.735855 
L 311.929344 142.028312 
L 312.499389 142.89833 
L 313.069434 143.982974 
L 313.639479 145.340573 
L 314.209524 147.052381 
L 314.779569 148.392493 
L 315.349614 144.763257 
L 315.919659 147.183543 
L 316.489704 142.263071 
L 317.059749 141.157943 
L 318.19984 142.840278 
L 318.769885 144.342466 
L 319.33993 147.070437 
L 319.909975 147.968354 
L 320.48002 147.155174 
L 321.62011 143.572362 
L 322.7602 151.450324 
L 323.330245 131.495046 
L 323.900291 132.276325 
L 324.470336 126.465067 
L 325.040381 126.226349 
L 325.610426 128.211891 
L 326.180471 130.611175 
L 326.750516 132.081779 
L 327.320561 132.078054 
L 328.460651 130.111992 
L 329.030696 129.66151 
L 329.600741 129.946074 
L 331.310877 132.608209 
L 331.880922 132.834522 
L 332.450967 132.514842 
L 333.591057 131.381823 
L 334.161102 131.173692 
L 334.731147 131.274375 
L 335.871237 132.15165 
L 336.441283 132.590648 
L 337.011328 132.872006 
L 337.581373 132.941057 
L 339.291508 132.64792 
L 340.431598 132.831508 
L 341.571688 133.074629 
L 342.711779 133.036827 
L 344.421914 132.836389 
L 348.412229 133.101701 
L 351.8325 133.087269 
L 351.8325 133.087269 
" clip-path="url(#pfd011d8276)" style="fill: none; stroke: #000000; stroke-width: 2; stroke-linecap: round"/>
   </g>
   <g id="patch_3">
    <path d="M 67.38 156.714625 
L 67.38 40.9 
" style="fill: none; stroke: #262626; stroke-width: 1.5; stroke-linejoin: miter; stroke-linecap: square"/>
   </g>
   <g id="patch_4">
    <path d="M 351.8325 156.714625 
L 351.8325 40.9 
" style="fill: none; stroke: #262626; stroke-width: 1.5; stroke-linejoin: miter; stroke-linecap: square"/>
   </g>
   <g id="patch_5">
    <path d="M 67.38 156.714625 
L 351.8325 156.714625 
" style="fill: none; stroke: #262626; stroke-width: 1.5; stroke-linejoin: miter; stroke-linecap: square"/>
   </g>
   <g id="patch_6">
    <path d="M 67.38 40.9 
L 351.8325 40.9 
" style="fill: none; stroke: #262626; stroke-width: 1.5; stroke-linejoin: miter; stroke-linecap: square"/>
   </g>
   <g id="text_10">
    <!-- (a) -->
    <g style="fill: #262626" transform="translate(67.38 30.9) scale(0.2 -0.2)">
     <defs>
      <path id="ArialMT-28" d="M 1497 -1347 
Q 1031 -759 709 28 
Q 388 816 388 1659 
Q 388 2403 628 3084 
Q 909 3875 1497 4659 
L 1900 4659 
Q 1522 4009 1400 3731 
Q 1209 3300 1100 2831 
Q 966 2247 966 1656 
Q 966 153 1900 -1347 
L 1497 -1347 
z
" transform="scale(0.015625)"/>
      <path id="ArialMT-61" d="M 2588 409 
Q 2275 144 1986 34 
Q 1697 -75 1366 -75 
Q 819 -75 525 192 
Q 231 459 231 875 
Q 231 1119 342 1320 
Q 453 1522 633 1644 
Q 813 1766 1038 1828 
Q 1203 1872 1538 1913 
Q 2219 1994 2541 2106 
Q 2544 2222 2544 2253 
Q 2544 2597 2384 2738 
Q 2169 2928 1744 2928 
Q 1347 2928 1158 2789 
Q 969 2650 878 2297 
L 328 2372 
Q 403 2725 575 2942 
Q 747 3159 1072 3276 
Q 1397 3394 1825 3394 
Q 2250 3394 2515 3294 
Q 2781 3194 2906 3042 
Q 3031 2891 3081 2659 
Q 3109 2516 3109 2141 
L 3109 1391 
Q 3109 606 3145 398 
Q 3181 191 3288 0 
L 2700 0 
Q 2613 175 2588 409 
z
M 2541 1666 
Q 2234 1541 1622 1453 
Q 1275 1403 1131 1340 
Q 988 1278 909 1158 
Q 831 1038 831 891 
Q 831 666 1001 516 
Q 1172 366 1500 366 
Q 1825 366 2078 508 
Q 2331 650 2450 897 
Q 2541 1088 2541 1459 
L 2541 1666 
z
" transform="scale(0.015625)"/>
      <path id="ArialMT-29" d="M 791 -1347 
L 388 -1347 
Q 1322 153 1322 1656 
Q 1322 2244 1188 2822 
Q 1081 3291 891 3722 
Q 769 4003 388 4659 
L 791 4659 
Q 1378 3875 1659 3084 
Q 1900 2403 1900 1659 
Q 1900 816 1576 28 
Q 1253 -759 791 -1347 
z
" transform="scale(0.015625)"/>
     </defs>
     <use xlink:href="#ArialMT-28"/>
     <use xlink:href="#ArialMT-61" transform="translate(33.300781 0)"/>
     <use xlink:href="#ArialMT-29" transform="translate(88.916016 0)"/>
    </g>
   </g>
  </g>
  <g id="axes_2">
   <g id="patch_7">
    <path d="M 419.3475 156.714625 
L 703.8 156.714625 
L 703.8 40.9 
L 419.3475 40.9 
z
" style="fill: #ffffff"/>
   </g>
   <g id="matplotlib.axis_3">
    <g id="xtick_6">
     <g id="line2d_18">
      <g>
       <use xlink:href="#m61039ea77a" x="419.3475" y="156.714625" style="fill: #262626; stroke: #262626; stroke-width: 0.8"/>
      </g>
     </g>
     <g id="line2d_19">
      <g>
       <use xlink:href="#mb00737cac1" x="419.3475" y="40.9" style="fill: #262626; stroke: #262626; stroke-width: 0.8"/>
      </g>
     </g>
     <g id="text_11">
      <!-- 0 -->
      <g style="fill: #262626" transform="translate(415.176797 170.951344) scale(0.15 -0.15)">
       <use xlink:href="#ArialMT-30"/>
      </g>
     </g>
    </g>
    <g id="xtick_7">
     <g id="line2d_20">
      <g>
       <use xlink:href="#m61039ea77a" x="476.352009" y="156.714625" style="fill: #262626; stroke: #262626; stroke-width: 0.8"/>
      </g>
     </g>
     <g id="line2d_21">
      <g>
       <use xlink:href="#mb00737cac1" x="476.352009" y="40.9" style="fill: #262626; stroke: #262626; stroke-width: 0.8"/>
      </g>
     </g>
     <g id="text_12">
      <!-- 100 -->
      <g style="fill: #262626" transform="translate(463.8399 170.951344) scale(0.15 -0.15)">
       <use xlink:href="#ArialMT-31"/>
       <use xlink:href="#ArialMT-30" transform="translate(55.615234 0)"/>
       <use xlink:href="#ArialMT-30" transform="translate(111.230469 0)"/>
      </g>
     </g>
    </g>
    <g id="xtick_8">
     <g id="line2d_22">
      <g>
       <use xlink:href="#m61039ea77a" x="533.356518" y="156.714625" style="fill: #262626; stroke: #262626; stroke-width: 0.8"/>
      </g>
     </g>
     <g id="line2d_23">
      <g>
       <use xlink:href="#mb00737cac1" x="533.356518" y="40.9" style="fill: #262626; stroke: #262626; stroke-width: 0.8"/>
      </g>
     </g>
     <g id="text_13">
      <!-- 200 -->
      <g style="fill: #262626" transform="translate(520.844409 170.951344) scale(0.15 -0.15)">
       <use xlink:href="#ArialMT-32"/>
       <use xlink:href="#ArialMT-30" transform="translate(55.615234 0)"/>
       <use xlink:href="#ArialMT-30" transform="translate(111.230469 0)"/>
      </g>
     </g>
    </g>
    <g id="xtick_9">
     <g id="line2d_24">
      <g>
       <use xlink:href="#m61039ea77a" x="590.361027" y="156.714625" style="fill: #262626; stroke: #262626; stroke-width: 0.8"/>
      </g>
     </g>
     <g id="line2d_25">
      <g>
       <use xlink:href="#mb00737cac1" x="590.361027" y="40.9" style="fill: #262626; stroke: #262626; stroke-width: 0.8"/>
      </g>
     </g>
     <g id="text_14">
      <!-- 300 -->
      <g style="fill: #262626" transform="translate(577.848918 170.951344) scale(0.15 -0.15)">
       <use xlink:href="#ArialMT-33"/>
       <use xlink:href="#ArialMT-30" transform="translate(55.615234 0)"/>
       <use xlink:href="#ArialMT-30" transform="translate(111.230469 0)"/>
      </g>
     </g>
    </g>
    <g id="xtick_10">
     <g id="line2d_26">
      <g>
       <use xlink:href="#m61039ea77a" x="647.365536" y="156.714625" style="fill: #262626; stroke: #262626; stroke-width: 0.8"/>
      </g>
     </g>
     <g id="line2d_27">
      <g>
       <use xlink:href="#mb00737cac1" x="647.365536" y="40.9" style="fill: #262626; stroke: #262626; stroke-width: 0.8"/>
      </g>
     </g>
     <g id="text_15">
      <!-- 400 -->
      <g style="fill: #262626" transform="translate(634.853427 170.951344) scale(0.15 -0.15)">
       <use xlink:href="#ArialMT-34"/>
       <use xlink:href="#ArialMT-30" transform="translate(55.615234 0)"/>
       <use xlink:href="#ArialMT-30" transform="translate(111.230469 0)"/>
      </g>
     </g>
    </g>
   </g>
   <g id="matplotlib.axis_4">
    <g id="ytick_4">
     <g id="line2d_28">
      <g>
       <use xlink:href="#m3a0c62dc26" x="419.3475" y="148.192314" style="fill: #262626; stroke: #262626; stroke-width: 0.8"/>
      </g>
     </g>
     <g id="line2d_29">
      <g>
       <use xlink:href="#m6e0c845c95" x="703.8" y="148.192314" style="fill: #262626; stroke: #262626; stroke-width: 0.8"/>
      </g>
     </g>
     <g id="text_16">
      <!-- 0.24 -->
      <g style="fill: #262626" transform="translate(386.656094 153.560673) scale(0.15 -0.15)">
       <defs>
        <path id="ArialMT-2e" d="M 581 0 
L 581 641 
L 1222 641 
L 1222 0 
L 581 0 
z
" transform="scale(0.015625)"/>
       </defs>
       <use xlink:href="#ArialMT-30"/>
       <use xlink:href="#ArialMT-2e" transform="translate(55.615234 0)"/>
       <use xlink:href="#ArialMT-32" transform="translate(83.398438 0)"/>
       <use xlink:href="#ArialMT-34" transform="translate(139.013672 0)"/>
      </g>
     </g>
    </g>
    <g id="ytick_5">
     <g id="line2d_30">
      <g>
       <use xlink:href="#m3a0c62dc26" x="419.3475" y="87.641402" style="fill: #262626; stroke: #262626; stroke-width: 0.8"/>
      </g>
     </g>
     <g id="line2d_31">
      <g>
       <use xlink:href="#m6e0c845c95" x="703.8" y="87.641402" style="fill: #262626; stroke: #262626; stroke-width: 0.8"/>
      </g>
     </g>
     <g id="text_17">
      <!-- 0.26 -->
      <g style="fill: #262626" transform="translate(386.656094 93.009761) scale(0.15 -0.15)">
       <use xlink:href="#ArialMT-30"/>
       <use xlink:href="#ArialMT-2e" transform="translate(55.615234 0)"/>
       <use xlink:href="#ArialMT-32" transform="translate(83.398438 0)"/>
       <use xlink:href="#ArialMT-36" transform="translate(139.013672 0)"/>
      </g>
     </g>
    </g>
    <g id="text_18">
     <!-- $\hat{\alpha}$ -->
     <g style="fill: #262626" transform="translate(379.674844 103.757313) rotate(-90) scale(0.15 -0.15)">
      <defs>
       <path id="DejaVuSans-302" d="M -1831 5119 
L -1369 5119 
L -603 3944 
L -1038 3944 
L -1600 4709 
L -2163 3944 
L -2597 3944 
L -1831 5119 
z
M -1600 3584 
L -1600 3584 
z
" transform="scale(0.015625)"/>
       <path id="DejaVuSans-Oblique-3b1" d="M 2619 1628 
L 2622 2350 
Q 2625 3088 2069 3091 
Q 1653 3094 1394 2747 
Q 1069 2319 959 1747 
Q 825 1059 994 731 
Q 1169 397 1547 397 
Q 1966 397 2319 1063 
L 2619 1628 
z
M 2166 3578 
Q 3141 3594 3128 2584 
Q 3128 2584 3616 3500 
L 4128 3500 
L 3119 1603 
L 3109 919 
Q 3109 766 3194 638 
Q 3291 488 3391 488 
L 3669 488 
L 3575 0 
L 3228 0 
Q 2934 0 2722 263 
Q 2622 394 2619 669 
Q 2416 334 2066 50 
Q 1900 -81 1453 -78 
Q 722 -72 456 397 
Q 184 884 353 1747 
Q 534 2675 1009 3097 
Q 1544 3569 2166 3578 
z
" transform="scale(0.015625)"/>
      </defs>
      <use xlink:href="#DejaVuSans-302" transform="translate(66.057617 13.015625)"/>
      <use xlink:href="#DejaVuSans-Oblique-3b1" transform="translate(0 0.359375)"/>
     </g>
    </g>
   </g>
   <g id="line2d_32">
    <path d="M 419.3475 105.713085 
L 419.917545 132.445398 
L 420.48759 148.398095 
L 421.057635 151.450324 
L 421.62768 145.100265 
L 422.197725 132.80861 
L 425.047951 56.364925 
L 425.617996 50.437855 
L 426.188041 49.195597 
L 426.758086 51.784416 
L 427.328131 57.108132 
L 429.038267 77.035052 
L 429.608312 80.906821 
L 430.178357 82.073919 
L 430.748402 80.513878 
L 431.318447 76.813813 
L 433.028582 61.066971 
L 433.598627 57.426276 
L 434.168672 55.923079 
L 434.738717 56.949963 
L 435.308763 60.530205 
L 435.878808 66.331317 
L 437.018898 82.020504 
L 438.158988 96.983265 
L 438.729033 101.585519 
L 439.299078 103.556006 
L 439.869123 103.125529 
L 440.439168 101.374386 
L 441.009213 101.460103 
L 441.579259 98.695791 
L 442.149304 92.379387 
L 443.289394 73.029114 
L 444.429484 54.163274 
L 444.999529 48.36514 
L 445.569574 46.164301 
L 446.139619 47.820705 
L 446.709664 53.117443 
L 447.279709 61.40704 
L 449.55989 101.791059 
L 450.129935 106.739337 
L 450.69998 107.905893 
L 451.270025 105.614465 
L 451.84007 100.729437 
L 453.550205 82.207095 
L 454.120251 78.543031 
L 454.690296 77.047323 
L 455.260341 77.419062 
L 455.830386 79.022772 
L 456.970476 82.88615 
L 457.540521 83.905816 
L 458.110566 83.946959 
L 458.680611 83.151149 
L 459.250656 81.943991 
L 459.820701 81.23904 
L 460.390746 81.584703 
L 460.960792 83.420931 
L 461.530837 87.175494 
L 462.670927 99.358695 
L 463.240972 100.895366 
L 463.811017 97.80461 
L 464.381062 91.4264 
L 464.951107 88.408999 
L 465.521152 82.344151 
L 467.231288 57.937417 
L 467.801333 53.716015 
L 468.371378 54.040835 
L 468.941423 59.476975 
L 469.511468 69.621477 
L 471.791648 121.942871 
L 472.361693 126.963061 
L 472.931738 126.314593 
L 473.501784 120.597348 
L 474.071829 111.153917 
L 475.781964 79.312855 
L 476.352009 73.081807 
L 476.922054 70.546855 
L 477.492099 71.316408 
L 478.062144 74.510656 
L 479.77228 87.475682 
L 480.342325 89.858059 
L 480.91237 90.641237 
L 481.482415 90.100231 
L 482.622505 87.798788 
L 483.19255 87.606152 
L 483.762595 88.572853 
L 484.33264 90.661719 
L 486.042776 98.899525 
L 486.612821 100.220371 
L 487.182866 100.10515 
L 487.752911 98.550524 
L 488.893001 93.157513 
L 490.033091 87.925739 
L 490.603136 86.416677 
L 491.173181 85.884423 
L 491.743226 86.264373 
L 492.313272 87.328159 
L 494.593452 92.789924 
L 495.163497 93.537553 
L 495.733542 93.871666 
L 496.303587 93.878434 
L 498.013722 93.392466 
L 498.583768 93.424226 
L 499.153813 93.571659 
L 500.863948 94.637431 
L 501.433993 94.622092 
L 502.004038 94.249631 
L 502.574083 93.567328 
L 503.714173 91.862562 
L 504.284218 91.214184 
L 504.854264 90.904432 
L 505.424309 91.15301 
L 505.994354 91.862742 
L 507.704489 94.607294 
L 508.274534 95.050855 
L 508.844579 95.109593 
L 509.414624 94.849376 
L 510.554714 93.92842 
L 511.12476 93.724866 
L 511.694805 93.814372 
L 513.974985 94.981289 
L 514.54503 94.87491 
L 515.68512 94.097236 
L 516.255165 93.649074 
L 516.82521 93.458062 
L 517.395256 93.557042 
L 517.965301 93.899006 
L 519.675436 95.221566 
L 520.245481 95.384247 
L 520.815526 95.340125 
L 522.525661 94.716741 
L 523.095706 94.730456 
L 524.235797 95.091277 
L 525.375887 95.392818 
L 525.945932 95.366743 
L 527.086022 95.002312 
L 527.656067 94.778276 
L 528.226112 94.712771 
L 528.796157 94.813104 
L 531.076338 95.693007 
L 531.646383 95.711323 
L 532.786473 95.45264 
L 533.356518 95.287523 
L 533.926563 95.25089 
L 535.066653 95.518867 
L 536.206743 95.832319 
L 537.346834 95.779355 
L 539.056969 95.310079 
L 539.627014 95.320095 
L 540.767104 95.681548 
L 541.907194 96.040835 
L 543.047285 96.001225 
L 544.75742 95.591861 
L 545.89751 95.736045 
L 547.607645 96.179064 
L 548.747735 96.068535 
L 550.457871 95.682721 
L 551.597961 95.876079 
L 552.738051 96.237803 
L 553.878141 96.295188 
L 556.158322 95.810574 
L 557.298412 95.990308 
L 558.438502 96.281744 
L 559.578592 96.299519 
L 561.858773 95.944562 
L 562.998863 96.151725 
L 564.138953 96.411852 
L 565.279043 96.367099 
L 566.989178 96.021346 
L 568.129269 96.086761 
L 569.839404 96.482862 
L 570.979494 96.425026 
L 572.689629 96.113017 
L 573.829719 96.198734 
L 575.539855 96.532667 
L 576.679945 96.439552 
L 578.39008 96.17338 
L 579.53017 96.270555 
L 581.240306 96.554051 
L 582.380396 96.456696 
L 584.090531 96.241051 
L 585.230621 96.348061 
L 586.940757 96.572638 
L 588.650892 96.370347 
L 589.790982 96.297353 
L 591.501117 96.520487 
L 592.641207 96.602414 
L 596.061478 96.412574 
L 598.341658 96.6127 
L 601.191884 96.435221 
L 604.612154 96.567044 
L 606.32229 96.460575 
L 610.88265 96.491884 
L 612.592786 96.516968 
L 615.443011 96.579676 
L 618.293236 96.509208 
L 621.713507 96.54566 
L 623.993687 96.530863 
L 626.843913 96.552247 
L 629.124093 96.510562 
L 634.254499 96.492065 
L 645.085356 96.346617 
L 647.935581 96.328572 
L 650.785807 96.263427 
L 654.206077 96.222735 
L 659.906528 96.180869 
L 663.326799 96.317474 
L 664.466889 96.692461 
L 665.036934 97.080621 
L 665.606979 97.680637 
L 666.177024 98.71122 
L 666.747069 100.819485 
L 667.317114 105.48183 
L 667.887159 101.007429 
L 669.027249 74.893312 
L 669.597295 67.458444 
L 670.16734 71.89901 
L 670.737385 88.372998 
L 671.877475 134.450622 
L 672.44752 146.103735 
L 673.017565 137.306019 
L 673.58761 112.431814 
L 674.157655 81.506205 
L 674.7277 58.866493 
L 675.297745 55.857483 
L 675.867791 59.36022 
L 676.437836 66.523503 
L 679.858106 120.454653 
L 680.428151 125.9452 
L 680.998196 128.168641 
L 681.568241 126.306473 
L 682.138287 120.119907 
L 683.278377 98.793056 
L 683.848422 87.754396 
L 684.418467 79.489431 
L 684.988512 75.298797 
L 685.558557 75.31197 
L 686.128602 78.724118 
L 687.838737 95.117353 
L 688.408783 98.755792 
L 688.978828 101.055431 
L 690.118918 103.821367 
L 691.259008 106.226662 
L 691.829053 106.635123 
L 692.399098 105.785808 
L 692.969143 103.415702 
L 694.109233 95.405811 
L 694.679279 91.522222 
L 695.249324 88.984834 
L 695.819369 88.326621 
L 696.389414 89.53369 
L 696.959459 92.093455 
L 698.099549 98.063113 
L 698.669594 100.083676 
L 699.239639 101.004181 
L 699.809684 101.012572 
L 700.949775 99.861896 
L 702.089865 98.902954 
L 702.65991 98.443514 
L 703.229955 97.771767 
L 703.8 96.814359 
L 703.8 96.814359 
" clip-path="url(#p77278a54d4)" style="fill: none; stroke: #000000; stroke-width: 2; stroke-linecap: round"/>
   </g>
   <g id="patch_8">
    <path d="M 419.3475 156.714625 
L 419.3475 40.9 
" style="fill: none; stroke: #262626; stroke-width: 1.5; stroke-linejoin: miter; stroke-linecap: square"/>
   </g>
   <g id="patch_9">
    <path d="M 703.8 156.714625 
L 703.8 40.9 
" style="fill: none; stroke: #262626; stroke-width: 1.5; stroke-linejoin: miter; stroke-linecap: square"/>
   </g>
   <g id="patch_10">
    <path d="M 419.3475 156.714625 
L 703.8 156.714625 
" style="fill: none; stroke: #262626; stroke-width: 1.5; stroke-linejoin: miter; stroke-linecap: square"/>
   </g>
   <g id="patch_11">
    <path d="M 419.3475 40.9 
L 703.8 40.9 
" style="fill: none; stroke: #262626; stroke-width: 1.5; stroke-linejoin: miter; stroke-linecap: square"/>
   </g>
   <g id="text_19">
    <!-- (b) -->
    <g style="fill: #262626" transform="translate(419.3475 30.9) scale(0.2 -0.2)">
     <defs>
      <path id="ArialMT-62" d="M 941 0 
L 419 0 
L 419 4581 
L 981 4581 
L 981 2947 
Q 1338 3394 1891 3394 
Q 2197 3394 2470 3270 
Q 2744 3147 2920 2923 
Q 3097 2700 3197 2384 
Q 3297 2069 3297 1709 
Q 3297 856 2875 390 
Q 2453 -75 1863 -75 
Q 1275 -75 941 416 
L 941 0 
z
M 934 1684 
Q 934 1088 1097 822 
Q 1363 388 1816 388 
Q 2184 388 2453 708 
Q 2722 1028 2722 1663 
Q 2722 2313 2464 2622 
Q 2206 2931 1841 2931 
Q 1472 2931 1203 2611 
Q 934 2291 934 1684 
z
" transform="scale(0.015625)"/>
     </defs>
     <use xlink:href="#ArialMT-28"/>
     <use xlink:href="#ArialMT-62" transform="translate(33.300781 0)"/>
     <use xlink:href="#ArialMT-29" transform="translate(88.916016 0)"/>
    </g>
   </g>
  </g>
  <g id="axes_3">
   <g id="patch_12">
    <path d="M 67.38 349.667312 
L 351.8325 349.667312 
L 351.8325 233.852688 
L 67.38 233.852688 
z
" style="fill: #ffffff"/>
   </g>
   <g id="matplotlib.axis_5">
    <g id="xtick_11">
     <g id="line2d_33">
      <g>
       <use xlink:href="#m61039ea77a" x="67.38" y="349.667312" style="fill: #262626; stroke: #262626; stroke-width: 0.8"/>
      </g>
     </g>
     <g id="line2d_34">
      <g>
       <use xlink:href="#mb00737cac1" x="67.38" y="233.852688" style="fill: #262626; stroke: #262626; stroke-width: 0.8"/>
      </g>
     </g>
     <g id="text_20">
      <!-- 0 -->
      <g style="fill: #262626" transform="translate(63.209297 363.904031) scale(0.15 -0.15)">
       <use xlink:href="#ArialMT-30"/>
      </g>
     </g>
    </g>
    <g id="xtick_12">
     <g id="line2d_35">
      <g>
       <use xlink:href="#m61039ea77a" x="124.384509" y="349.667312" style="fill: #262626; stroke: #262626; stroke-width: 0.8"/>
      </g>
     </g>
     <g id="line2d_36">
      <g>
       <use xlink:href="#mb00737cac1" x="124.384509" y="233.852688" style="fill: #262626; stroke: #262626; stroke-width: 0.8"/>
      </g>
     </g>
     <g id="text_21">
      <!-- 100 -->
      <g style="fill: #262626" transform="translate(111.8724 363.904031) scale(0.15 -0.15)">
       <use xlink:href="#ArialMT-31"/>
       <use xlink:href="#ArialMT-30" transform="translate(55.615234 0)"/>
       <use xlink:href="#ArialMT-30" transform="translate(111.230469 0)"/>
      </g>
     </g>
    </g>
    <g id="xtick_13">
     <g id="line2d_37">
      <g>
       <use xlink:href="#m61039ea77a" x="181.389018" y="349.667312" style="fill: #262626; stroke: #262626; stroke-width: 0.8"/>
      </g>
     </g>
     <g id="line2d_38">
      <g>
       <use xlink:href="#mb00737cac1" x="181.389018" y="233.852688" style="fill: #262626; stroke: #262626; stroke-width: 0.8"/>
      </g>
     </g>
     <g id="text_22">
      <!-- 200 -->
      <g style="fill: #262626" transform="translate(168.876909 363.904031) scale(0.15 -0.15)">
       <use xlink:href="#ArialMT-32"/>
       <use xlink:href="#ArialMT-30" transform="translate(55.615234 0)"/>
       <use xlink:href="#ArialMT-30" transform="translate(111.230469 0)"/>
      </g>
     </g>
    </g>
    <g id="xtick_14">
     <g id="line2d_39">
      <g>
       <use xlink:href="#m61039ea77a" x="238.393527" y="349.667312" style="fill: #262626; stroke: #262626; stroke-width: 0.8"/>
      </g>
     </g>
     <g id="line2d_40">
      <g>
       <use xlink:href="#mb00737cac1" x="238.393527" y="233.852688" style="fill: #262626; stroke: #262626; stroke-width: 0.8"/>
      </g>
     </g>
     <g id="text_23">
      <!-- 300 -->
      <g style="fill: #262626" transform="translate(225.881418 363.904031) scale(0.15 -0.15)">
       <use xlink:href="#ArialMT-33"/>
       <use xlink:href="#ArialMT-30" transform="translate(55.615234 0)"/>
       <use xlink:href="#ArialMT-30" transform="translate(111.230469 0)"/>
      </g>
     </g>
    </g>
    <g id="xtick_15">
     <g id="line2d_41">
      <g>
       <use xlink:href="#m61039ea77a" x="295.398036" y="349.667312" style="fill: #262626; stroke: #262626; stroke-width: 0.8"/>
      </g>
     </g>
     <g id="line2d_42">
      <g>
       <use xlink:href="#mb00737cac1" x="295.398036" y="233.852688" style="fill: #262626; stroke: #262626; stroke-width: 0.8"/>
      </g>
     </g>
     <g id="text_24">
      <!-- 400 -->
      <g style="fill: #262626" transform="translate(282.885927 363.904031) scale(0.15 -0.15)">
       <use xlink:href="#ArialMT-34"/>
       <use xlink:href="#ArialMT-30" transform="translate(55.615234 0)"/>
       <use xlink:href="#ArialMT-30" transform="translate(111.230469 0)"/>
      </g>
     </g>
    </g>
   </g>
   <g id="matplotlib.axis_6">
    <g id="ytick_6">
     <g id="line2d_43">
      <g>
       <use xlink:href="#m3a0c62dc26" x="67.38" y="337.627537" style="fill: #262626; stroke: #262626; stroke-width: 0.8"/>
      </g>
     </g>
     <g id="line2d_44">
      <g>
       <use xlink:href="#m6e0c845c95" x="351.8325" y="337.627537" style="fill: #262626; stroke: #262626; stroke-width: 0.8"/>
      </g>
     </g>
     <g id="text_25">
      <!-- 0.90 -->
      <g style="fill: #262626" transform="translate(34.688594 342.995896) scale(0.15 -0.15)">
       <defs>
        <path id="ArialMT-39" d="M 350 1059 
L 891 1109 
Q 959 728 1153 556 
Q 1347 384 1650 384 
Q 1909 384 2104 503 
Q 2300 622 2425 820 
Q 2550 1019 2634 1356 
Q 2719 1694 2719 2044 
Q 2719 2081 2716 2156 
Q 2547 1888 2255 1720 
Q 1963 1553 1622 1553 
Q 1053 1553 659 1965 
Q 266 2378 266 3053 
Q 266 3750 677 4175 
Q 1088 4600 1706 4600 
Q 2153 4600 2523 4359 
Q 2894 4119 3086 3673 
Q 3278 3228 3278 2384 
Q 3278 1506 3087 986 
Q 2897 466 2520 194 
Q 2144 -78 1638 -78 
Q 1100 -78 759 220 
Q 419 519 350 1059 
z
M 2653 3081 
Q 2653 3566 2395 3850 
Q 2138 4134 1775 4134 
Q 1400 4134 1122 3828 
Q 844 3522 844 3034 
Q 844 2597 1108 2323 
Q 1372 2050 1759 2050 
Q 2150 2050 2401 2323 
Q 2653 2597 2653 3081 
z
" transform="scale(0.015625)"/>
       </defs>
       <use xlink:href="#ArialMT-30"/>
       <use xlink:href="#ArialMT-2e" transform="translate(55.615234 0)"/>
       <use xlink:href="#ArialMT-39" transform="translate(83.398438 0)"/>
       <use xlink:href="#ArialMT-30" transform="translate(139.013672 0)"/>
      </g>
     </g>
    </g>
    <g id="ytick_7">
     <g id="line2d_45">
      <g>
       <use xlink:href="#m3a0c62dc26" x="67.38" y="287.874741" style="fill: #262626; stroke: #262626; stroke-width: 0.8"/>
      </g>
     </g>
     <g id="line2d_46">
      <g>
       <use xlink:href="#m6e0c845c95" x="351.8325" y="287.874741" style="fill: #262626; stroke: #262626; stroke-width: 0.8"/>
      </g>
     </g>
     <g id="text_26">
      <!-- 0.95 -->
      <g style="fill: #262626" transform="translate(34.688594 293.243101) scale(0.15 -0.15)">
       <defs>
        <path id="ArialMT-35" d="M 266 1200 
L 856 1250 
Q 922 819 1161 601 
Q 1400 384 1738 384 
Q 2144 384 2425 690 
Q 2706 997 2706 1503 
Q 2706 1984 2436 2262 
Q 2166 2541 1728 2541 
Q 1456 2541 1237 2417 
Q 1019 2294 894 2097 
L 366 2166 
L 809 4519 
L 3088 4519 
L 3088 3981 
L 1259 3981 
L 1013 2750 
Q 1425 3038 1878 3038 
Q 2478 3038 2890 2622 
Q 3303 2206 3303 1553 
Q 3303 931 2941 478 
Q 2500 -78 1738 -78 
Q 1113 -78 717 272 
Q 322 622 266 1200 
z
" transform="scale(0.015625)"/>
       </defs>
       <use xlink:href="#ArialMT-30"/>
       <use xlink:href="#ArialMT-2e" transform="translate(55.615234 0)"/>
       <use xlink:href="#ArialMT-39" transform="translate(83.398438 0)"/>
       <use xlink:href="#ArialMT-35" transform="translate(139.013672 0)"/>
      </g>
     </g>
    </g>
    <g id="ytick_8">
     <g id="line2d_47">
      <g>
       <use xlink:href="#m3a0c62dc26" x="67.38" y="238.121946" style="fill: #262626; stroke: #262626; stroke-width: 0.8"/>
      </g>
     </g>
     <g id="line2d_48">
      <g>
       <use xlink:href="#m6e0c845c95" x="351.8325" y="238.121946" style="fill: #262626; stroke: #262626; stroke-width: 0.8"/>
      </g>
     </g>
     <g id="text_27">
      <!-- 1.00 -->
      <g style="fill: #262626" transform="translate(34.688594 243.490305) scale(0.15 -0.15)">
       <use xlink:href="#ArialMT-31"/>
       <use xlink:href="#ArialMT-2e" transform="translate(55.615234 0)"/>
       <use xlink:href="#ArialMT-30" transform="translate(83.398438 0)"/>
       <use xlink:href="#ArialMT-30" transform="translate(139.013672 0)"/>
      </g>
     </g>
    </g>
    <g id="text_28">
     <!-- $\hat{\sigma}$ -->
     <g style="fill: #262626" transform="translate(27.707344 296.56) rotate(-90) scale(0.15 -0.15)">
      <defs>
       <path id="DejaVuSans-Oblique-3c3" d="M 2219 3044 
Q 1744 3044 1422 2700 
Q 1081 2341 969 1747 
Q 844 1119 1044 756 
Q 1241 397 1706 397 
Q 2166 397 2503 759 
Q 2844 1122 2966 1747 
Q 3075 2319 2881 2700 
Q 2700 3044 2219 3044 
z
M 2309 3503 
L 4219 3500 
L 4106 2925 
L 3463 2925 
Q 3706 2438 3575 1747 
Q 3406 888 2884 400 
Q 2359 -91 1609 -91 
Q 856 -91 525 400 
Q 194 888 363 1747 
Q 528 2609 1050 3097 
Q 1484 3503 2309 3503 
z
" transform="scale(0.015625)"/>
      </defs>
      <use xlink:href="#DejaVuSans-302" transform="translate(64.422852 12.015625)"/>
      <use xlink:href="#DejaVuSans-Oblique-3c3" transform="translate(0 0.78125)"/>
     </g>
    </g>
   </g>
   <g id="line2d_49">
    <path d="M 67.38 344.350997 
L 67.950045 344.403011 
L 68.52009 339.648844 
L 69.66018 325.022238 
L 71.370316 298.537319 
L 73.650496 262.514825 
L 74.790586 246.596982 
L 75.360631 239.473619 
L 75.930676 239.116989 
L 86.191488 239.116989 
L 86.761533 239.59995 
L 87.331578 240.943439 
L 87.901623 243.419807 
L 88.471668 247.611004 
L 90.181804 267.948151 
L 90.751849 273.138602 
L 91.321894 276.77104 
L 91.891939 278.733251 
L 92.461984 279.099252 
L 93.032029 278.065598 
L 93.602074 275.893727 
L 94.172119 272.846619 
L 95.312209 265.152161 
L 97.59239 248.860072 
L 98.73248 242.352228 
L 99.302525 239.808602 
L 99.87257 239.116989 
L 101.582705 239.116989 
L 102.152751 239.467926 
L 102.722796 240.337943 
L 103.292841 241.632324 
L 104.432931 244.946327 
L 107.283156 254.172998 
L 107.853201 256.438817 
L 108.423246 259.246609 
L 108.993292 262.953303 
L 109.563337 268.188771 
L 110.703427 284.772368 
L 113.553652 328.925189 
L 114.123697 332.015416 
L 114.693742 331.751131 
L 115.263788 328.88302 
L 115.833833 324.069068 
L 116.973923 310.798999 
L 120.964238 257.950509 
L 122.104329 245.88034 
L 122.674374 240.814558 
L 123.244419 239.116989 
L 130.655005 239.116989 
L 131.22505 239.343671 
L 131.795095 239.879122 
L 132.36514 240.715214 
L 133.50523 243.121063 
L 136.925501 251.506542 
L 138.065591 253.419703 
L 138.635636 254.095718 
L 139.205681 254.569782 
L 139.775726 254.837211 
L 140.345772 254.898715 
L 140.915817 254.762599 
L 141.485862 254.445646 
L 142.625952 253.439275 
L 145.476177 250.365774 
L 146.616268 249.567343 
L 147.756358 249.180346 
L 148.896448 249.167298 
L 151.176628 249.584009 
L 158.587214 250.974472 
L 162.57753 251.624272 
L 164.287665 251.531155 
L 169.988116 250.987995 
L 171.698252 251.042975 
L 176.258612 251.366036 
L 180.248928 251.434243 
L 192.219875 251.302397 
L 207.041047 251.133482 
L 213.311543 250.899623 
L 250.364474 250.045085 
L 276.586548 249.639405 
L 285.137224 249.743612 
L 290.837675 249.995502 
L 295.968081 250.370104 
L 298.818307 250.820088 
L 301.098487 251.425228 
L 303.378667 252.283324 
L 305.088803 253.176828 
L 306.228893 253.955983 
L 307.368983 254.938038 
L 308.509073 256.205017 
L 309.649163 257.877439 
L 310.789254 260.170836 
L 311.359299 261.670251 
L 311.929344 263.517104 
L 312.499389 265.84757 
L 313.069434 268.882223 
L 313.639479 273.011263 
L 314.209524 278.997002 
L 314.779569 288.321298 
L 315.919659 314.803904 
L 316.489704 322.574042 
L 317.059749 325.506801 
L 317.629795 324.565789 
L 318.19984 321.12166 
L 319.33993 312.454162 
L 319.909975 312.010049 
L 320.48002 315.76259 
L 321.050065 318.641792 
L 321.62011 319.405348 
L 322.190155 318.566943 
L 322.7602 318.799379 
L 323.330245 325.558222 
L 323.900291 327.510054 
L 324.470336 324.941755 
L 325.040381 318.662432 
L 326.180471 298.890688 
L 327.890606 265.573024 
L 329.030696 248.662689 
L 329.600741 242.545875 
L 330.170787 239.116989 
L 333.591057 239.116989 
L 334.161102 239.349246 
L 334.731147 239.816846 
L 335.301192 240.512196 
L 335.871237 241.454097 
L 336.441283 242.651743 
L 337.011328 244.158098 
L 337.581373 246.044866 
L 338.721463 250.9721 
L 341.001643 262.122786 
L 341.571688 264.167378 
L 342.141733 265.636782 
L 342.711779 266.480763 
L 343.281824 266.696829 
L 343.851869 266.323236 
L 344.421914 265.430562 
L 344.991959 264.115067 
L 346.132049 260.696204 
L 347.842184 255.491637 
L 348.412229 254.174718 
L 348.982275 253.185666 
L 349.55232 252.540255 
L 350.122365 252.21061 
L 350.69241 252.155096 
L 351.262455 252.312623 
L 351.8325 252.616468 
L 351.8325 252.616468 
" clip-path="url(#p8870595701)" style="fill: none; stroke: #000000; stroke-width: 2; stroke-linecap: round"/>
   </g>
   <g id="patch_13">
    <path d="M 67.38 349.667312 
L 67.38 233.852687 
" style="fill: none; stroke: #262626; stroke-width: 1.5; stroke-linejoin: miter; stroke-linecap: square"/>
   </g>
   <g id="patch_14">
    <path d="M 351.8325 349.667312 
L 351.8325 233.852687 
" style="fill: none; stroke: #262626; stroke-width: 1.5; stroke-linejoin: miter; stroke-linecap: square"/>
   </g>
   <g id="patch_15">
    <path d="M 67.38 349.667312 
L 351.8325 349.667312 
" style="fill: none; stroke: #262626; stroke-width: 1.5; stroke-linejoin: miter; stroke-linecap: square"/>
   </g>
   <g id="patch_16">
    <path d="M 67.38 233.852688 
L 351.8325 233.852688 
" style="fill: none; stroke: #262626; stroke-width: 1.5; stroke-linejoin: miter; stroke-linecap: square"/>
   </g>
   <g id="text_29">
    <!-- (c) -->
    <g style="fill: #262626" transform="translate(67.38 223.852688) scale(0.2 -0.2)">
     <defs>
      <path id="ArialMT-63" d="M 2588 1216 
L 3141 1144 
Q 3050 572 2676 248 
Q 2303 -75 1759 -75 
Q 1078 -75 664 370 
Q 250 816 250 1647 
Q 250 2184 428 2587 
Q 606 2991 970 3192 
Q 1334 3394 1763 3394 
Q 2303 3394 2647 3120 
Q 2991 2847 3088 2344 
L 2541 2259 
Q 2463 2594 2264 2762 
Q 2066 2931 1784 2931 
Q 1359 2931 1093 2626 
Q 828 2322 828 1663 
Q 828 994 1084 691 
Q 1341 388 1753 388 
Q 2084 388 2306 591 
Q 2528 794 2588 1216 
z
" transform="scale(0.015625)"/>
     </defs>
     <use xlink:href="#ArialMT-28"/>
     <use xlink:href="#ArialMT-63" transform="translate(33.300781 0)"/>
     <use xlink:href="#ArialMT-29" transform="translate(83.300781 0)"/>
    </g>
   </g>
  </g>
  <g id="axes_4">
   <g id="patch_17">
    <path d="M 419.3475 349.667312 
L 703.8 349.667312 
L 703.8 233.852688 
L 419.3475 233.852688 
z
" style="fill: #ffffff"/>
   </g>
   <g id="matplotlib.axis_7">
    <g id="xtick_16">
     <g id="line2d_50">
      <g>
       <use xlink:href="#m61039ea77a" x="419.3475" y="349.667312" style="fill: #262626; stroke: #262626; stroke-width: 0.8"/>
      </g>
     </g>
     <g id="line2d_51">
      <g>
       <use xlink:href="#mb00737cac1" x="419.3475" y="233.852688" style="fill: #262626; stroke: #262626; stroke-width: 0.8"/>
      </g>
     </g>
     <g id="text_30">
      <!-- 0 -->
      <g style="fill: #262626" transform="translate(415.176797 363.904031) scale(0.15 -0.15)">
       <use xlink:href="#ArialMT-30"/>
      </g>
     </g>
    </g>
    <g id="xtick_17">
     <g id="line2d_52">
      <g>
       <use xlink:href="#m61039ea77a" x="476.352009" y="349.667312" style="fill: #262626; stroke: #262626; stroke-width: 0.8"/>
      </g>
     </g>
     <g id="line2d_53">
      <g>
       <use xlink:href="#mb00737cac1" x="476.352009" y="233.852688" style="fill: #262626; stroke: #262626; stroke-width: 0.8"/>
      </g>
     </g>
     <g id="text_31">
      <!-- 100 -->
      <g style="fill: #262626" transform="translate(463.8399 363.904031) scale(0.15 -0.15)">
       <use xlink:href="#ArialMT-31"/>
       <use xlink:href="#ArialMT-30" transform="translate(55.615234 0)"/>
       <use xlink:href="#ArialMT-30" transform="translate(111.230469 0)"/>
      </g>
     </g>
    </g>
    <g id="xtick_18">
     <g id="line2d_54">
      <g>
       <use xlink:href="#m61039ea77a" x="533.356518" y="349.667312" style="fill: #262626; stroke: #262626; stroke-width: 0.8"/>
      </g>
     </g>
     <g id="line2d_55">
      <g>
       <use xlink:href="#mb00737cac1" x="533.356518" y="233.852688" style="fill: #262626; stroke: #262626; stroke-width: 0.8"/>
      </g>
     </g>
     <g id="text_32">
      <!-- 200 -->
      <g style="fill: #262626" transform="translate(520.844409 363.904031) scale(0.15 -0.15)">
       <use xlink:href="#ArialMT-32"/>
       <use xlink:href="#ArialMT-30" transform="translate(55.615234 0)"/>
       <use xlink:href="#ArialMT-30" transform="translate(111.230469 0)"/>
      </g>
     </g>
    </g>
    <g id="xtick_19">
     <g id="line2d_56">
      <g>
       <use xlink:href="#m61039ea77a" x="590.361027" y="349.667312" style="fill: #262626; stroke: #262626; stroke-width: 0.8"/>
      </g>
     </g>
     <g id="line2d_57">
      <g>
       <use xlink:href="#mb00737cac1" x="590.361027" y="233.852688" style="fill: #262626; stroke: #262626; stroke-width: 0.8"/>
      </g>
     </g>
     <g id="text_33">
      <!-- 300 -->
      <g style="fill: #262626" transform="translate(577.848918 363.904031) scale(0.15 -0.15)">
       <use xlink:href="#ArialMT-33"/>
       <use xlink:href="#ArialMT-30" transform="translate(55.615234 0)"/>
       <use xlink:href="#ArialMT-30" transform="translate(111.230469 0)"/>
      </g>
     </g>
    </g>
    <g id="xtick_20">
     <g id="line2d_58">
      <g>
       <use xlink:href="#m61039ea77a" x="647.365536" y="349.667312" style="fill: #262626; stroke: #262626; stroke-width: 0.8"/>
      </g>
     </g>
     <g id="line2d_59">
      <g>
       <use xlink:href="#mb00737cac1" x="647.365536" y="233.852688" style="fill: #262626; stroke: #262626; stroke-width: 0.8"/>
      </g>
     </g>
     <g id="text_34">
      <!-- 400 -->
      <g style="fill: #262626" transform="translate(634.853427 363.904031) scale(0.15 -0.15)">
       <use xlink:href="#ArialMT-34"/>
       <use xlink:href="#ArialMT-30" transform="translate(55.615234 0)"/>
       <use xlink:href="#ArialMT-30" transform="translate(111.230469 0)"/>
      </g>
     </g>
    </g>
   </g>
   <g id="matplotlib.axis_8">
    <g id="ytick_9">
     <g id="line2d_60">
      <g>
       <use xlink:href="#m3a0c62dc26" x="419.3475" y="344.659955" style="fill: #262626; stroke: #262626; stroke-width: 0.8"/>
      </g>
     </g>
     <g id="line2d_61">
      <g>
       <use xlink:href="#m6e0c845c95" x="703.8" y="344.659955" style="fill: #262626; stroke: #262626; stroke-width: 0.8"/>
      </g>
     </g>
     <g id="text_35">
      <!-- $\mathdefault{0.0}$ -->
      <g style="fill: #262626" transform="translate(394.8475 350.028314) scale(0.15 -0.15)">
       <use xlink:href="#ArialMT-30" transform="translate(0 0.125)"/>
       <use xlink:href="#ArialMT-2e" transform="translate(55.615234 0.125)"/>
       <use xlink:href="#ArialMT-30" transform="translate(83.398438 0.125)"/>
      </g>
     </g>
    </g>
    <g id="ytick_10">
     <g id="line2d_62">
      <g>
       <use xlink:href="#m3a0c62dc26" x="419.3475" y="305.006255" style="fill: #262626; stroke: #262626; stroke-width: 0.8"/>
      </g>
     </g>
     <g id="line2d_63">
      <g>
       <use xlink:href="#m6e0c845c95" x="703.8" y="305.006255" style="fill: #262626; stroke: #262626; stroke-width: 0.8"/>
      </g>
     </g>
     <g id="text_36">
      <!-- $\mathdefault{0.5}$ -->
      <g style="fill: #262626" transform="translate(394.8475 310.374614) scale(0.15 -0.15)">
       <use xlink:href="#ArialMT-30" transform="translate(0 0.125)"/>
       <use xlink:href="#ArialMT-2e" transform="translate(55.615234 0.125)"/>
       <use xlink:href="#ArialMT-35" transform="translate(83.398438 0.125)"/>
      </g>
     </g>
    </g>
    <g id="ytick_11">
     <g id="line2d_64">
      <g>
       <use xlink:href="#m3a0c62dc26" x="419.3475" y="265.352555" style="fill: #262626; stroke: #262626; stroke-width: 0.8"/>
      </g>
     </g>
     <g id="line2d_65">
      <g>
       <use xlink:href="#m6e0c845c95" x="703.8" y="265.352555" style="fill: #262626; stroke: #262626; stroke-width: 0.8"/>
      </g>
     </g>
     <g id="text_37">
      <!-- $\mathdefault{1.0}$ -->
      <g style="fill: #262626" transform="translate(394.8475 270.720914) scale(0.15 -0.15)">
       <use xlink:href="#ArialMT-31" transform="translate(0 0.125)"/>
       <use xlink:href="#ArialMT-2e" transform="translate(55.615234 0.125)"/>
       <use xlink:href="#ArialMT-30" transform="translate(83.398438 0.125)"/>
      </g>
     </g>
    </g>
    <g id="text_38">
     <!-- $\hat{z}_{0m}$ (m) -->
     <g style="fill: #262626" transform="translate(387.5475 317.785) rotate(-90) scale(0.15 -0.15)">
      <defs>
       <path id="DejaVuSans-Oblique-7a" d="M 744 3500 
L 3475 3500 
L 3372 2975 
L 738 459 
L 2913 459 
L 2822 0 
L -19 0 
L 84 525 
L 2719 3041 
L 653 3041 
L 744 3500 
z
" transform="scale(0.015625)"/>
       <path id="DejaVuSans-30" d="M 2034 4250 
Q 1547 4250 1301 3770 
Q 1056 3291 1056 2328 
Q 1056 1369 1301 889 
Q 1547 409 2034 409 
Q 2525 409 2770 889 
Q 3016 1369 3016 2328 
Q 3016 3291 2770 3770 
Q 2525 4250 2034 4250 
z
M 2034 4750 
Q 2819 4750 3233 4129 
Q 3647 3509 3647 2328 
Q 3647 1150 3233 529 
Q 2819 -91 2034 -91 
Q 1250 -91 836 529 
Q 422 1150 422 2328 
Q 422 3509 836 4129 
Q 1250 4750 2034 4750 
z
" transform="scale(0.015625)"/>
       <path id="DejaVuSans-Oblique-6d" d="M 5747 2113 
L 5338 0 
L 4763 0 
L 5166 2094 
Q 5191 2228 5203 2325 
Q 5216 2422 5216 2491 
Q 5216 2772 5059 2928 
Q 4903 3084 4622 3084 
Q 4203 3084 3875 2770 
Q 3547 2456 3450 1953 
L 3066 0 
L 2491 0 
L 2900 2094 
Q 2925 2209 2937 2307 
Q 2950 2406 2950 2484 
Q 2950 2769 2794 2926 
Q 2638 3084 2363 3084 
Q 1938 3084 1609 2770 
Q 1281 2456 1184 1953 
L 800 0 
L 225 0 
L 909 3500 
L 1484 3500 
L 1375 2956 
Q 1609 3263 1923 3423 
Q 2238 3584 2597 3584 
Q 2978 3584 3223 3384 
Q 3469 3184 3519 2828 
Q 3781 3197 4126 3390 
Q 4472 3584 4856 3584 
Q 5306 3584 5551 3325 
Q 5797 3066 5797 2591 
Q 5797 2488 5784 2364 
Q 5772 2241 5747 2113 
z
" transform="scale(0.015625)"/>
       <path id="ArialMT-6d" d="M 422 0 
L 422 3319 
L 925 3319 
L 925 2853 
Q 1081 3097 1340 3245 
Q 1600 3394 1931 3394 
Q 2300 3394 2536 3241 
Q 2772 3088 2869 2813 
Q 3263 3394 3894 3394 
Q 4388 3394 4653 3120 
Q 4919 2847 4919 2278 
L 4919 0 
L 4359 0 
L 4359 2091 
Q 4359 2428 4304 2576 
Q 4250 2725 4106 2815 
Q 3963 2906 3769 2906 
Q 3419 2906 3187 2673 
Q 2956 2441 2956 1928 
L 2956 0 
L 2394 0 
L 2394 2156 
Q 2394 2531 2256 2718 
Q 2119 2906 1806 2906 
Q 1569 2906 1367 2781 
Q 1166 2656 1075 2415 
Q 984 2175 984 1722 
L 984 0 
L 422 0 
z
" transform="scale(0.015625)"/>
      </defs>
      <use xlink:href="#DejaVuSans-302" transform="translate(57.700684 12.015625)"/>
      <use xlink:href="#DejaVuSans-Oblique-7a" transform="translate(0 0.828125)"/>
      <use xlink:href="#DejaVuSans-30" transform="translate(53.447266 -15.578125) scale(0.7)"/>
      <use xlink:href="#DejaVuSans-Oblique-6d" transform="translate(97.983398 -15.578125) scale(0.7)"/>
      <use xlink:href="#ArialMT-20" transform="translate(168.90625 0.828125)"/>
      <use xlink:href="#ArialMT-28" transform="translate(196.689453 0.828125)"/>
      <use xlink:href="#ArialMT-6d" transform="translate(229.990234 0.828125)"/>
      <use xlink:href="#ArialMT-29" transform="translate(313.291016 0.828125)"/>
     </g>
    </g>
    <g id="text_39">
     <!-- $\times\mathdefault{10^{−1}}\mathdefault{}$ -->
     <g style="fill: #262626" transform="translate(376.679625 230.852688) scale(0.15 -0.15)">
      <defs>
       <path id="DejaVuSans-d7" d="M 4488 3438 
L 3059 2003 
L 4488 575 
L 4116 197 
L 2681 1631 
L 1247 197 
L 878 575 
L 2303 2003 
L 878 3438 
L 1247 3816 
L 2681 2381 
L 4116 3816 
L 4488 3438 
z
" transform="scale(0.015625)"/>
       <path id="ArialMT-2212" d="M 3381 1997 
L 356 1997 
L 356 2522 
L 3381 2522 
L 3381 1997 
z
" transform="scale(0.015625)"/>
      </defs>
      <use xlink:href="#DejaVuSans-d7" transform="translate(0 0.99375)"/>
      <use xlink:href="#ArialMT-31" transform="translate(83.789062 0.99375)"/>
      <use xlink:href="#ArialMT-30" transform="translate(139.404297 0.99375)"/>
      <use xlink:href="#ArialMT-2212" transform="translate(196.761875 70.6875) scale(0.7)"/>
      <use xlink:href="#ArialMT-31" transform="translate(237.640781 70.6875) scale(0.7)"/>
     </g>
    </g>
   </g>
   <g id="line2d_66">
    <path d="M 419.3475 334.943536 
L 419.917545 329.510366 
L 420.48759 325.393003 
L 421.62768 319.514575 
L 422.767771 315.636654 
L 423.907861 313.107912 
L 424.477906 312.235537 
L 425.047951 311.573251 
L 425.617996 311.085433 
L 426.188041 310.747676 
L 426.758086 310.543679 
L 427.328131 310.464166 
L 427.898176 310.503968 
L 428.468221 310.662686 
L 429.608312 311.339257 
L 430.748402 312.495583 
L 431.888492 314.135605 
L 433.028582 316.252913 
L 434.168672 318.830701 
L 435.308763 321.850225 
L 436.448853 325.328653 
L 437.588943 329.376823 
L 438.729033 334.272558 
L 439.869123 340.500578 
L 440.439168 343.795368 
L 441.579259 336.190357 
L 442.719349 331.017068 
L 443.859439 327.584854 
L 444.999529 325.391343 
L 445.569574 324.646377 
L 446.139619 324.089597 
L 446.709664 323.693083 
L 447.849755 323.293008 
L 448.989845 323.310185 
L 450.129935 323.656185 
L 451.270025 324.268666 
L 452.410115 325.099594 
L 454.120251 326.708036 
L 455.260341 328.045457 
L 456.400431 329.675545 
L 457.540521 331.703003 
L 458.680611 334.246083 
L 459.820701 337.434686 
L 461.530837 343.425674 
L 462.670927 341.681001 
L 463.240972 341.687126 
L 463.811017 342.645998 
L 464.381062 344.403011 
L 465.521152 332.437167 
L 466.661242 323.079663 
L 467.801333 315.566575 
L 468.941423 309.482799 
L 470.081513 304.53722 
L 471.221603 300.511637 
L 472.361693 297.235575 
L 473.501784 294.571893 
L 474.641874 292.409285 
L 475.781964 290.657283 
L 476.922054 289.242324 
L 478.062144 288.104466 
L 479.202234 287.193958 
L 480.91237 286.16555 
L 482.622505 285.445041 
L 484.33264 284.949311 
L 486.612821 284.534952 
L 489.463046 284.282484 
L 492.883317 284.221251 
L 498.013722 284.39506 
L 505.424309 284.90337 
L 517.395256 285.987345 
L 531.646383 287.504197 
L 545.327465 289.182319 
L 557.868457 290.938575 
L 569.269359 292.750043 
L 579.53017 294.591392 
L 589.220937 296.555054 
L 597.771613 298.507836 
L 605.752244 300.558447 
L 612.592786 302.530917 
L 618.863282 304.551777 
L 624.563732 306.604235 
L 629.694138 308.666685 
L 634.254499 310.71035 
L 638.81486 312.998421 
L 642.805175 315.252439 
L 646.225446 317.421626 
L 649.645716 319.871172 
L 652.495942 322.189174 
L 654.776122 324.280129 
L 657.056303 326.647326 
L 659.336483 329.388397 
L 661.046618 331.788881 
L 662.756754 334.621005 
L 663.896844 336.855947 
L 665.036934 339.495876 
L 666.747069 343.880909 
L 667.317114 341.410355 
L 667.887159 339.877207 
L 668.457204 339.182543 
L 669.027249 339.165715 
L 669.597295 339.691476 
L 670.16734 340.641839 
L 671.30743 343.379547 
L 671.877475 343.725204 
L 672.44752 342.08113 
L 673.017565 341.429568 
L 673.58761 341.737175 
L 674.157655 342.904821 
L 674.7277 344.398652 
L 675.867791 323.942345 
L 677.007881 307.632587 
L 678.147971 294.466183 
L 679.288061 283.803329 
L 680.428151 275.159344 
L 681.568241 268.151989 
L 682.708332 262.47427 
L 683.848422 257.877276 
L 684.988512 254.157258 
L 686.128602 251.149588 
L 687.268692 248.719309 
L 688.408783 246.757041 
L 689.548873 245.17577 
L 690.688963 243.900957 
L 691.829053 242.874091 
L 693.539188 241.695521 
L 695.249324 240.842388 
L 696.959459 240.226425 
L 699.239639 239.667907 
L 702.089865 239.258955 
L 703.8 239.116989 
L 703.8 239.116989 
" clip-path="url(#pe670eb7479)" style="fill: none; stroke: #000000; stroke-width: 2; stroke-linecap: round"/>
   </g>
   <g id="patch_18">
    <path d="M 419.3475 349.667312 
L 419.3475 233.852688 
" style="fill: none; stroke: #262626; stroke-width: 1.5; stroke-linejoin: miter; stroke-linecap: square"/>
   </g>
   <g id="patch_19">
    <path d="M 703.8 349.667312 
L 703.8 233.852688 
" style="fill: none; stroke: #262626; stroke-width: 1.5; stroke-linejoin: miter; stroke-linecap: square"/>
   </g>
   <g id="patch_20">
    <path d="M 419.3475 349.667312 
L 703.8 349.667312 
" style="fill: none; stroke: #262626; stroke-width: 1.5; stroke-linejoin: miter; stroke-linecap: square"/>
   </g>
   <g id="patch_21">
    <path d="M 419.3475 233.852688 
L 703.8 233.852688 
" style="fill: none; stroke: #262626; stroke-width: 1.5; stroke-linejoin: miter; stroke-linecap: square"/>
   </g>
   <g id="text_40">
    <!-- (d) -->
    <g style="fill: #262626" transform="translate(419.3475 223.852688) scale(0.2 -0.2)">
     <defs>
      <path id="ArialMT-64" d="M 2575 0 
L 2575 419 
Q 2259 -75 1647 -75 
Q 1250 -75 917 144 
Q 584 363 401 755 
Q 219 1147 219 1656 
Q 219 2153 384 2558 
Q 550 2963 881 3178 
Q 1213 3394 1622 3394 
Q 1922 3394 2156 3267 
Q 2391 3141 2538 2938 
L 2538 4581 
L 3097 4581 
L 3097 0 
L 2575 0 
z
M 797 1656 
Q 797 1019 1065 703 
Q 1334 388 1700 388 
Q 2069 388 2326 689 
Q 2584 991 2584 1609 
Q 2584 2291 2321 2609 
Q 2059 2928 1675 2928 
Q 1300 2928 1048 2622 
Q 797 2316 797 1656 
z
" transform="scale(0.015625)"/>
     </defs>
     <use xlink:href="#ArialMT-28"/>
     <use xlink:href="#ArialMT-64" transform="translate(33.300781 0)"/>
     <use xlink:href="#ArialMT-29" transform="translate(88.916016 0)"/>
    </g>
   </g>
  </g>
  <g id="axes_5">
   <g id="patch_22">
    <path d="M 67.38 542.62 
L 351.8325 542.62 
L 351.8325 426.805375 
L 67.38 426.805375 
z
" style="fill: #ffffff"/>
   </g>
   <g id="matplotlib.axis_9">
    <g id="xtick_21">
     <g id="line2d_67">
      <g>
       <use xlink:href="#m61039ea77a" x="67.38" y="542.62" style="fill: #262626; stroke: #262626; stroke-width: 0.8"/>
      </g>
     </g>
     <g id="line2d_68">
      <g>
       <use xlink:href="#mb00737cac1" x="67.38" y="426.805375" style="fill: #262626; stroke: #262626; stroke-width: 0.8"/>
      </g>
     </g>
     <g id="text_41">
      <!-- 0 -->
      <g style="fill: #262626" transform="translate(63.209297 556.856719) scale(0.15 -0.15)">
       <use xlink:href="#ArialMT-30"/>
      </g>
     </g>
    </g>
    <g id="xtick_22">
     <g id="line2d_69">
      <g>
       <use xlink:href="#m61039ea77a" x="124.384509" y="542.62" style="fill: #262626; stroke: #262626; stroke-width: 0.8"/>
      </g>
     </g>
     <g id="line2d_70">
      <g>
       <use xlink:href="#mb00737cac1" x="124.384509" y="426.805375" style="fill: #262626; stroke: #262626; stroke-width: 0.8"/>
      </g>
     </g>
     <g id="text_42">
      <!-- 100 -->
      <g style="fill: #262626" transform="translate(111.8724 556.856719) scale(0.15 -0.15)">
       <use xlink:href="#ArialMT-31"/>
       <use xlink:href="#ArialMT-30" transform="translate(55.615234 0)"/>
       <use xlink:href="#ArialMT-30" transform="translate(111.230469 0)"/>
      </g>
     </g>
    </g>
    <g id="xtick_23">
     <g id="line2d_71">
      <g>
       <use xlink:href="#m61039ea77a" x="181.389018" y="542.62" style="fill: #262626; stroke: #262626; stroke-width: 0.8"/>
      </g>
     </g>
     <g id="line2d_72">
      <g>
       <use xlink:href="#mb00737cac1" x="181.389018" y="426.805375" style="fill: #262626; stroke: #262626; stroke-width: 0.8"/>
      </g>
     </g>
     <g id="text_43">
      <!-- 200 -->
      <g style="fill: #262626" transform="translate(168.876909 556.856719) scale(0.15 -0.15)">
       <use xlink:href="#ArialMT-32"/>
       <use xlink:href="#ArialMT-30" transform="translate(55.615234 0)"/>
       <use xlink:href="#ArialMT-30" transform="translate(111.230469 0)"/>
      </g>
     </g>
    </g>
    <g id="xtick_24">
     <g id="line2d_73">
      <g>
       <use xlink:href="#m61039ea77a" x="238.393527" y="542.62" style="fill: #262626; stroke: #262626; stroke-width: 0.8"/>
      </g>
     </g>
     <g id="line2d_74">
      <g>
       <use xlink:href="#mb00737cac1" x="238.393527" y="426.805375" style="fill: #262626; stroke: #262626; stroke-width: 0.8"/>
      </g>
     </g>
     <g id="text_44">
      <!-- 300 -->
      <g style="fill: #262626" transform="translate(225.881418 556.856719) scale(0.15 -0.15)">
       <use xlink:href="#ArialMT-33"/>
       <use xlink:href="#ArialMT-30" transform="translate(55.615234 0)"/>
       <use xlink:href="#ArialMT-30" transform="translate(111.230469 0)"/>
      </g>
     </g>
    </g>
    <g id="xtick_25">
     <g id="line2d_75">
      <g>
       <use xlink:href="#m61039ea77a" x="295.398036" y="542.62" style="fill: #262626; stroke: #262626; stroke-width: 0.8"/>
      </g>
     </g>
     <g id="line2d_76">
      <g>
       <use xlink:href="#mb00737cac1" x="295.398036" y="426.805375" style="fill: #262626; stroke: #262626; stroke-width: 0.8"/>
      </g>
     </g>
     <g id="text_45">
      <!-- 400 -->
      <g style="fill: #262626" transform="translate(282.885927 556.856719) scale(0.15 -0.15)">
       <use xlink:href="#ArialMT-34"/>
       <use xlink:href="#ArialMT-30" transform="translate(55.615234 0)"/>
       <use xlink:href="#ArialMT-30" transform="translate(111.230469 0)"/>
      </g>
     </g>
    </g>
   </g>
   <g id="matplotlib.axis_10">
    <g id="ytick_12">
     <g id="line2d_77">
      <g>
       <use xlink:href="#m3a0c62dc26" x="67.38" y="508.998239" style="fill: #262626; stroke: #262626; stroke-width: 0.8"/>
      </g>
     </g>
     <g id="line2d_78">
      <g>
       <use xlink:href="#m6e0c845c95" x="351.8325" y="508.998239" style="fill: #262626; stroke: #262626; stroke-width: 0.8"/>
      </g>
     </g>
     <g id="text_46">
      <!-- 1 -->
      <g style="fill: #262626" transform="translate(55.538594 514.366599) scale(0.15 -0.15)">
       <use xlink:href="#ArialMT-31"/>
      </g>
     </g>
    </g>
    <g id="ytick_13">
     <g id="line2d_79">
      <g>
       <use xlink:href="#m3a0c62dc26" x="67.38" y="452.959642" style="fill: #262626; stroke: #262626; stroke-width: 0.8"/>
      </g>
     </g>
     <g id="line2d_80">
      <g>
       <use xlink:href="#m6e0c845c95" x="351.8325" y="452.959642" style="fill: #262626; stroke: #262626; stroke-width: 0.8"/>
      </g>
     </g>
     <g id="text_47">
      <!-- 2 -->
      <g style="fill: #262626" transform="translate(55.538594 458.328002) scale(0.15 -0.15)">
       <use xlink:href="#ArialMT-32"/>
      </g>
     </g>
    </g>
    <g id="text_48">
     <!-- $\hat{k}$ (W m$^{-1}$ K$^{-1}$) -->
     <g style="fill: #262626" transform="translate(48.238594 534.737687) rotate(-90) scale(0.15 -0.15)">
      <defs>
       <path id="DejaVuSans-Oblique-6b" d="M 1172 4863 
L 1747 4863 
L 1197 2028 
L 3169 3500 
L 3916 3500 
L 1716 1825 
L 3322 0 
L 2625 0 
L 1131 1709 
L 800 0 
L 225 0 
L 1172 4863 
z
" transform="scale(0.015625)"/>
       <path id="ArialMT-57" d="M 1294 0 
L 78 4581 
L 700 4581 
L 1397 1578 
Q 1509 1106 1591 641 
Q 1766 1375 1797 1488 
L 2669 4581 
L 3400 4581 
L 4056 2263 
Q 4303 1400 4413 641 
Q 4500 1075 4641 1638 
L 5359 4581 
L 5969 4581 
L 4713 0 
L 4128 0 
L 3163 3491 
Q 3041 3928 3019 4028 
Q 2947 3713 2884 3491 
L 1913 0 
L 1294 0 
z
" transform="scale(0.015625)"/>
       <path id="DejaVuSans-2212" d="M 678 2272 
L 4684 2272 
L 4684 1741 
L 678 1741 
L 678 2272 
z
" transform="scale(0.015625)"/>
       <path id="DejaVuSans-31" d="M 794 531 
L 1825 531 
L 1825 4091 
L 703 3866 
L 703 4441 
L 1819 4666 
L 2450 4666 
L 2450 531 
L 3481 531 
L 3481 0 
L 794 0 
L 794 531 
z
" transform="scale(0.015625)"/>
       <path id="ArialMT-4b" d="M 469 0 
L 469 4581 
L 1075 4581 
L 1075 2309 
L 3350 4581 
L 4172 4581 
L 2250 2725 
L 4256 0 
L 3456 0 
L 1825 2319 
L 1075 1588 
L 1075 0 
L 469 0 
z
" transform="scale(0.015625)"/>
      </defs>
      <use xlink:href="#DejaVuSans-302" transform="translate(61.055664 33.015625)"/>
      <use xlink:href="#DejaVuSans-Oblique-6b" transform="translate(0 0.53125)"/>
      <use xlink:href="#ArialMT-20" transform="translate(57.910156 0.53125)"/>
      <use xlink:href="#ArialMT-28" transform="translate(85.693359 0.53125)"/>
      <use xlink:href="#ArialMT-57" transform="translate(118.994141 0.53125)"/>
      <use xlink:href="#ArialMT-20" transform="translate(213.378906 0.53125)"/>
      <use xlink:href="#ArialMT-6d" transform="translate(241.162109 0.53125)"/>
      <use xlink:href="#DejaVuSans-2212" transform="translate(325.419922 38.8125) scale(0.7)"/>
      <use xlink:href="#DejaVuSans-31" transform="translate(384.072266 38.8125) scale(0.7)"/>
      <use xlink:href="#ArialMT-20" transform="translate(431.342773 0.53125)"/>
      <use xlink:href="#ArialMT-4b" transform="translate(459.125977 0.53125)"/>
      <use xlink:href="#DejaVuSans-2212" transform="translate(526.782227 38.8125) scale(0.7)"/>
      <use xlink:href="#DejaVuSans-31" transform="translate(585.43457 38.8125) scale(0.7)"/>
      <use xlink:href="#ArialMT-29" transform="translate(632.705078 0.53125)"/>
     </g>
    </g>
   </g>
   <g id="line2d_81">
    <path d="M 67.38 432.069676 
L 71.370316 470.460534 
L 75.930676 512.028279 
L 77.070767 519.78789 
L 77.640812 522.719215 
L 78.210857 524.933658 
L 78.780902 526.423928 
L 79.350947 527.214721 
L 79.920992 527.387794 
L 80.491037 527.05121 
L 81.061082 526.327764 
L 82.201172 524.243631 
L 83.341263 522.128544 
L 83.911308 521.298665 
L 84.481353 520.698181 
L 85.051398 520.360784 
L 85.621443 520.293724 
L 86.191488 520.491121 
L 86.761533 520.951111 
L 87.331578 521.690823 
L 87.901623 522.773473 
L 88.471668 524.380684 
L 89.611759 529.586826 
L 90.181804 531.692667 
L 90.751849 533.125552 
L 91.321894 533.815703 
L 91.891939 533.805118 
L 92.461984 533.199841 
L 93.032029 532.142904 
L 94.172119 529.301439 
L 95.312209 526.386311 
L 96.4523 524.056615 
L 97.59239 522.507853 
L 98.162435 522.011001 
L 98.73248 521.69924 
L 99.302525 521.586981 
L 99.87257 521.696117 
L 100.442615 522.044192 
L 101.01266 522.636399 
L 101.582705 523.459485 
L 102.722796 525.697048 
L 103.862886 528.077701 
L 104.432931 529.051047 
L 105.002976 529.754853 
L 105.573021 530.124942 
L 106.143066 530.171875 
L 106.713111 529.943328 
L 107.853201 529.177082 
L 108.423246 528.956474 
L 108.993292 529.079172 
L 109.563337 529.793542 
L 111.273472 534.984876 
L 111.843517 535.803623 
L 112.413562 536.06795 
L 112.983607 537.355699 
L 113.553652 537.252478 
L 114.123697 535.770268 
L 114.693742 533.216064 
L 117.543968 517.134684 
L 118.114013 515.241313 
L 118.684058 514.026323 
L 119.254103 513.443489 
L 119.824148 513.377708 
L 120.394193 513.70983 
L 120.964238 514.337256 
L 122.104329 516.190697 
L 123.244419 518.570321 
L 124.954554 522.40863 
L 125.524599 523.491858 
L 126.094644 524.318387 
L 126.664689 524.801809 
L 127.234734 524.887243 
L 127.80478 524.561564 
L 128.374825 523.857014 
L 129.514915 521.623382 
L 131.22505 517.957492 
L 131.795095 517.097 
L 132.36514 516.508514 
L 132.935185 516.189555 
L 133.50523 516.109932 
L 134.075276 516.220124 
L 135.215366 516.784254 
L 138.635636 518.847391 
L 139.775726 519.1994 
L 140.915817 519.215046 
L 142.055907 518.891671 
L 145.476177 517.52288 
L 146.616268 517.530964 
L 147.756358 517.847845 
L 150.606583 518.938043 
L 151.746673 519.103231 
L 153.456809 519.090094 
L 155.736989 518.908055 
L 158.587214 518.58582 
L 159.727305 518.654473 
L 163.71762 519.159359 
L 169.418071 519.022876 
L 171.698252 519.030803 
L 175.118522 519.123682 
L 195.640145 518.27458 
L 223.00231 516.802715 
L 243.523933 516.488887 
L 281.146909 516.653951 
L 289.697585 516.817883 
L 300.528442 517.305242 
L 305.088803 517.767808 
L 307.939028 518.301275 
L 309.649163 518.813852 
L 310.789254 519.292204 
L 311.929344 519.972153 
L 313.069434 521.036329 
L 313.639479 521.833241 
L 314.209524 522.961383 
L 314.779569 524.700314 
L 315.349614 527.580214 
L 315.919659 528.544756 
L 316.489704 527.228315 
L 318.19984 517.931676 
L 318.769885 516.52612 
L 319.33993 517.004598 
L 319.909975 519.506121 
L 320.48002 523.087107 
L 321.050065 525.233277 
L 321.62011 525.465358 
L 322.190155 524.439882 
L 322.7602 523.744097 
L 323.330245 525.41064 
L 323.900291 525.389931 
L 324.470336 523.526886 
L 325.040381 520.196001 
L 326.750516 507.446581 
L 327.320561 504.393661 
L 327.890606 502.665742 
L 328.460651 502.337338 
L 329.030696 503.273451 
L 329.600741 505.206515 
L 330.740832 510.681316 
L 331.880922 516.132014 
L 332.450967 518.219247 
L 333.021012 519.675985 
L 333.591057 520.416124 
L 334.161102 520.414461 
L 334.731147 519.70328 
L 335.301192 518.392321 
L 337.581373 511.473779 
L 338.151418 510.504114 
L 338.721463 510.135561 
L 339.291508 510.349618 
L 339.861553 511.035417 
L 342.711779 515.842242 
L 343.281824 516.270561 
L 343.851869 516.442662 
L 344.421914 516.378191 
L 344.991959 516.10705 
L 346.132049 515.130003 
L 347.272139 514.042349 
L 347.842184 513.665229 
L 348.412229 513.488117 
L 348.982275 513.537117 
L 349.55232 513.794934 
L 351.8325 515.51664 
L 351.8325 515.51664 
" clip-path="url(#pcb9fdb87dc)" style="fill: none; stroke: #000000; stroke-width: 2; stroke-linecap: round"/>
   </g>
   <g id="patch_23">
    <path d="M 67.38 542.62 
L 67.38 426.805375 
" style="fill: none; stroke: #262626; stroke-width: 1.5; stroke-linejoin: miter; stroke-linecap: square"/>
   </g>
   <g id="patch_24">
    <path d="M 351.8325 542.62 
L 351.8325 426.805375 
" style="fill: none; stroke: #262626; stroke-width: 1.5; stroke-linejoin: miter; stroke-linecap: square"/>
   </g>
   <g id="patch_25">
    <path d="M 67.38 542.62 
L 351.8325 542.62 
" style="fill: none; stroke: #262626; stroke-width: 1.5; stroke-linejoin: miter; stroke-linecap: square"/>
   </g>
   <g id="patch_26">
    <path d="M 67.38 426.805375 
L 351.8325 426.805375 
" style="fill: none; stroke: #262626; stroke-width: 1.5; stroke-linejoin: miter; stroke-linecap: square"/>
   </g>
   <g id="text_49">
    <!-- (e) -->
    <g style="fill: #262626" transform="translate(67.38 416.805375) scale(0.2 -0.2)">
     <use xlink:href="#ArialMT-28"/>
     <use xlink:href="#ArialMT-65" transform="translate(33.300781 0)"/>
     <use xlink:href="#ArialMT-29" transform="translate(88.916016 0)"/>
    </g>
   </g>
  </g>
  <g id="axes_6">
   <g id="patch_27">
    <path d="M 419.3475 542.62 
L 703.8 542.62 
L 703.8 426.805375 
L 419.3475 426.805375 
z
" style="fill: #ffffff"/>
   </g>
   <g id="matplotlib.axis_11">
    <g id="xtick_26">
     <g id="line2d_82">
      <g>
       <use xlink:href="#m61039ea77a" x="419.3475" y="542.62" style="fill: #262626; stroke: #262626; stroke-width: 0.8"/>
      </g>
     </g>
     <g id="line2d_83">
      <g>
       <use xlink:href="#mb00737cac1" x="419.3475" y="426.805375" style="fill: #262626; stroke: #262626; stroke-width: 0.8"/>
      </g>
     </g>
     <g id="text_50">
      <!-- 0 -->
      <g style="fill: #262626" transform="translate(415.176797 556.856719) scale(0.15 -0.15)">
       <use xlink:href="#ArialMT-30"/>
      </g>
     </g>
    </g>
    <g id="xtick_27">
     <g id="line2d_84">
      <g>
       <use xlink:href="#m61039ea77a" x="476.352009" y="542.62" style="fill: #262626; stroke: #262626; stroke-width: 0.8"/>
      </g>
     </g>
     <g id="line2d_85">
      <g>
       <use xlink:href="#mb00737cac1" x="476.352009" y="426.805375" style="fill: #262626; stroke: #262626; stroke-width: 0.8"/>
      </g>
     </g>
     <g id="text_51">
      <!-- 100 -->
      <g style="fill: #262626" transform="translate(463.8399 556.856719) scale(0.15 -0.15)">
       <use xlink:href="#ArialMT-31"/>
       <use xlink:href="#ArialMT-30" transform="translate(55.615234 0)"/>
       <use xlink:href="#ArialMT-30" transform="translate(111.230469 0)"/>
      </g>
     </g>
    </g>
    <g id="xtick_28">
     <g id="line2d_86">
      <g>
       <use xlink:href="#m61039ea77a" x="533.356518" y="542.62" style="fill: #262626; stroke: #262626; stroke-width: 0.8"/>
      </g>
     </g>
     <g id="line2d_87">
      <g>
       <use xlink:href="#mb00737cac1" x="533.356518" y="426.805375" style="fill: #262626; stroke: #262626; stroke-width: 0.8"/>
      </g>
     </g>
     <g id="text_52">
      <!-- 200 -->
      <g style="fill: #262626" transform="translate(520.844409 556.856719) scale(0.15 -0.15)">
       <use xlink:href="#ArialMT-32"/>
       <use xlink:href="#ArialMT-30" transform="translate(55.615234 0)"/>
       <use xlink:href="#ArialMT-30" transform="translate(111.230469 0)"/>
      </g>
     </g>
    </g>
    <g id="xtick_29">
     <g id="line2d_88">
      <g>
       <use xlink:href="#m61039ea77a" x="590.361027" y="542.62" style="fill: #262626; stroke: #262626; stroke-width: 0.8"/>
      </g>
     </g>
     <g id="line2d_89">
      <g>
       <use xlink:href="#mb00737cac1" x="590.361027" y="426.805375" style="fill: #262626; stroke: #262626; stroke-width: 0.8"/>
      </g>
     </g>
     <g id="text_53">
      <!-- 300 -->
      <g style="fill: #262626" transform="translate(577.848918 556.856719) scale(0.15 -0.15)">
       <use xlink:href="#ArialMT-33"/>
       <use xlink:href="#ArialMT-30" transform="translate(55.615234 0)"/>
       <use xlink:href="#ArialMT-30" transform="translate(111.230469 0)"/>
      </g>
     </g>
    </g>
    <g id="xtick_30">
     <g id="line2d_90">
      <g>
       <use xlink:href="#m61039ea77a" x="647.365536" y="542.62" style="fill: #262626; stroke: #262626; stroke-width: 0.8"/>
      </g>
     </g>
     <g id="line2d_91">
      <g>
       <use xlink:href="#mb00737cac1" x="647.365536" y="426.805375" style="fill: #262626; stroke: #262626; stroke-width: 0.8"/>
      </g>
     </g>
     <g id="text_54">
      <!-- 400 -->
      <g style="fill: #262626" transform="translate(634.853427 556.856719) scale(0.15 -0.15)">
       <use xlink:href="#ArialMT-34"/>
       <use xlink:href="#ArialMT-30" transform="translate(55.615234 0)"/>
       <use xlink:href="#ArialMT-30" transform="translate(111.230469 0)"/>
      </g>
     </g>
    </g>
   </g>
   <g id="matplotlib.axis_12">
    <g id="ytick_14">
     <g id="line2d_92">
      <g>
       <use xlink:href="#m3a0c62dc26" x="419.3475" y="535.663516" style="fill: #262626; stroke: #262626; stroke-width: 0.8"/>
      </g>
     </g>
     <g id="line2d_93">
      <g>
       <use xlink:href="#m6e0c845c95" x="703.8" y="535.663516" style="fill: #262626; stroke: #262626; stroke-width: 0.8"/>
      </g>
     </g>
     <g id="text_55">
      <!-- $\mathdefault{1.0}$ -->
      <g style="fill: #262626" transform="translate(394.8475 541.031876) scale(0.15 -0.15)">
       <use xlink:href="#ArialMT-31" transform="translate(0 0.125)"/>
       <use xlink:href="#ArialMT-2e" transform="translate(55.615234 0.125)"/>
       <use xlink:href="#ArialMT-30" transform="translate(83.398438 0.125)"/>
      </g>
     </g>
    </g>
    <g id="ytick_15">
     <g id="line2d_94">
      <g>
       <use xlink:href="#m3a0c62dc26" x="419.3475" y="482.158095" style="fill: #262626; stroke: #262626; stroke-width: 0.8"/>
      </g>
     </g>
     <g id="line2d_95">
      <g>
       <use xlink:href="#m6e0c845c95" x="703.8" y="482.158095" style="fill: #262626; stroke: #262626; stroke-width: 0.8"/>
      </g>
     </g>
     <g id="text_56">
      <!-- $\mathdefault{1.5}$ -->
      <g style="fill: #262626" transform="translate(394.8475 487.526454) scale(0.15 -0.15)">
       <use xlink:href="#ArialMT-31" transform="translate(0 0.125)"/>
       <use xlink:href="#ArialMT-2e" transform="translate(55.615234 0.125)"/>
       <use xlink:href="#ArialMT-35" transform="translate(83.398438 0.125)"/>
      </g>
     </g>
    </g>
    <g id="ytick_16">
     <g id="line2d_96">
      <g>
       <use xlink:href="#m3a0c62dc26" x="419.3475" y="428.652673" style="fill: #262626; stroke: #262626; stroke-width: 0.8"/>
      </g>
     </g>
     <g id="line2d_97">
      <g>
       <use xlink:href="#m6e0c845c95" x="703.8" y="428.652673" style="fill: #262626; stroke: #262626; stroke-width: 0.8"/>
      </g>
     </g>
     <g id="text_57">
      <!-- $\mathdefault{2.0}$ -->
      <g style="fill: #262626" transform="translate(394.8475 434.021032) scale(0.15 -0.15)">
       <use xlink:href="#ArialMT-32" transform="translate(0 0.125)"/>
       <use xlink:href="#ArialMT-2e" transform="translate(55.615234 0.125)"/>
       <use xlink:href="#ArialMT-30" transform="translate(83.398438 0.125)"/>
      </g>
     </g>
    </g>
    <g id="text_58">
     <!-- $\hat{C}$ (J m$^{-3}$ K$^{-1}$) -->
     <g style="fill: #262626" transform="translate(387.5475 532.262687) rotate(-90) scale(0.15 -0.15)">
      <defs>
       <path id="DejaVuSans-Oblique-43" d="M 4447 4306 
L 4319 3641 
Q 4019 3944 3683 4091 
Q 3347 4238 2956 4238 
Q 2422 4238 2017 3981 
Q 1613 3725 1319 3200 
Q 1131 2863 1032 2486 
Q 934 2109 934 1728 
Q 934 1091 1264 756 
Q 1594 422 2222 422 
Q 2656 422 3056 561 
Q 3456 700 3834 978 
L 3688 231 
Q 3316 72 2936 -9 
Q 2556 -91 2175 -91 
Q 1278 -91 773 396 
Q 269 884 269 1753 
Q 269 2309 461 2846 
Q 653 3384 1013 3828 
Q 1394 4300 1883 4525 
Q 2372 4750 3022 4750 
Q 3422 4750 3780 4639 
Q 4138 4528 4447 4306 
z
" transform="scale(0.015625)"/>
       <path id="ArialMT-4a" d="M 184 1300 
L 731 1375 
Q 753 850 928 656 
Q 1103 463 1413 463 
Q 1641 463 1806 567 
Q 1972 672 2034 851 
Q 2097 1031 2097 1425 
L 2097 4581 
L 2703 4581 
L 2703 1459 
Q 2703 884 2564 568 
Q 2425 253 2123 87 
Q 1822 -78 1416 -78 
Q 813 -78 492 269 
Q 172 616 184 1300 
z
" transform="scale(0.015625)"/>
       <path id="DejaVuSans-33" d="M 2597 2516 
Q 3050 2419 3304 2112 
Q 3559 1806 3559 1356 
Q 3559 666 3084 287 
Q 2609 -91 1734 -91 
Q 1441 -91 1130 -33 
Q 819 25 488 141 
L 488 750 
Q 750 597 1062 519 
Q 1375 441 1716 441 
Q 2309 441 2620 675 
Q 2931 909 2931 1356 
Q 2931 1769 2642 2001 
Q 2353 2234 1838 2234 
L 1294 2234 
L 1294 2753 
L 1863 2753 
Q 2328 2753 2575 2939 
Q 2822 3125 2822 3475 
Q 2822 3834 2567 4026 
Q 2313 4219 1838 4219 
Q 1578 4219 1281 4162 
Q 984 4106 628 3988 
L 628 4550 
Q 988 4650 1302 4700 
Q 1616 4750 1894 4750 
Q 2613 4750 3031 4423 
Q 3450 4097 3450 3541 
Q 3450 3153 3228 2886 
Q 3006 2619 2597 2516 
z
" transform="scale(0.015625)"/>
      </defs>
      <use xlink:href="#DejaVuSans-302" transform="translate(69.03418 31.015625)"/>
      <use xlink:href="#DejaVuSans-Oblique-43" transform="translate(0 0.296875)"/>
      <use xlink:href="#ArialMT-20" transform="translate(69.824219 0.296875)"/>
      <use xlink:href="#ArialMT-28" transform="translate(97.607422 0.296875)"/>
      <use xlink:href="#ArialMT-4a" transform="translate(130.908203 0.296875)"/>
      <use xlink:href="#ArialMT-20" transform="translate(180.908203 0.296875)"/>
      <use xlink:href="#ArialMT-6d" transform="translate(208.691406 0.296875)"/>
      <use xlink:href="#DejaVuSans-2212" transform="translate(292.949219 38.578125) scale(0.7)"/>
      <use xlink:href="#DejaVuSans-33" transform="translate(351.601562 38.578125) scale(0.7)"/>
      <use xlink:href="#ArialMT-20" transform="translate(398.87207 0.296875)"/>
      <use xlink:href="#ArialMT-4b" transform="translate(426.655273 0.296875)"/>
      <use xlink:href="#DejaVuSans-2212" transform="translate(494.311523 38.578125) scale(0.7)"/>
      <use xlink:href="#DejaVuSans-31" transform="translate(552.963867 38.578125) scale(0.7)"/>
      <use xlink:href="#ArialMT-29" transform="translate(600.234375 0.296875)"/>
     </g>
    </g>
    <g id="text_59">
     <!-- $\times\mathdefault{10^{6}}\mathdefault{}$ -->
     <g style="fill: #262626" transform="translate(376.679625 423.805375) scale(0.15 -0.15)">
      <use xlink:href="#DejaVuSans-d7" transform="translate(0 0.99375)"/>
      <use xlink:href="#ArialMT-31" transform="translate(83.789062 0.99375)"/>
      <use xlink:href="#ArialMT-30" transform="translate(139.404297 0.99375)"/>
      <use xlink:href="#ArialMT-36" transform="translate(196.761875 70.6875) scale(0.7)"/>
     </g>
    </g>
   </g>
   <g id="line2d_98">
    <path d="M 419.3475 432.069676 
L 420.48759 470.045056 
L 421.62768 500.151165 
L 422.767771 522.410892 
L 423.337816 530.103393 
L 423.907861 535.008048 
L 424.477906 537.214986 
L 425.047951 537.355699 
L 425.617996 536.092382 
L 426.188041 533.998949 
L 427.328131 528.643632 
L 429.038267 519.306588 
L 430.748402 508.247699 
L 432.458537 495.063576 
L 435.308763 471.752521 
L 436.448853 464.235049 
L 437.588943 458.688717 
L 438.158988 456.695627 
L 438.729033 455.218569 
L 439.299078 454.274961 
L 439.869123 453.945167 
L 440.439168 454.477345 
L 441.579259 458.895128 
L 442.149304 460.568777 
L 442.719349 461.534938 
L 443.289394 461.751087 
L 443.859439 461.261445 
L 444.429484 460.158284 
L 444.999529 458.566738 
L 446.709664 452.380027 
L 447.849755 448.500375 
L 448.989845 445.629635 
L 449.55989 444.611895 
L 450.129935 443.864572 
L 450.69998 443.397804 
L 451.270025 443.240765 
L 451.84007 443.435619 
L 452.410115 444.013544 
L 452.98016 444.981578 
L 453.550205 446.309101 
L 454.690296 449.851708 
L 455.830386 453.49195 
L 456.400431 454.95452 
L 456.970476 456.023625 
L 457.540521 456.627327 
L 458.110566 456.788539 
L 458.680611 456.570197 
L 459.820701 455.671025 
L 460.390746 455.418506 
L 460.960792 455.616984 
L 461.530837 456.609764 
L 463.240972 463.721236 
L 463.811017 464.980888 
L 464.381062 465.626029 
L 464.951107 467.513567 
L 465.521152 467.937852 
L 466.091197 466.826156 
L 466.661242 464.342568 
L 467.801333 456.523687 
L 468.941423 448.144323 
L 469.511468 445.109937 
L 470.081513 443.341356 
L 470.651558 442.928414 
L 471.221603 443.8257 
L 471.791648 445.769967 
L 472.931738 451.631044 
L 475.211919 466.082177 
L 476.922054 476.405499 
L 478.062144 481.477399 
L 478.632189 483.101168 
L 479.202234 484.026009 
L 479.77228 484.246759 
L 480.342325 483.811626 
L 480.91237 482.814954 
L 482.05246 479.750912 
L 483.19255 476.675327 
L 483.762595 475.617471 
L 484.33264 475.01896 
L 484.902685 474.888915 
L 485.47273 475.17446 
L 486.042776 475.777827 
L 487.182866 477.484356 
L 489.463046 480.945394 
L 490.603136 482.203975 
L 491.173181 482.640914 
L 491.743226 482.923931 
L 492.313272 483.035864 
L 492.883317 482.967337 
L 493.453362 482.720717 
L 494.593452 481.851455 
L 496.873632 479.714395 
L 497.443677 479.379919 
L 498.013722 479.194657 
L 498.583768 479.162058 
L 499.153813 479.264642 
L 500.293903 479.799228 
L 502.004038 480.65193 
L 503.144128 480.84974 
L 504.284218 480.717421 
L 506.564399 480.029114 
L 508.844579 479.081118 
L 510.554714 478.462595 
L 511.694805 478.394777 
L 515.68512 478.786919 
L 520.815526 478.336791 
L 522.525661 478.232067 
L 524.235797 478.425944 
L 526.515977 478.724237 
L 530.506293 479.051931 
L 534.496608 479.565917 
L 547.607645 483.001915 
L 555.588277 485.355472 
L 557.868457 486.055309 
L 560.718682 486.928143 
L 563.568908 487.798021 
L 565.849088 488.473754 
L 572.119584 489.938064 
L 578.960125 491.029949 
L 583.520486 491.549393 
L 595.491433 492.499489 
L 604.612154 492.995925 
L 622.853597 493.818424 
L 629.694138 494.396363 
L 640.524995 495.595861 
L 643.945266 496.118542 
L 649.075671 497.117528 
L 653.065987 498.115899 
L 656.486258 499.189017 
L 658.766438 500.099787 
L 660.476573 501.017873 
L 662.186708 502.260255 
L 663.326799 503.373034 
L 664.466889 504.902152 
L 665.036934 505.927637 
L 665.606979 507.223873 
L 666.177024 508.933104 
L 666.747069 511.323619 
L 667.317114 514.790984 
L 667.887159 516.184533 
L 668.457204 515.144428 
L 669.027249 512.145034 
L 670.16734 504.700852 
L 670.737385 503.063546 
L 671.30743 504.218166 
L 671.877475 508.475191 
L 672.44752 514.054068 
L 673.017565 517.624792 
L 673.58761 518.788415 
L 674.7277 517.907582 
L 675.297745 520.122733 
L 675.867791 520.029781 
L 676.437836 517.482441 
L 677.007881 512.71801 
L 678.147971 498.522982 
L 678.718016 491.008975 
L 679.288061 485.025209 
L 679.858106 481.762783 
L 680.428151 481.733007 
L 680.998196 484.662001 
L 681.568241 489.713582 
L 683.278377 507.666992 
L 683.848422 512.243217 
L 684.418467 515.561516 
L 684.988512 517.575768 
L 685.558557 518.2969 
L 686.128602 517.776747 
L 686.698647 516.079662 
L 687.268692 513.340038 
L 688.408783 505.731219 
L 689.548873 498.117839 
L 690.118918 495.372529 
L 690.688963 493.801249 
L 691.259008 493.442468 
L 691.829053 494.085363 
L 692.399098 495.388822 
L 693.539188 498.543608 
L 694.109233 499.816275 
L 694.679279 500.670395 
L 695.249324 501.067713 
L 695.819369 501.023812 
L 696.389414 500.580306 
L 696.959459 499.793936 
L 698.099549 497.525895 
L 699.239639 495.239582 
L 699.809684 494.527384 
L 700.379729 494.272016 
L 700.949775 494.516228 
L 701.51982 495.207933 
L 703.8 499.366522 
L 703.8 499.366522 
" clip-path="url(#pf7ec3d64c8)" style="fill: none; stroke: #000000; stroke-width: 2; stroke-linecap: round"/>
   </g>
   <g id="patch_28">
    <path d="M 419.3475 542.62 
L 419.3475 426.805375 
" style="fill: none; stroke: #262626; stroke-width: 1.5; stroke-linejoin: miter; stroke-linecap: square"/>
   </g>
   <g id="patch_29">
    <path d="M 703.8 542.62 
L 703.8 426.805375 
" style="fill: none; stroke: #262626; stroke-width: 1.5; stroke-linejoin: miter; stroke-linecap: square"/>
   </g>
   <g id="patch_30">
    <path d="M 419.3475 542.62 
L 703.8 542.62 
" style="fill: none; stroke: #262626; stroke-width: 1.5; stroke-linejoin: miter; stroke-linecap: square"/>
   </g>
   <g id="patch_31">
    <path d="M 419.3475 426.805375 
L 703.8 426.805375 
" style="fill: none; stroke: #262626; stroke-width: 1.5; stroke-linejoin: miter; stroke-linecap: square"/>
   </g>
   <g id="text_60">
    <!-- (f) -->
    <g style="fill: #262626" transform="translate(419.3475 416.805375) scale(0.2 -0.2)">
     <defs>
      <path id="ArialMT-66" d="M 556 0 
L 556 2881 
L 59 2881 
L 59 3319 
L 556 3319 
L 556 3672 
Q 556 4006 616 4169 
Q 697 4388 901 4523 
Q 1106 4659 1475 4659 
Q 1713 4659 2000 4603 
L 1916 4113 
Q 1741 4144 1584 4144 
Q 1328 4144 1222 4034 
Q 1116 3925 1116 3625 
L 1116 3319 
L 1763 3319 
L 1763 2881 
L 1116 2881 
L 1116 0 
L 556 0 
z
" transform="scale(0.015625)"/>
     </defs>
     <use xlink:href="#ArialMT-28"/>
     <use xlink:href="#ArialMT-66" transform="translate(33.300781 0)"/>
     <use xlink:href="#ArialMT-29" transform="translate(61.083984 0)"/>
    </g>
   </g>
  </g>
 </g>
 <defs>
  <clipPath id="pfd011d8276">
   <rect x="67.38" y="40.9" width="284.4525" height="115.814625"/>
  </clipPath>
  <clipPath id="p77278a54d4">
   <rect x="419.3475" y="40.9" width="284.4525" height="115.814625"/>
  </clipPath>
  <clipPath id="p8870595701">
   <rect x="67.38" y="233.852688" width="284.4525" height="115.814625"/>
  </clipPath>
  <clipPath id="pe670eb7479">
   <rect x="419.3475" y="233.852688" width="284.4525" height="115.814625"/>
  </clipPath>
  <clipPath id="pcb9fdb87dc">
   <rect x="67.38" y="426.805375" width="284.4525" height="115.814625"/>
  </clipPath>
  <clipPath id="pf7ec3d64c8">
   <rect x="419.3475" y="426.805375" width="284.4525" height="115.814625"/>
  </clipPath>
 </defs>
</svg>
