<?xml version="1.0" encoding="utf-8" standalone="no"?>
<!DOCTYPE svg PUBLIC "-//W3C//DTD SVG 1.1//EN"
  "http://www.w3.org/Graphics/SVG/1.1/DTD/svg11.dtd">
<svg xmlns:xlink="http://www.w3.org/1999/xlink" width="720pt" height="576pt" viewBox="0 0 720 576" xmlns="http://www.w3.org/2000/svg" version="1.1">
 <metadata>
  <rdf:RDF xmlns:dc="http://purl.org/dc/elements/1.1/" xmlns:cc="http://creativecommons.org/ns#" xmlns:rdf="http://www.w3.org/1999/02/22-rdf-syntax-ns#">
   <cc:Work>
    <dc:type rdf:resource="http://purl.org/dc/dcmitype/StillImage"/>
    <dc:date>2026-07-27T19:26:11.246617</dc:date>
    <dc:format>image/svg+xml</dc:format>
    <dc:creator>
     <cc:Agent>
      <dc:title>Matplotlib v3.10.9, https://matplotlib.org/</dc:title>
     </cc:Agent>
    </dc:creator>
   </cc:Work>
  </rdf:RDF>
 </metadata>
 <defs>
  <style type="text/css">*{stroke-linejoin: round; stroke-linecap: butt}</style>
 </defs>
 <g id="figure_1">
  <g id="patch_1">
   <path d="M 0 576 
L 720 576 
L 720 0 
L 0 0 
z
" style="fill: #ffffff"/>
  </g>
  <g id="axes_1">
   <g id="patch_2">
    <path d="M 73.38 156.809625 
L 350.67 156.809625 
L 350.67 40.9 
L 73.38 40.9 
z
" style="fill: #ffffff"/>
   </g>
   <g id="matplotlib.axis_1">
    <g id="xtick_1">
     <g id="line2d_1">
      <defs>
       <path id="mebf00d7bd6" d="M 0 0 
L 0 -6 
" style="stroke: #262626; stroke-width: 0.8"/>
      </defs>
      <g>
       <use xlink:href="#mebf00d7bd6" x="73.38" y="156.809625" style="fill: #262626; stroke: #262626; stroke-width: 0.8"/>
      </g>
     </g>
     <g id="line2d_2">
      <defs>
       <path id="m8495e850bd" d="M 0 0 
L 0 6 
" style="stroke: #262626; stroke-width: 0.8"/>
      </defs>
      <g>
       <use xlink:href="#m8495e850bd" x="73.38" y="40.9" style="fill: #262626; stroke: #262626; stroke-width: 0.8"/>
      </g>
     </g>
     <g id="text_1">
      <!-- 0 -->
      <g style="fill: #262626" transform="translate(69.209297 171.046344) scale(0.15 -0.15)">
       <defs>
        <path id="ArialMT-30" d="M 266 2259 
Q 266 3072 433 3567 
Q 600 4063 929 4331 
Q 1259 4600 1759 4600 
Q 2128 4600 2406 4451 
Q 2684 4303 2865 4023 
Q 3047 3744 3150 3342 
Q 3253 2941 3253 2259 
Q 3253 1453 3087 958 
Q 2922 463 2592 192 
Q 2263 -78 1759 -78 
Q 1097 -78 719 397 
Q 266 969 266 2259 
z
M 844 2259 
Q 844 1131 1108 757 
Q 1372 384 1759 384 
Q 2147 384 2411 759 
Q 2675 1134 2675 2259 
Q 2675 3391 2411 3762 
Q 2147 4134 1753 4134 
Q 1366 4134 1134 3806 
Q 844 3388 844 2259 
z
" transform="scale(0.015625)"/>
       </defs>
       <use xlink:href="#ArialMT-30"/>
      </g>
     </g>
    </g>
    <g id="xtick_2">
     <g id="line2d_3">
      <g>
       <use xlink:href="#mebf00d7bd6" x="128.949138" y="156.809625" style="fill: #262626; stroke: #262626; stroke-width: 0.8"/>
      </g>
     </g>
     <g id="line2d_4">
      <g>
       <use xlink:href="#m8495e850bd" x="128.949138" y="40.9" style="fill: #262626; stroke: #262626; stroke-width: 0.8"/>
      </g>
     </g>
     <g id="text_2">
      <!-- 100 -->
      <g style="fill: #262626" transform="translate(116.437029 171.046344) scale(0.15 -0.15)">
       <defs>
        <path id="ArialMT-31" d="M 2384 0 
L 1822 0 
L 1822 3584 
Q 1619 3391 1289 3197 
Q 959 3003 697 2906 
L 697 3450 
Q 1169 3672 1522 3987 
Q 1875 4303 2022 4600 
L 2384 4600 
L 2384 0 
z
" transform="scale(0.015625)"/>
       </defs>
       <use xlink:href="#ArialMT-31"/>
       <use xlink:href="#ArialMT-30" transform="translate(55.615234 0)"/>
       <use xlink:href="#ArialMT-30" transform="translate(111.230469 0)"/>
      </g>
     </g>
    </g>
    <g id="xtick_3">
     <g id="line2d_5">
      <g>
       <use xlink:href="#mebf00d7bd6" x="184.518277" y="156.809625" style="fill: #262626; stroke: #262626; stroke-width: 0.8"/>
      </g>
     </g>
     <g id="line2d_6">
      <g>
       <use xlink:href="#m8495e850bd" x="184.518277" y="40.9" style="fill: #262626; stroke: #262626; stroke-width: 0.8"/>
      </g>
     </g>
     <g id="text_3">
      <!-- 200 -->
      <g style="fill: #262626" transform="translate(172.006167 171.046344) scale(0.15 -0.15)">
       <defs>
        <path id="ArialMT-32" d="M 3222 541 
L 3222 0 
L 194 0 
Q 188 203 259 391 
Q 375 700 629 1000 
Q 884 1300 1366 1694 
Q 2113 2306 2375 2664 
Q 2638 3022 2638 3341 
Q 2638 3675 2398 3904 
Q 2159 4134 1775 4134 
Q 1369 4134 1125 3890 
Q 881 3647 878 3216 
L 300 3275 
Q 359 3922 746 4261 
Q 1134 4600 1788 4600 
Q 2447 4600 2831 4234 
Q 3216 3869 3216 3328 
Q 3216 3053 3103 2787 
Q 2991 2522 2730 2228 
Q 2469 1934 1863 1422 
Q 1356 997 1212 845 
Q 1069 694 975 541 
L 3222 541 
z
" transform="scale(0.015625)"/>
       </defs>
       <use xlink:href="#ArialMT-32"/>
       <use xlink:href="#ArialMT-30" transform="translate(55.615234 0)"/>
       <use xlink:href="#ArialMT-30" transform="translate(111.230469 0)"/>
      </g>
     </g>
    </g>
    <g id="xtick_4">
     <g id="line2d_7">
      <g>
       <use xlink:href="#mebf00d7bd6" x="240.087415" y="156.809625" style="fill: #262626; stroke: #262626; stroke-width: 0.8"/>
      </g>
     </g>
     <g id="line2d_8">
      <g>
       <use xlink:href="#m8495e850bd" x="240.087415" y="40.9" style="fill: #262626; stroke: #262626; stroke-width: 0.8"/>
      </g>
     </g>
     <g id="text_4">
      <!-- 300 -->
      <g style="fill: #262626" transform="translate(227.575305 171.046344) scale(0.15 -0.15)">
       <defs>
        <path id="ArialMT-33" d="M 269 1209 
L 831 1284 
Q 928 806 1161 595 
Q 1394 384 1728 384 
Q 2125 384 2398 659 
Q 2672 934 2672 1341 
Q 2672 1728 2419 1979 
Q 2166 2231 1775 2231 
Q 1616 2231 1378 2169 
L 1441 2663 
Q 1497 2656 1531 2656 
Q 1891 2656 2178 2843 
Q 2466 3031 2466 3422 
Q 2466 3731 2256 3934 
Q 2047 4138 1716 4138 
Q 1388 4138 1169 3931 
Q 950 3725 888 3313 
L 325 3413 
Q 428 3978 793 4289 
Q 1159 4600 1703 4600 
Q 2078 4600 2393 4439 
Q 2709 4278 2876 4000 
Q 3044 3722 3044 3409 
Q 3044 3113 2884 2869 
Q 2725 2625 2413 2481 
Q 2819 2388 3044 2092 
Q 3269 1797 3269 1353 
Q 3269 753 2831 336 
Q 2394 -81 1725 -81 
Q 1122 -81 723 278 
Q 325 638 269 1209 
z
" transform="scale(0.015625)"/>
       </defs>
       <use xlink:href="#ArialMT-33"/>
       <use xlink:href="#ArialMT-30" transform="translate(55.615234 0)"/>
       <use xlink:href="#ArialMT-30" transform="translate(111.230469 0)"/>
      </g>
     </g>
    </g>
    <g id="xtick_5">
     <g id="line2d_9">
      <g>
       <use xlink:href="#mebf00d7bd6" x="295.656553" y="156.809625" style="fill: #262626; stroke: #262626; stroke-width: 0.8"/>
      </g>
     </g>
     <g id="line2d_10">
      <g>
       <use xlink:href="#m8495e850bd" x="295.656553" y="40.9" style="fill: #262626; stroke: #262626; stroke-width: 0.8"/>
      </g>
     </g>
     <g id="text_5">
      <!-- 400 -->
      <g style="fill: #262626" transform="translate(283.144444 171.046344) scale(0.15 -0.15)">
       <defs>
        <path id="ArialMT-34" d="M 2069 0 
L 2069 1097 
L 81 1097 
L 81 1613 
L 2172 4581 
L 2631 4581 
L 2631 1613 
L 3250 1613 
L 3250 1097 
L 2631 1097 
L 2631 0 
L 2069 0 
z
M 2069 1613 
L 2069 3678 
L 634 1613 
L 2069 1613 
z
" transform="scale(0.015625)"/>
       </defs>
       <use xlink:href="#ArialMT-34"/>
       <use xlink:href="#ArialMT-30" transform="translate(55.615234 0)"/>
       <use xlink:href="#ArialMT-30" transform="translate(111.230469 0)"/>
      </g>
     </g>
    </g>
   </g>
   <g id="matplotlib.axis_2">
    <g id="ytick_1">
     <g id="line2d_11">
      <defs>
       <path id="m968b0f8674" d="M 0 0 
L 6 0 
" style="stroke: #262626; stroke-width: 0.8"/>
      </defs>
      <g>
       <use xlink:href="#m968b0f8674" x="73.38" y="134.495756" style="fill: #262626; stroke: #262626; stroke-width: 0.8"/>
      </g>
     </g>
     <g id="line2d_12">
      <defs>
       <path id="m732c64a0f5" d="M 0 0 
L -6 0 
" style="stroke: #262626; stroke-width: 0.8"/>
      </defs>
      <g>
       <use xlink:href="#m732c64a0f5" x="350.67" y="134.495756" style="fill: #262626; stroke: #262626; stroke-width: 0.8"/>
      </g>
     </g>
     <g id="text_6">
      <!-- 20 -->
      <g style="fill: #262626" transform="translate(53.197187 139.864115) scale(0.15 -0.15)">
       <use xlink:href="#ArialMT-32"/>
       <use xlink:href="#ArialMT-30" transform="translate(55.615234 0)"/>
      </g>
     </g>
    </g>
    <g id="ytick_2">
     <g id="line2d_13">
      <g>
       <use xlink:href="#m968b0f8674" x="73.38" y="84.898512" style="fill: #262626; stroke: #262626; stroke-width: 0.8"/>
      </g>
     </g>
     <g id="line2d_14">
      <g>
       <use xlink:href="#m732c64a0f5" x="350.67" y="84.898512" style="fill: #262626; stroke: #262626; stroke-width: 0.8"/>
      </g>
     </g>
     <g id="text_7">
      <!-- 30 -->
      <g style="fill: #262626" transform="translate(53.197187 90.266871) scale(0.15 -0.15)">
       <use xlink:href="#ArialMT-33"/>
       <use xlink:href="#ArialMT-30" transform="translate(55.615234 0)"/>
      </g>
     </g>
    </g>
    <g id="text_8">
     <!-- RSL Losses -->
     <g style="fill: #262626" transform="translate(46.215937 139.009109) rotate(-90) scale(0.15 -0.15)">
      <defs>
       <path id="ArialMT-52" d="M 503 0 
L 503 4581 
L 2534 4581 
Q 3147 4581 3465 4457 
Q 3784 4334 3975 4021 
Q 4166 3709 4166 3331 
Q 4166 2844 3850 2509 
Q 3534 2175 2875 2084 
Q 3116 1969 3241 1856 
Q 3506 1613 3744 1247 
L 4541 0 
L 3778 0 
L 3172 953 
Q 2906 1366 2734 1584 
Q 2563 1803 2427 1890 
Q 2291 1978 2150 2013 
Q 2047 2034 1813 2034 
L 1109 2034 
L 1109 0 
L 503 0 
z
M 1109 2559 
L 2413 2559 
Q 2828 2559 3062 2645 
Q 3297 2731 3419 2920 
Q 3541 3109 3541 3331 
Q 3541 3656 3305 3865 
Q 3069 4075 2559 4075 
L 1109 4075 
L 1109 2559 
z
" transform="scale(0.015625)"/>
       <path id="ArialMT-53" d="M 288 1472 
L 859 1522 
Q 900 1178 1048 958 
Q 1197 738 1509 602 
Q 1822 466 2213 466 
Q 2559 466 2825 569 
Q 3091 672 3220 851 
Q 3350 1031 3350 1244 
Q 3350 1459 3225 1620 
Q 3100 1781 2813 1891 
Q 2628 1963 1997 2114 
Q 1366 2266 1113 2400 
Q 784 2572 623 2826 
Q 463 3081 463 3397 
Q 463 3744 659 4045 
Q 856 4347 1234 4503 
Q 1613 4659 2075 4659 
Q 2584 4659 2973 4495 
Q 3363 4331 3572 4012 
Q 3781 3694 3797 3291 
L 3216 3247 
Q 3169 3681 2898 3903 
Q 2628 4125 2100 4125 
Q 1550 4125 1298 3923 
Q 1047 3722 1047 3438 
Q 1047 3191 1225 3031 
Q 1400 2872 2139 2705 
Q 2878 2538 3153 2413 
Q 3553 2228 3743 1945 
Q 3934 1663 3934 1294 
Q 3934 928 3725 604 
Q 3516 281 3123 101 
Q 2731 -78 2241 -78 
Q 1619 -78 1198 103 
Q 778 284 539 648 
Q 300 1013 288 1472 
z
" transform="scale(0.015625)"/>
       <path id="ArialMT-4c" d="M 469 0 
L 469 4581 
L 1075 4581 
L 1075 541 
L 3331 541 
L 3331 0 
L 469 0 
z
" transform="scale(0.015625)"/>
       <path id="ArialMT-20" transform="scale(0.015625)"/>
       <path id="ArialMT-6f" d="M 213 1659 
Q 213 2581 725 3025 
Q 1153 3394 1769 3394 
Q 2453 3394 2887 2945 
Q 3322 2497 3322 1706 
Q 3322 1066 3130 698 
Q 2938 331 2570 128 
Q 2203 -75 1769 -75 
Q 1072 -75 642 372 
Q 213 819 213 1659 
z
M 791 1659 
Q 791 1022 1069 705 
Q 1347 388 1769 388 
Q 2188 388 2466 706 
Q 2744 1025 2744 1678 
Q 2744 2294 2464 2611 
Q 2184 2928 1769 2928 
Q 1347 2928 1069 2612 
Q 791 2297 791 1659 
z
" transform="scale(0.015625)"/>
       <path id="ArialMT-73" d="M 197 991 
L 753 1078 
Q 800 744 1014 566 
Q 1228 388 1613 388 
Q 2000 388 2187 545 
Q 2375 703 2375 916 
Q 2375 1106 2209 1216 
Q 2094 1291 1634 1406 
Q 1016 1563 777 1677 
Q 538 1791 414 1992 
Q 291 2194 291 2438 
Q 291 2659 392 2848 
Q 494 3038 669 3163 
Q 800 3259 1026 3326 
Q 1253 3394 1513 3394 
Q 1903 3394 2198 3281 
Q 2494 3169 2634 2976 
Q 2775 2784 2828 2463 
L 2278 2388 
Q 2241 2644 2061 2787 
Q 1881 2931 1553 2931 
Q 1166 2931 1000 2803 
Q 834 2675 834 2503 
Q 834 2394 903 2306 
Q 972 2216 1119 2156 
Q 1203 2125 1616 2013 
Q 2213 1853 2448 1751 
Q 2684 1650 2818 1456 
Q 2953 1263 2953 975 
Q 2953 694 2789 445 
Q 2625 197 2315 61 
Q 2006 -75 1616 -75 
Q 969 -75 630 194 
Q 291 463 197 991 
z
" transform="scale(0.015625)"/>
       <path id="ArialMT-65" d="M 2694 1069 
L 3275 997 
Q 3138 488 2766 206 
Q 2394 -75 1816 -75 
Q 1088 -75 661 373 
Q 234 822 234 1631 
Q 234 2469 665 2931 
Q 1097 3394 1784 3394 
Q 2450 3394 2872 2941 
Q 3294 2488 3294 1666 
Q 3294 1616 3291 1516 
L 816 1516 
Q 847 969 1125 678 
Q 1403 388 1819 388 
Q 2128 388 2347 550 
Q 2566 713 2694 1069 
z
M 847 1978 
L 2700 1978 
Q 2663 2397 2488 2606 
Q 2219 2931 1791 2931 
Q 1403 2931 1139 2672 
Q 875 2413 847 1978 
z
" transform="scale(0.015625)"/>
      </defs>
      <use xlink:href="#ArialMT-52"/>
      <use xlink:href="#ArialMT-53" transform="translate(72.216797 0)"/>
      <use xlink:href="#ArialMT-4c" transform="translate(138.916016 0)"/>
      <use xlink:href="#ArialMT-20" transform="translate(190.78125 0)"/>
      <use xlink:href="#ArialMT-4c" transform="translate(218.564453 0)"/>
      <use xlink:href="#ArialMT-6f" transform="translate(274.179688 0)"/>
      <use xlink:href="#ArialMT-73" transform="translate(329.794922 0)"/>
      <use xlink:href="#ArialMT-73" transform="translate(379.794922 0)"/>
      <use xlink:href="#ArialMT-65" transform="translate(429.794922 0)"/>
      <use xlink:href="#ArialMT-73" transform="translate(485.410156 0)"/>
     </g>
    </g>
   </g>
   <g id="line2d_15">
    <path d="M 73.38 46.168619 
L 73.935691 52.955812 
L 74.491383 72.131266 
L 75.047074 106.834078 
L 75.602766 76.304483 
L 76.158457 103.437493 
L 76.714148 97.54081 
L 77.26984 98.692121 
L 77.825531 99.268173 
L 78.381222 100.38259 
L 78.936914 103.370649 
L 79.492605 107.495289 
L 80.048297 110.160954 
L 80.603988 110.574343 
L 81.159679 111.475051 
L 81.715371 114.859707 
L 82.826754 122.994967 
L 83.382445 125.229647 
L 84.493828 128.294804 
L 86.160902 134.476533 
L 87.272285 137.555776 
L 88.383667 141.017664 
L 88.939359 141.952011 
L 90.606433 143.353849 
L 91.162124 143.898646 
L 91.717816 144.250593 
L 93.38489 144.724535 
L 93.940581 144.665968 
L 95.051964 144.280968 
L 95.607655 144.277648 
L 96.163347 144.458257 
L 96.719038 144.446782 
L 98.386112 144.130499 
L 100.053186 144.146013 
L 108.944248 145.372331 
L 112.278397 145.396208 
L 112.834088 145.603258 
L 117.835311 145.593703 
L 118.391002 145.798283 
L 123.392224 145.82217 
L 123.947916 146.043958 
L 128.949138 146.062225 
L 129.50483 146.289953 
L 134.506052 146.302592 
L 135.061743 146.544586 
L 140.062966 146.549051 
L 140.618657 146.799408 
L 145.61988 146.802823 
L 146.175571 147.012711 
L 176.182906 147.511863 
L 190.07519 147.65205 
L 190.630882 147.786721 
L 195.632104 147.788216 
L 196.743487 147.894356 
L 201.189018 147.895889 
L 201.744709 148.031592 
L 206.745932 148.036038 
L 207.301623 148.16947 
L 212.302846 148.186924 
L 212.858537 148.353257 
L 217.85976 148.355793 
L 218.415451 148.523394 
L 223.416673 148.525286 
L 223.972365 148.689728 
L 228.973587 148.69249 
L 229.529279 148.84926 
L 234.530501 148.852978 
L 235.086192 148.998869 
L 240.087415 149.003003 
L 240.643106 149.126928 
L 251.201242 149.244429 
L 251.756934 149.371032 
L 256.758156 149.373832 
L 257.313848 149.49385 
L 262.31507 149.503991 
L 263.426453 149.621795 
L 267.871984 149.625863 
L 268.427675 149.753071 
L 284.542725 150.018062 
L 285.098417 150.156139 
L 290.099639 150.161124 
L 290.655331 150.300989 
L 306.770381 150.576595 
L 307.326072 150.705297 
L 350.67 151.533807 
L 350.67 151.533807 
" clip-path="url(#p1e7c3f932e)" style="fill: none; stroke: #000000; stroke-width: 2; stroke-linecap: round"/>
   </g>
   <g id="patch_3">
    <path d="M 73.38 156.809625 
L 73.38 40.9 
" style="fill: none; stroke: #262626; stroke-width: 1.5; stroke-linejoin: miter; stroke-linecap: square"/>
   </g>
   <g id="patch_4">
    <path d="M 350.67 156.809625 
L 350.67 40.9 
" style="fill: none; stroke: #262626; stroke-width: 1.5; stroke-linejoin: miter; stroke-linecap: square"/>
   </g>
   <g id="patch_5">
    <path d="M 73.38 156.809625 
L 350.67 156.809625 
" style="fill: none; stroke: #262626; stroke-width: 1.5; stroke-linejoin: miter; stroke-linecap: square"/>
   </g>
   <g id="patch_6">
    <path d="M 73.38 40.9 
L 350.67 40.9 
" style="fill: none; stroke: #262626; stroke-width: 1.5; stroke-linejoin: miter; stroke-linecap: square"/>
   </g>
   <g id="text_9">
    <!-- a) -->
    <g style="fill: #262626" transform="translate(73.38 30.9) scale(0.2 -0.2)">
     <defs>
      <path id="ArialMT-61" d="M 2588 409 
Q 2275 144 1986 34 
Q 1697 -75 1366 -75 
Q 819 -75 525 192 
Q 231 459 231 875 
Q 231 1119 342 1320 
Q 453 1522 633 1644 
Q 813 1766 1038 1828 
Q 1203 1872 1538 1913 
Q 2219 1994 2541 2106 
Q 2544 2222 2544 2253 
Q 2544 2597 2384 2738 
Q 2169 2928 1744 2928 
Q 1347 2928 1158 2789 
Q 969 2650 878 2297 
L 328 2372 
Q 403 2725 575 2942 
Q 747 3159 1072 3276 
Q 1397 3394 1825 3394 
Q 2250 3394 2515 3294 
Q 2781 3194 2906 3042 
Q 3031 2891 3081 2659 
Q 3109 2516 3109 2141 
L 3109 1391 
Q 3109 606 3145 398 
Q 3181 191 3288 0 
L 2700 0 
Q 2613 175 2588 409 
z
M 2541 1666 
Q 2234 1541 1622 1453 
Q 1275 1403 1131 1340 
Q 988 1278 909 1158 
Q 831 1038 831 891 
Q 831 666 1001 516 
Q 1172 366 1500 366 
Q 1825 366 2078 508 
Q 2331 650 2450 897 
Q 2541 1088 2541 1459 
L 2541 1666 
z
" transform="scale(0.015625)"/>
      <path id="ArialMT-29" d="M 791 -1347 
L 388 -1347 
Q 1322 153 1322 1656 
Q 1322 2244 1188 2822 
Q 1081 3291 891 3722 
Q 769 4003 388 4659 
L 791 4659 
Q 1378 3875 1659 3084 
Q 1900 2403 1900 1659 
Q 1900 816 1576 28 
Q 1253 -759 791 -1347 
z
" transform="scale(0.015625)"/>
     </defs>
     <use xlink:href="#ArialMT-61"/>
     <use xlink:href="#ArialMT-29" transform="translate(55.615234 0)"/>
    </g>
   </g>
  </g>
  <g id="axes_2">
   <g id="patch_7">
    <path d="M 426.51 156.809625 
L 703.8 156.809625 
L 703.8 40.9 
L 426.51 40.9 
z
" style="fill: #ffffff"/>
   </g>
   <g id="matplotlib.axis_3">
    <g id="xtick_6">
     <g id="line2d_16">
      <g>
       <use xlink:href="#mebf00d7bd6" x="426.51" y="156.809625" style="fill: #262626; stroke: #262626; stroke-width: 0.8"/>
      </g>
     </g>
     <g id="line2d_17">
      <g>
       <use xlink:href="#m8495e850bd" x="426.51" y="40.9" style="fill: #262626; stroke: #262626; stroke-width: 0.8"/>
      </g>
     </g>
     <g id="text_10">
      <!-- 0 -->
      <g style="fill: #262626" transform="translate(422.339297 171.046344) scale(0.15 -0.15)">
       <use xlink:href="#ArialMT-30"/>
      </g>
     </g>
    </g>
    <g id="xtick_7">
     <g id="line2d_18">
      <g>
       <use xlink:href="#mebf00d7bd6" x="482.079138" y="156.809625" style="fill: #262626; stroke: #262626; stroke-width: 0.8"/>
      </g>
     </g>
     <g id="line2d_19">
      <g>
       <use xlink:href="#m8495e850bd" x="482.079138" y="40.9" style="fill: #262626; stroke: #262626; stroke-width: 0.8"/>
      </g>
     </g>
     <g id="text_11">
      <!-- 100 -->
      <g style="fill: #262626" transform="translate(469.567029 171.046344) scale(0.15 -0.15)">
       <use xlink:href="#ArialMT-31"/>
       <use xlink:href="#ArialMT-30" transform="translate(55.615234 0)"/>
       <use xlink:href="#ArialMT-30" transform="translate(111.230469 0)"/>
      </g>
     </g>
    </g>
    <g id="xtick_8">
     <g id="line2d_20">
      <g>
       <use xlink:href="#mebf00d7bd6" x="537.648277" y="156.809625" style="fill: #262626; stroke: #262626; stroke-width: 0.8"/>
      </g>
     </g>
     <g id="line2d_21">
      <g>
       <use xlink:href="#m8495e850bd" x="537.648277" y="40.9" style="fill: #262626; stroke: #262626; stroke-width: 0.8"/>
      </g>
     </g>
     <g id="text_12">
      <!-- 200 -->
      <g style="fill: #262626" transform="translate(525.136167 171.046344) scale(0.15 -0.15)">
       <use xlink:href="#ArialMT-32"/>
       <use xlink:href="#ArialMT-30" transform="translate(55.615234 0)"/>
       <use xlink:href="#ArialMT-30" transform="translate(111.230469 0)"/>
      </g>
     </g>
    </g>
    <g id="xtick_9">
     <g id="line2d_22">
      <g>
       <use xlink:href="#mebf00d7bd6" x="593.217415" y="156.809625" style="fill: #262626; stroke: #262626; stroke-width: 0.8"/>
      </g>
     </g>
     <g id="line2d_23">
      <g>
       <use xlink:href="#m8495e850bd" x="593.217415" y="40.9" style="fill: #262626; stroke: #262626; stroke-width: 0.8"/>
      </g>
     </g>
     <g id="text_13">
      <!-- 300 -->
      <g style="fill: #262626" transform="translate(580.705305 171.046344) scale(0.15 -0.15)">
       <use xlink:href="#ArialMT-33"/>
       <use xlink:href="#ArialMT-30" transform="translate(55.615234 0)"/>
       <use xlink:href="#ArialMT-30" transform="translate(111.230469 0)"/>
      </g>
     </g>
    </g>
    <g id="xtick_10">
     <g id="line2d_24">
      <g>
       <use xlink:href="#mebf00d7bd6" x="648.786553" y="156.809625" style="fill: #262626; stroke: #262626; stroke-width: 0.8"/>
      </g>
     </g>
     <g id="line2d_25">
      <g>
       <use xlink:href="#m8495e850bd" x="648.786553" y="40.9" style="fill: #262626; stroke: #262626; stroke-width: 0.8"/>
      </g>
     </g>
     <g id="text_14">
      <!-- 400 -->
      <g style="fill: #262626" transform="translate(636.274444 171.046344) scale(0.15 -0.15)">
       <use xlink:href="#ArialMT-34"/>
       <use xlink:href="#ArialMT-30" transform="translate(55.615234 0)"/>
       <use xlink:href="#ArialMT-30" transform="translate(111.230469 0)"/>
      </g>
     </g>
    </g>
   </g>
   <g id="matplotlib.axis_4">
    <g id="ytick_3">
     <g id="line2d_26">
      <g>
       <use xlink:href="#m968b0f8674" x="426.51" y="155.736711" style="fill: #262626; stroke: #262626; stroke-width: 0.8"/>
      </g>
     </g>
     <g id="line2d_27">
      <g>
       <use xlink:href="#m732c64a0f5" x="703.8" y="155.736711" style="fill: #262626; stroke: #262626; stroke-width: 0.8"/>
      </g>
     </g>
     <g id="text_15">
      <!-- 0.23 -->
      <g style="fill: #262626" transform="translate(393.818594 161.10507) scale(0.15 -0.15)">
       <defs>
        <path id="ArialMT-2e" d="M 581 0 
L 581 641 
L 1222 641 
L 1222 0 
L 581 0 
z
" transform="scale(0.015625)"/>
       </defs>
       <use xlink:href="#ArialMT-30"/>
       <use xlink:href="#ArialMT-2e" transform="translate(55.615234 0)"/>
       <use xlink:href="#ArialMT-32" transform="translate(83.398438 0)"/>
       <use xlink:href="#ArialMT-33" transform="translate(139.013672 0)"/>
      </g>
     </g>
    </g>
    <g id="ytick_4">
     <g id="line2d_28">
      <g>
       <use xlink:href="#m968b0f8674" x="426.51" y="81.534708" style="fill: #262626; stroke: #262626; stroke-width: 0.8"/>
      </g>
     </g>
     <g id="line2d_29">
      <g>
       <use xlink:href="#m732c64a0f5" x="703.8" y="81.534708" style="fill: #262626; stroke: #262626; stroke-width: 0.8"/>
      </g>
     </g>
     <g id="text_16">
      <!-- 0.24 -->
      <g style="fill: #262626" transform="translate(393.818594 86.903068) scale(0.15 -0.15)">
       <use xlink:href="#ArialMT-30"/>
       <use xlink:href="#ArialMT-2e" transform="translate(55.615234 0)"/>
       <use xlink:href="#ArialMT-32" transform="translate(83.398438 0)"/>
       <use xlink:href="#ArialMT-34" transform="translate(139.013672 0)"/>
      </g>
     </g>
    </g>
    <g id="text_17">
     <!-- $\hat{\alpha}$ -->
     <g style="fill: #262626" transform="translate(386.837344 103.804813) rotate(-90) scale(0.15 -0.15)">
      <defs>
       <path id="DejaVuSans-302" d="M -1831 5119 
L -1369 5119 
L -603 3944 
L -1038 3944 
L -1600 4709 
L -2163 3944 
L -2597 3944 
L -1831 5119 
z
M -1600 3584 
L -1600 3584 
z
" transform="scale(0.015625)"/>
       <path id="DejaVuSans-Oblique-3b1" d="M 2619 1628 
L 2622 2350 
Q 2625 3088 2069 3091 
Q 1653 3094 1394 2747 
Q 1069 2319 959 1747 
Q 825 1059 994 731 
Q 1169 397 1547 397 
Q 1966 397 2319 1063 
L 2619 1628 
z
M 2166 3578 
Q 3141 3594 3128 2584 
Q 3128 2584 3616 3500 
L 4128 3500 
L 3119 1603 
L 3109 919 
Q 3109 766 3194 638 
Q 3291 488 3391 488 
L 3669 488 
L 3575 0 
L 3228 0 
Q 2934 0 2722 263 
Q 2622 394 2619 669 
Q 2416 334 2066 50 
Q 1900 -81 1453 -78 
Q 722 -72 456 397 
Q 184 884 353 1747 
Q 534 2675 1009 3097 
Q 1544 3569 2166 3578 
z
" transform="scale(0.015625)"/>
      </defs>
      <use xlink:href="#DejaVuSans-302" transform="translate(66.057617 13.015625)"/>
      <use xlink:href="#DejaVuSans-Oblique-3b1" transform="translate(0 0.359375)"/>
     </g>
    </g>
   </g>
   <g id="line2d_30">
    <path d="M 426.51 151.541006 
L 427.065691 122.621527 
L 427.621383 80.157493 
L 428.732766 46.168619 
L 429.288457 61.556701 
L 430.39984 118.424747 
L 430.955531 133.47725 
L 431.511222 133.453257 
L 432.066914 121.587812 
L 433.178297 82.923834 
L 433.733988 70.401606 
L 434.289679 68.945293 
L 434.845371 77.359972 
L 435.956754 105.964769 
L 436.512445 115.252616 
L 437.068136 116.935706 
L 437.623828 111.31855 
L 439.290902 80.245175 
L 439.846593 77.800039 
L 440.402285 81.739855 
L 441.513667 98.63876 
L 442.069359 104.410603 
L 442.62505 105.141137 
L 443.180741 100.863862 
L 444.292124 85.841766 
L 444.847816 81.140015 
L 445.403507 80.919871 
L 445.959198 84.779413 
L 447.070581 95.811937 
L 447.626273 97.968929 
L 448.181964 96.387673 
L 449.849038 83.127061 
L 450.404729 82.505328 
L 450.960421 84.877378 
L 452.071804 92.445203 
L 452.627495 93.968078 
L 453.183186 92.888477 
L 454.294569 86.730745 
L 454.850261 84.854269 
L 455.405952 85.157561 
L 455.961643 87.329148 
L 456.517335 90.14613 
L 457.073026 92.151088 
L 457.628717 92.425522 
L 458.184409 91.009678 
L 458.7401 88.820842 
L 459.295792 87.119176 
L 459.851483 86.818316 
L 460.407174 88.019545 
L 461.518557 91.669005 
L 462.074248 92.185033 
L 462.62994 91.396008 
L 463.741323 88.577147 
L 464.297014 88.23416 
L 464.852705 88.999302 
L 465.964088 91.565069 
L 466.51978 91.935478 
L 467.075471 91.358746 
L 468.186854 89.347707 
L 468.742545 89.14072 
L 469.298236 89.707942 
L 469.853928 90.643361 
L 470.409619 91.351117 
L 470.965311 91.422103 
L 471.521002 90.878985 
L 472.076693 90.104777 
L 472.632385 89.590849 
L 473.188076 89.623246 
L 474.85515 90.987343 
L 475.410842 90.794399 
L 476.522224 89.786557 
L 477.077916 89.651884 
L 477.633607 89.916698 
L 478.189299 90.357649 
L 478.74499 90.653202 
L 479.300681 90.603446 
L 480.967756 89.653763 
L 481.523447 89.766434 
L 482.63483 90.374456 
L 483.190521 90.456167 
L 483.746212 90.279477 
L 484.857595 89.780918 
L 485.413287 89.793081 
L 487.080361 90.266429 
L 489.303126 89.973973 
L 490.414509 90.195333 
L 491.525892 90.098032 
L 492.637275 89.934942 
L 493.748657 90.133525 
L 494.304349 90.253714 
L 494.86004 90.2588 
L 496.527114 89.949426 
L 499.305571 90.104556 
L 500.972645 90.098474 
L 502.639719 90.048386 
L 503.751102 89.975079 
L 504.862485 90.092614 
L 505.973868 90.174546 
L 508.196633 89.970103 
L 510.419399 90.067625 
L 512.086473 90.108757 
L 514.309238 90.004158 
L 517.087695 90.15387 
L 519.310461 90.053804 
L 523.200301 90.159398 
L 524.867375 90.056015 
L 528.757214 90.158845 
L 530.424289 90.065524 
L 534.86982 90.084764 
L 536.536894 90.093167 
L 545.427956 90.121473 
L 547.09503 90.060881 
L 550.98487 90.130871 
L 552.651944 90.059554 
L 555.986092 90.165148 
L 558.208858 90.07039 
L 561.543006 90.164153 
L 563.765772 90.068731 
L 567.655611 90.112627 
L 568.766994 90.040093 
L 570.434068 90.08211 
L 571.545451 90.095821 
L 572.656834 90.177753 
L 574.323908 90.043411 
L 575.990982 90.088081 
L 577.102365 90.099359 
L 578.213747 90.178527 
L 579.880822 90.044848 
L 581.547896 90.089629 
L 582.659279 90.099801 
L 583.770661 90.174104 
L 585.437735 90.047833 
L 586.549118 90.129323 
L 588.216192 90.095599 
L 589.327575 90.172224 
L 590.438958 90.025719 
L 592.661723 90.071053 
L 593.217415 90.017095 
L 594.884489 90.177531 
L 595.995872 90.017206 
L 598.218637 90.056237 
L 598.774329 90.011235 
L 600.441403 90.179301 
L 601.552786 90.017537 
L 603.775551 90.039541 
L 604.331242 90.005596 
L 605.442625 90.233148 
L 606.554008 90.068952 
L 607.109699 89.998519 
L 608.776774 90.12092 
L 609.888156 90.015989 
L 610.999539 90.193453 
L 615.44507 89.976626 
L 616.556453 90.217558 
L 618.779218 90.047833 
L 619.890601 90.029036 
L 621.001984 89.973531 
L 622.113367 90.241994 
L 623.780441 89.970877 
L 624.891824 90.105993 
L 626.003206 89.935716 
L 626.558898 89.980054 
L 627.114589 90.186156 
L 627.670281 90.260901 
L 628.781663 89.968113 
L 631.004429 89.994539 
L 631.56012 89.92676 
L 632.115812 90.003937 
L 632.671503 90.218332 
L 633.227194 90.263997 
L 634.338577 89.963026 
L 636.005651 90.103782 
L 637.117034 89.918356 
L 638.784108 90.260901 
L 639.895491 89.972093 
L 641.006874 90.156523 
L 642.673948 89.93461 
L 644.341022 90.242657 
L 645.452405 89.989784 
L 646.563788 90.15586 
L 648.230862 89.963911 
L 649.897936 90.226293 
L 651.009319 90.033349 
L 652.120701 90.110305 
L 653.232084 89.941576 
L 654.343467 90.0977 
L 654.899158 90.239229 
L 655.45485 90.230937 
L 656.566232 89.994318 
L 657.677615 90.188146 
L 659.344689 89.938038 
L 660.456072 90.268641 
L 662.123146 90.038656 
L 663.234529 90.120809 
L 664.345912 89.896242 
L 665.457295 90.069284 
L 666.012986 90.955057 
L 666.568677 90.313864 
L 667.124369 89.275284 
L 667.68006 89.547727 
L 668.235752 90.766425 
L 668.791443 90.977945 
L 669.347134 89.913602 
L 669.902826 89.334438 
L 671.014208 90.468772 
L 671.5699 90.634847 
L 672.125591 90.038656 
L 672.681283 89.772626 
L 673.792665 90.597143 
L 674.904048 89.61429 
L 675.459739 89.75803 
L 676.015431 90.299379 
L 676.571122 90.383523 
L 677.126814 90.12092 
L 677.682505 90.002942 
L 678.793888 90.307893 
L 679.905271 89.822492 
L 680.460962 89.917803 
L 681.016653 90.172003 
L 681.572345 90.19279 
L 682.128036 89.987794 
L 682.683727 90.052256 
L 683.239419 90.24122 
L 683.79511 90.215567 
L 684.350802 90.008913 
L 684.906493 89.947436 
L 686.017876 90.162936 
L 687.129259 89.916808 
L 687.68495 89.990337 
L 688.240641 90.25869 
L 688.796333 90.274722 
L 689.352024 90.055794 
L 689.907715 89.984035 
L 691.019098 90.198761 
L 692.130481 89.891598 
L 693.797555 90.256146 
L 694.908938 90.0569 
L 696.020321 90.158292 
L 697.687395 89.98702 
L 698.798778 90.10743 
L 699.91016 90.169349 
L 701.577234 90.079788 
L 703.8 90.036002 
L 703.8 90.036002 
" clip-path="url(#pc267516232)" style="fill: none; stroke: #000000; stroke-width: 2; stroke-linecap: round"/>
   </g>
   <g id="patch_8">
    <path d="M 426.51 156.809625 
L 426.51 40.9 
" style="fill: none; stroke: #262626; stroke-width: 1.5; stroke-linejoin: miter; stroke-linecap: square"/>
   </g>
   <g id="patch_9">
    <path d="M 703.8 156.809625 
L 703.8 40.9 
" style="fill: none; stroke: #262626; stroke-width: 1.5; stroke-linejoin: miter; stroke-linecap: square"/>
   </g>
   <g id="patch_10">
    <path d="M 426.51 156.809625 
L 703.8 156.809625 
" style="fill: none; stroke: #262626; stroke-width: 1.5; stroke-linejoin: miter; stroke-linecap: square"/>
   </g>
   <g id="patch_11">
    <path d="M 426.51 40.9 
L 703.8 40.9 
" style="fill: none; stroke: #262626; stroke-width: 1.5; stroke-linejoin: miter; stroke-linecap: square"/>
   </g>
   <g id="text_18">
    <!-- b) -->
    <g style="fill: #262626" transform="translate(426.51 30.9) scale(0.2 -0.2)">
     <defs>
      <path id="ArialMT-62" d="M 941 0 
L 419 0 
L 419 4581 
L 981 4581 
L 981 2947 
Q 1338 3394 1891 3394 
Q 2197 3394 2470 3270 
Q 2744 3147 2920 2923 
Q 3097 2700 3197 2384 
Q 3297 2069 3297 1709 
Q 3297 856 2875 390 
Q 2453 -75 1863 -75 
Q 1275 -75 941 416 
L 941 0 
z
M 934 1684 
Q 934 1088 1097 822 
Q 1363 388 1816 388 
Q 2184 388 2453 708 
Q 2722 1028 2722 1663 
Q 2722 2313 2464 2622 
Q 2206 2931 1841 2931 
Q 1472 2931 1203 2611 
Q 934 2291 934 1684 
z
" transform="scale(0.015625)"/>
     </defs>
     <use xlink:href="#ArialMT-62"/>
     <use xlink:href="#ArialMT-29" transform="translate(55.615234 0)"/>
    </g>
   </g>
  </g>
  <g id="axes_3">
   <g id="patch_12">
    <path d="M 73.38 349.714813 
L 350.67 349.714813 
L 350.67 233.805188 
L 73.38 233.805188 
z
" style="fill: #ffffff"/>
   </g>
   <g id="matplotlib.axis_5">
    <g id="xtick_11">
     <g id="line2d_31">
      <g>
       <use xlink:href="#mebf00d7bd6" x="73.38" y="349.714813" style="fill: #262626; stroke: #262626; stroke-width: 0.8"/>
      </g>
     </g>
     <g id="line2d_32">
      <g>
       <use xlink:href="#m8495e850bd" x="73.38" y="233.805188" style="fill: #262626; stroke: #262626; stroke-width: 0.8"/>
      </g>
     </g>
     <g id="text_19">
      <!-- 0 -->
      <g style="fill: #262626" transform="translate(69.209297 363.951531) scale(0.15 -0.15)">
       <use xlink:href="#ArialMT-30"/>
      </g>
     </g>
    </g>
    <g id="xtick_12">
     <g id="line2d_33">
      <g>
       <use xlink:href="#mebf00d7bd6" x="128.949138" y="349.714813" style="fill: #262626; stroke: #262626; stroke-width: 0.8"/>
      </g>
     </g>
     <g id="line2d_34">
      <g>
       <use xlink:href="#m8495e850bd" x="128.949138" y="233.805188" style="fill: #262626; stroke: #262626; stroke-width: 0.8"/>
      </g>
     </g>
     <g id="text_20">
      <!-- 100 -->
      <g style="fill: #262626" transform="translate(116.437029 363.951531) scale(0.15 -0.15)">
       <use xlink:href="#ArialMT-31"/>
       <use xlink:href="#ArialMT-30" transform="translate(55.615234 0)"/>
       <use xlink:href="#ArialMT-30" transform="translate(111.230469 0)"/>
      </g>
     </g>
    </g>
    <g id="xtick_13">
     <g id="line2d_35">
      <g>
       <use xlink:href="#mebf00d7bd6" x="184.518277" y="349.714813" style="fill: #262626; stroke: #262626; stroke-width: 0.8"/>
      </g>
     </g>
     <g id="line2d_36">
      <g>
       <use xlink:href="#m8495e850bd" x="184.518277" y="233.805188" style="fill: #262626; stroke: #262626; stroke-width: 0.8"/>
      </g>
     </g>
     <g id="text_21">
      <!-- 200 -->
      <g style="fill: #262626" transform="translate(172.006167 363.951531) scale(0.15 -0.15)">
       <use xlink:href="#ArialMT-32"/>
       <use xlink:href="#ArialMT-30" transform="translate(55.615234 0)"/>
       <use xlink:href="#ArialMT-30" transform="translate(111.230469 0)"/>
      </g>
     </g>
    </g>
    <g id="xtick_14">
     <g id="line2d_37">
      <g>
       <use xlink:href="#mebf00d7bd6" x="240.087415" y="349.714813" style="fill: #262626; stroke: #262626; stroke-width: 0.8"/>
      </g>
     </g>
     <g id="line2d_38">
      <g>
       <use xlink:href="#m8495e850bd" x="240.087415" y="233.805188" style="fill: #262626; stroke: #262626; stroke-width: 0.8"/>
      </g>
     </g>
     <g id="text_22">
      <!-- 300 -->
      <g style="fill: #262626" transform="translate(227.575305 363.951531) scale(0.15 -0.15)">
       <use xlink:href="#ArialMT-33"/>
       <use xlink:href="#ArialMT-30" transform="translate(55.615234 0)"/>
       <use xlink:href="#ArialMT-30" transform="translate(111.230469 0)"/>
      </g>
     </g>
    </g>
    <g id="xtick_15">
     <g id="line2d_39">
      <g>
       <use xlink:href="#mebf00d7bd6" x="295.656553" y="349.714813" style="fill: #262626; stroke: #262626; stroke-width: 0.8"/>
      </g>
     </g>
     <g id="line2d_40">
      <g>
       <use xlink:href="#m8495e850bd" x="295.656553" y="233.805188" style="fill: #262626; stroke: #262626; stroke-width: 0.8"/>
      </g>
     </g>
     <g id="text_23">
      <!-- 400 -->
      <g style="fill: #262626" transform="translate(283.144444 363.951531) scale(0.15 -0.15)">
       <use xlink:href="#ArialMT-34"/>
       <use xlink:href="#ArialMT-30" transform="translate(55.615234 0)"/>
       <use xlink:href="#ArialMT-30" transform="translate(111.230469 0)"/>
      </g>
     </g>
    </g>
   </g>
   <g id="matplotlib.axis_6">
    <g id="ytick_5">
     <g id="line2d_41">
      <g>
       <use xlink:href="#m968b0f8674" x="73.38" y="307.337149" style="fill: #262626; stroke: #262626; stroke-width: 0.8"/>
      </g>
     </g>
     <g id="line2d_42">
      <g>
       <use xlink:href="#m732c64a0f5" x="350.67" y="307.337149" style="fill: #262626; stroke: #262626; stroke-width: 0.8"/>
      </g>
     </g>
     <g id="text_24">
      <!-- 1.0 -->
      <g style="fill: #262626" transform="translate(49.03 312.705508) scale(0.15 -0.15)">
       <use xlink:href="#ArialMT-31"/>
       <use xlink:href="#ArialMT-2e" transform="translate(55.615234 0)"/>
       <use xlink:href="#ArialMT-30" transform="translate(83.398438 0)"/>
      </g>
     </g>
    </g>
    <g id="ytick_6">
     <g id="line2d_43">
      <g>
       <use xlink:href="#m968b0f8674" x="73.38" y="244.845159" style="fill: #262626; stroke: #262626; stroke-width: 0.8"/>
      </g>
     </g>
     <g id="line2d_44">
      <g>
       <use xlink:href="#m732c64a0f5" x="350.67" y="244.845159" style="fill: #262626; stroke: #262626; stroke-width: 0.8"/>
      </g>
     </g>
     <g id="text_25">
      <!-- 1.2 -->
      <g style="fill: #262626" transform="translate(49.03 250.213518) scale(0.15 -0.15)">
       <use xlink:href="#ArialMT-31"/>
       <use xlink:href="#ArialMT-2e" transform="translate(55.615234 0)"/>
       <use xlink:href="#ArialMT-32" transform="translate(83.398438 0)"/>
      </g>
     </g>
    </g>
    <g id="text_26">
     <!-- $\hat{\sigma}$ -->
     <g style="fill: #262626" transform="translate(42.04875 296.56) rotate(-90) scale(0.15 -0.15)">
      <defs>
       <path id="DejaVuSans-Oblique-3c3" d="M 2219 3044 
Q 1744 3044 1422 2700 
Q 1081 2341 969 1747 
Q 844 1119 1044 756 
Q 1241 397 1706 397 
Q 2166 397 2503 759 
Q 2844 1122 2966 1747 
Q 3075 2319 2881 2700 
Q 2700 3044 2219 3044 
z
M 2309 3503 
L 4219 3500 
L 4106 2925 
L 3463 2925 
Q 3706 2438 3575 1747 
Q 3406 888 2884 400 
Q 2359 -91 1609 -91 
Q 856 -91 525 400 
Q 194 888 363 1747 
Q 528 2609 1050 3097 
Q 1484 3503 2309 3503 
z
" transform="scale(0.015625)"/>
      </defs>
      <use xlink:href="#DejaVuSans-302" transform="translate(64.422852 12.015625)"/>
      <use xlink:href="#DejaVuSans-Oblique-3c3" transform="translate(0 0.78125)"/>
     </g>
    </g>
   </g>
   <g id="line2d_45">
    <path d="M 73.38 344.446193 
L 75.047074 335.059739 
L 75.602766 333.718825 
L 76.714148 329.977921 
L 78.381222 322.919997 
L 80.603988 312.243472 
L 87.272285 279.620518 
L 89.49505 270.254066 
L 91.162124 264.314368 
L 92.273507 260.957157 
L 93.38489 258.103764 
L 94.496273 255.773521 
L 95.607655 253.968551 
L 96.719038 252.660434 
L 97.830421 251.814082 
L 98.941804 251.391316 
L 100.053186 251.348779 
L 101.164569 251.622664 
L 102.275952 252.133522 
L 103.943026 253.214388 
L 106.721483 255.45382 
L 108.944248 257.156619 
L 110.611323 258.206457 
L 112.278397 258.996713 
L 113.945471 259.493455 
L 115.612545 259.713479 
L 117.279619 259.700033 
L 118.946693 259.500271 
L 121.72515 258.878823 
L 127.282064 257.573798 
L 130.060521 257.181016 
L 133.394669 256.919497 
L 145.064188 256.401823 
L 151.176794 255.847012 
L 162.846313 254.942441 
L 176.182906 254.126893 
L 185.073968 253.476057 
L 206.745932 252.083684 
L 260.092305 248.964675 
L 271.761824 247.921318 
L 281.208577 247.094148 
L 287.876874 246.424874 
L 308.437455 244.100367 
L 312.882986 243.48812 
L 316.217134 243.234497 
L 325.108196 242.05984 
L 327.886653 241.612528 
L 350.67 239.073807 
L 350.67 239.073807 
" clip-path="url(#p001225c885)" style="fill: none; stroke: #000000; stroke-width: 2; stroke-linecap: round"/>
   </g>
   <g id="patch_13">
    <path d="M 73.38 349.714812 
L 73.38 233.805187 
" style="fill: none; stroke: #262626; stroke-width: 1.5; stroke-linejoin: miter; stroke-linecap: square"/>
   </g>
   <g id="patch_14">
    <path d="M 350.67 349.714812 
L 350.67 233.805187 
" style="fill: none; stroke: #262626; stroke-width: 1.5; stroke-linejoin: miter; stroke-linecap: square"/>
   </g>
   <g id="patch_15">
    <path d="M 73.38 349.714813 
L 350.67 349.714813 
" style="fill: none; stroke: #262626; stroke-width: 1.5; stroke-linejoin: miter; stroke-linecap: square"/>
   </g>
   <g id="patch_16">
    <path d="M 73.38 233.805188 
L 350.67 233.805188 
" style="fill: none; stroke: #262626; stroke-width: 1.5; stroke-linejoin: miter; stroke-linecap: square"/>
   </g>
   <g id="text_27">
    <!-- c) -->
    <g style="fill: #262626" transform="translate(73.38 223.805188) scale(0.2 -0.2)">
     <defs>
      <path id="ArialMT-63" d="M 2588 1216 
L 3141 1144 
Q 3050 572 2676 248 
Q 2303 -75 1759 -75 
Q 1078 -75 664 370 
Q 250 816 250 1647 
Q 250 2184 428 2587 
Q 606 2991 970 3192 
Q 1334 3394 1763 3394 
Q 2303 3394 2647 3120 
Q 2991 2847 3088 2344 
L 2541 2259 
Q 2463 2594 2264 2762 
Q 2066 2931 1784 2931 
Q 1359 2931 1093 2626 
Q 828 2322 828 1663 
Q 828 994 1084 691 
Q 1341 388 1753 388 
Q 2084 388 2306 591 
Q 2528 794 2588 1216 
z
" transform="scale(0.015625)"/>
     </defs>
     <use xlink:href="#ArialMT-63"/>
     <use xlink:href="#ArialMT-29" transform="translate(50 0)"/>
    </g>
   </g>
  </g>
  <g id="axes_4">
   <g id="patch_17">
    <path d="M 426.51 349.714813 
L 703.8 349.714813 
L 703.8 233.805188 
L 426.51 233.805188 
z
" style="fill: #ffffff"/>
   </g>
   <g id="matplotlib.axis_7">
    <g id="xtick_16">
     <g id="line2d_46">
      <g>
       <use xlink:href="#mebf00d7bd6" x="426.51" y="349.714813" style="fill: #262626; stroke: #262626; stroke-width: 0.8"/>
      </g>
     </g>
     <g id="line2d_47">
      <g>
       <use xlink:href="#m8495e850bd" x="426.51" y="233.805188" style="fill: #262626; stroke: #262626; stroke-width: 0.8"/>
      </g>
     </g>
     <g id="text_28">
      <!-- 0 -->
      <g style="fill: #262626" transform="translate(422.339297 363.951531) scale(0.15 -0.15)">
       <use xlink:href="#ArialMT-30"/>
      </g>
     </g>
    </g>
    <g id="xtick_17">
     <g id="line2d_48">
      <g>
       <use xlink:href="#mebf00d7bd6" x="482.079138" y="349.714813" style="fill: #262626; stroke: #262626; stroke-width: 0.8"/>
      </g>
     </g>
     <g id="line2d_49">
      <g>
       <use xlink:href="#m8495e850bd" x="482.079138" y="233.805188" style="fill: #262626; stroke: #262626; stroke-width: 0.8"/>
      </g>
     </g>
     <g id="text_29">
      <!-- 100 -->
      <g style="fill: #262626" transform="translate(469.567029 363.951531) scale(0.15 -0.15)">
       <use xlink:href="#ArialMT-31"/>
       <use xlink:href="#ArialMT-30" transform="translate(55.615234 0)"/>
       <use xlink:href="#ArialMT-30" transform="translate(111.230469 0)"/>
      </g>
     </g>
    </g>
    <g id="xtick_18">
     <g id="line2d_50">
      <g>
       <use xlink:href="#mebf00d7bd6" x="537.648277" y="349.714813" style="fill: #262626; stroke: #262626; stroke-width: 0.8"/>
      </g>
     </g>
     <g id="line2d_51">
      <g>
       <use xlink:href="#m8495e850bd" x="537.648277" y="233.805188" style="fill: #262626; stroke: #262626; stroke-width: 0.8"/>
      </g>
     </g>
     <g id="text_30">
      <!-- 200 -->
      <g style="fill: #262626" transform="translate(525.136167 363.951531) scale(0.15 -0.15)">
       <use xlink:href="#ArialMT-32"/>
       <use xlink:href="#ArialMT-30" transform="translate(55.615234 0)"/>
       <use xlink:href="#ArialMT-30" transform="translate(111.230469 0)"/>
      </g>
     </g>
    </g>
    <g id="xtick_19">
     <g id="line2d_52">
      <g>
       <use xlink:href="#mebf00d7bd6" x="593.217415" y="349.714813" style="fill: #262626; stroke: #262626; stroke-width: 0.8"/>
      </g>
     </g>
     <g id="line2d_53">
      <g>
       <use xlink:href="#m8495e850bd" x="593.217415" y="233.805188" style="fill: #262626; stroke: #262626; stroke-width: 0.8"/>
      </g>
     </g>
     <g id="text_31">
      <!-- 300 -->
      <g style="fill: #262626" transform="translate(580.705305 363.951531) scale(0.15 -0.15)">
       <use xlink:href="#ArialMT-33"/>
       <use xlink:href="#ArialMT-30" transform="translate(55.615234 0)"/>
       <use xlink:href="#ArialMT-30" transform="translate(111.230469 0)"/>
      </g>
     </g>
    </g>
    <g id="xtick_20">
     <g id="line2d_54">
      <g>
       <use xlink:href="#mebf00d7bd6" x="648.786553" y="349.714813" style="fill: #262626; stroke: #262626; stroke-width: 0.8"/>
      </g>
     </g>
     <g id="line2d_55">
      <g>
       <use xlink:href="#m8495e850bd" x="648.786553" y="233.805188" style="fill: #262626; stroke: #262626; stroke-width: 0.8"/>
      </g>
     </g>
     <g id="text_32">
      <!-- 400 -->
      <g style="fill: #262626" transform="translate(636.274444 363.951531) scale(0.15 -0.15)">
       <use xlink:href="#ArialMT-34"/>
       <use xlink:href="#ArialMT-30" transform="translate(55.615234 0)"/>
       <use xlink:href="#ArialMT-30" transform="translate(111.230469 0)"/>
      </g>
     </g>
    </g>
   </g>
   <g id="matplotlib.axis_8">
    <g id="ytick_7">
     <g id="line2d_56">
      <g>
       <use xlink:href="#m968b0f8674" x="426.51" y="344.448239" style="fill: #262626; stroke: #262626; stroke-width: 0.8"/>
      </g>
     </g>
     <g id="line2d_57">
      <g>
       <use xlink:href="#m732c64a0f5" x="703.8" y="344.448239" style="fill: #262626; stroke: #262626; stroke-width: 0.8"/>
      </g>
     </g>
     <g id="text_33">
      <!-- $\mathdefault{0}$ -->
      <g style="fill: #262626" transform="translate(414.61 349.816598) scale(0.15 -0.15)">
       <use xlink:href="#ArialMT-30" transform="translate(0 0.125)"/>
      </g>
     </g>
    </g>
    <g id="ytick_8">
     <g id="line2d_58">
      <g>
       <use xlink:href="#m968b0f8674" x="426.51" y="303.541368" style="fill: #262626; stroke: #262626; stroke-width: 0.8"/>
      </g>
     </g>
     <g id="line2d_59">
      <g>
       <use xlink:href="#m732c64a0f5" x="703.8" y="303.541368" style="fill: #262626; stroke: #262626; stroke-width: 0.8"/>
      </g>
     </g>
     <g id="text_34">
      <!-- $\mathdefault{2}$ -->
      <g style="fill: #262626" transform="translate(414.61 308.909728) scale(0.15 -0.15)">
       <use xlink:href="#ArialMT-32" transform="translate(0 0.125)"/>
      </g>
     </g>
    </g>
    <g id="ytick_9">
     <g id="line2d_60">
      <g>
       <use xlink:href="#m968b0f8674" x="426.51" y="262.634498" style="fill: #262626; stroke: #262626; stroke-width: 0.8"/>
      </g>
     </g>
     <g id="line2d_61">
      <g>
       <use xlink:href="#m732c64a0f5" x="703.8" y="262.634498" style="fill: #262626; stroke: #262626; stroke-width: 0.8"/>
      </g>
     </g>
     <g id="text_35">
      <!-- $\mathdefault{4}$ -->
      <g style="fill: #262626" transform="translate(414.61 268.002857) scale(0.15 -0.15)">
       <use xlink:href="#ArialMT-34" transform="translate(0 0.421875)"/>
      </g>
     </g>
    </g>
    <g id="text_36">
     <!-- $\hat{z}_{0m}$ (m) -->
     <g style="fill: #262626" transform="translate(407.31 317.785) rotate(-90) scale(0.15 -0.15)">
      <defs>
       <path id="DejaVuSans-Oblique-7a" d="M 744 3500 
L 3475 3500 
L 3372 2975 
L 738 459 
L 2913 459 
L 2822 0 
L -19 0 
L 84 525 
L 2719 3041 
L 653 3041 
L 744 3500 
z
" transform="scale(0.015625)"/>
       <path id="DejaVuSans-30" d="M 2034 4250 
Q 1547 4250 1301 3770 
Q 1056 3291 1056 2328 
Q 1056 1369 1301 889 
Q 1547 409 2034 409 
Q 2525 409 2770 889 
Q 3016 1369 3016 2328 
Q 3016 3291 2770 3770 
Q 2525 4250 2034 4250 
z
M 2034 4750 
Q 2819 4750 3233 4129 
Q 3647 3509 3647 2328 
Q 3647 1150 3233 529 
Q 2819 -91 2034 -91 
Q 1250 -91 836 529 
Q 422 1150 422 2328 
Q 422 3509 836 4129 
Q 1250 4750 2034 4750 
z
" transform="scale(0.015625)"/>
       <path id="DejaVuSans-Oblique-6d" d="M 5747 2113 
L 5338 0 
L 4763 0 
L 5166 2094 
Q 5191 2228 5203 2325 
Q 5216 2422 5216 2491 
Q 5216 2772 5059 2928 
Q 4903 3084 4622 3084 
Q 4203 3084 3875 2770 
Q 3547 2456 3450 1953 
L 3066 0 
L 2491 0 
L 2900 2094 
Q 2925 2209 2937 2307 
Q 2950 2406 2950 2484 
Q 2950 2769 2794 2926 
Q 2638 3084 2363 3084 
Q 1938 3084 1609 2770 
Q 1281 2456 1184 1953 
L 800 0 
L 225 0 
L 909 3500 
L 1484 3500 
L 1375 2956 
Q 1609 3263 1923 3423 
Q 2238 3584 2597 3584 
Q 2978 3584 3223 3384 
Q 3469 3184 3519 2828 
Q 3781 3197 4126 3390 
Q 4472 3584 4856 3584 
Q 5306 3584 5551 3325 
Q 5797 3066 5797 2591 
Q 5797 2488 5784 2364 
Q 5772 2241 5747 2113 
z
" transform="scale(0.015625)"/>
       <path id="ArialMT-28" d="M 1497 -1347 
Q 1031 -759 709 28 
Q 388 816 388 1659 
Q 388 2403 628 3084 
Q 909 3875 1497 4659 
L 1900 4659 
Q 1522 4009 1400 3731 
Q 1209 3300 1100 2831 
Q 966 2247 966 1656 
Q 966 153 1900 -1347 
L 1497 -1347 
z
" transform="scale(0.015625)"/>
       <path id="ArialMT-6d" d="M 422 0 
L 422 3319 
L 925 3319 
L 925 2853 
Q 1081 3097 1340 3245 
Q 1600 3394 1931 3394 
Q 2300 3394 2536 3241 
Q 2772 3088 2869 2813 
Q 3263 3394 3894 3394 
Q 4388 3394 4653 3120 
Q 4919 2847 4919 2278 
L 4919 0 
L 4359 0 
L 4359 2091 
Q 4359 2428 4304 2576 
Q 4250 2725 4106 2815 
Q 3963 2906 3769 2906 
Q 3419 2906 3187 2673 
Q 2956 2441 2956 1928 
L 2956 0 
L 2394 0 
L 2394 2156 
Q 2394 2531 2256 2718 
Q 2119 2906 1806 2906 
Q 1569 2906 1367 2781 
Q 1166 2656 1075 2415 
Q 984 2175 984 1722 
L 984 0 
L 422 0 
z
" transform="scale(0.015625)"/>
      </defs>
      <use xlink:href="#DejaVuSans-302" transform="translate(57.700684 12.015625)"/>
      <use xlink:href="#DejaVuSans-Oblique-7a" transform="translate(0 0.828125)"/>
      <use xlink:href="#DejaVuSans-30" transform="translate(53.447266 -15.578125) scale(0.7)"/>
      <use xlink:href="#DejaVuSans-Oblique-6d" transform="translate(97.983398 -15.578125) scale(0.7)"/>
      <use xlink:href="#ArialMT-20" transform="translate(168.90625 0.828125)"/>
      <use xlink:href="#ArialMT-28" transform="translate(196.689453 0.828125)"/>
      <use xlink:href="#ArialMT-6d" transform="translate(229.990234 0.828125)"/>
      <use xlink:href="#ArialMT-29" transform="translate(313.291016 0.828125)"/>
     </g>
    </g>
    <g id="text_37">
     <!-- $\times\mathdefault{10^{−2}}\mathdefault{}$ -->
     <g style="fill: #262626" transform="translate(384.9165 230.805188) scale(0.15 -0.15)">
      <defs>
       <path id="DejaVuSans-d7" d="M 4488 3438 
L 3059 2003 
L 4488 575 
L 4116 197 
L 2681 1631 
L 1247 197 
L 878 575 
L 2303 2003 
L 878 3438 
L 1247 3816 
L 2681 2381 
L 4116 3816 
L 4488 3438 
z
" transform="scale(0.015625)"/>
       <path id="ArialMT-2212" d="M 3381 1997 
L 356 1997 
L 356 2522 
L 3381 2522 
L 3381 1997 
z
" transform="scale(0.015625)"/>
      </defs>
      <use xlink:href="#DejaVuSans-d7" transform="translate(0 0.99375)"/>
      <use xlink:href="#ArialMT-31" transform="translate(83.789062 0.99375)"/>
      <use xlink:href="#ArialMT-30" transform="translate(139.404297 0.99375)"/>
      <use xlink:href="#ArialMT-2212" transform="translate(196.761875 70.6875) scale(0.7)"/>
      <use xlink:href="#ArialMT-32" transform="translate(237.640781 70.6875) scale(0.7)"/>
     </g>
    </g>
   </g>
   <g id="line2d_62">
    <path d="M 426.51 300.611028 
L 427.621383 337.900535 
L 428.177074 344.446193 
L 429.288457 323.68241 
L 430.39984 307.892529 
L 431.511222 295.465196 
L 432.622605 285.491311 
L 433.733988 277.389003 
L 434.845371 270.755201 
L 435.956754 265.295503 
L 437.068136 260.786611 
L 438.179519 257.05452 
L 439.290902 253.961011 
L 440.402285 251.39468 
L 441.513667 249.26484 
L 442.62505 247.497086 
L 443.736433 246.030058 
L 445.403507 244.284782 
L 447.070581 242.967576 
L 448.737655 241.974931 
L 450.404729 241.228113 
L 452.627495 240.513351 
L 454.850261 240.02712 
L 457.628717 239.633878 
L 461.518557 239.327544 
L 467.075471 239.141994 
L 477.077916 239.073845 
L 509.863707 239.18096 
L 628.225972 239.7926 
L 703.8 240.365243 
L 703.8 240.365243 
" clip-path="url(#pf421420c82)" style="fill: none; stroke: #000000; stroke-width: 2; stroke-linecap: round"/>
   </g>
   <g id="patch_18">
    <path d="M 426.51 349.714813 
L 426.51 233.805188 
" style="fill: none; stroke: #262626; stroke-width: 1.5; stroke-linejoin: miter; stroke-linecap: square"/>
   </g>
   <g id="patch_19">
    <path d="M 703.8 349.714813 
L 703.8 233.805188 
" style="fill: none; stroke: #262626; stroke-width: 1.5; stroke-linejoin: miter; stroke-linecap: square"/>
   </g>
   <g id="patch_20">
    <path d="M 426.51 349.714813 
L 703.8 349.714813 
" style="fill: none; stroke: #262626; stroke-width: 1.5; stroke-linejoin: miter; stroke-linecap: square"/>
   </g>
   <g id="patch_21">
    <path d="M 426.51 233.805188 
L 703.8 233.805188 
" style="fill: none; stroke: #262626; stroke-width: 1.5; stroke-linejoin: miter; stroke-linecap: square"/>
   </g>
   <g id="text_38">
    <!-- d) -->
    <g style="fill: #262626" transform="translate(426.51 205.336438) scale(0.2 -0.2)">
     <defs>
      <path id="ArialMT-64" d="M 2575 0 
L 2575 419 
Q 2259 -75 1647 -75 
Q 1250 -75 917 144 
Q 584 363 401 755 
Q 219 1147 219 1656 
Q 219 2153 384 2558 
Q 550 2963 881 3178 
Q 1213 3394 1622 3394 
Q 1922 3394 2156 3267 
Q 2391 3141 2538 2938 
L 2538 4581 
L 3097 4581 
L 3097 0 
L 2575 0 
z
M 797 1656 
Q 797 1019 1065 703 
Q 1334 388 1700 388 
Q 2069 388 2326 689 
Q 2584 991 2584 1609 
Q 2584 2291 2321 2609 
Q 2059 2928 1675 2928 
Q 1300 2928 1048 2622 
Q 797 2316 797 1656 
z
" transform="scale(0.015625)"/>
     </defs>
     <use xlink:href="#ArialMT-64"/>
     <use xlink:href="#ArialMT-29" transform="translate(55.615234 0)"/>
    </g>
   </g>
  </g>
  <g id="axes_5">
   <g id="patch_22">
    <path d="M 73.38 542.62 
L 350.67 542.62 
L 350.67 426.710375 
L 73.38 426.710375 
z
" style="fill: #ffffff"/>
   </g>
   <g id="matplotlib.axis_9">
    <g id="xtick_21">
     <g id="line2d_63">
      <g>
       <use xlink:href="#mebf00d7bd6" x="73.38" y="542.62" style="fill: #262626; stroke: #262626; stroke-width: 0.8"/>
      </g>
     </g>
     <g id="line2d_64">
      <g>
       <use xlink:href="#m8495e850bd" x="73.38" y="426.710375" style="fill: #262626; stroke: #262626; stroke-width: 0.8"/>
      </g>
     </g>
     <g id="text_39">
      <!-- 0 -->
      <g style="fill: #262626" transform="translate(69.209297 556.856719) scale(0.15 -0.15)">
       <use xlink:href="#ArialMT-30"/>
      </g>
     </g>
    </g>
    <g id="xtick_22">
     <g id="line2d_65">
      <g>
       <use xlink:href="#mebf00d7bd6" x="128.949138" y="542.62" style="fill: #262626; stroke: #262626; stroke-width: 0.8"/>
      </g>
     </g>
     <g id="line2d_66">
      <g>
       <use xlink:href="#m8495e850bd" x="128.949138" y="426.710375" style="fill: #262626; stroke: #262626; stroke-width: 0.8"/>
      </g>
     </g>
     <g id="text_40">
      <!-- 100 -->
      <g style="fill: #262626" transform="translate(116.437029 556.856719) scale(0.15 -0.15)">
       <use xlink:href="#ArialMT-31"/>
       <use xlink:href="#ArialMT-30" transform="translate(55.615234 0)"/>
       <use xlink:href="#ArialMT-30" transform="translate(111.230469 0)"/>
      </g>
     </g>
    </g>
    <g id="xtick_23">
     <g id="line2d_67">
      <g>
       <use xlink:href="#mebf00d7bd6" x="184.518277" y="542.62" style="fill: #262626; stroke: #262626; stroke-width: 0.8"/>
      </g>
     </g>
     <g id="line2d_68">
      <g>
       <use xlink:href="#m8495e850bd" x="184.518277" y="426.710375" style="fill: #262626; stroke: #262626; stroke-width: 0.8"/>
      </g>
     </g>
     <g id="text_41">
      <!-- 200 -->
      <g style="fill: #262626" transform="translate(172.006167 556.856719) scale(0.15 -0.15)">
       <use xlink:href="#ArialMT-32"/>
       <use xlink:href="#ArialMT-30" transform="translate(55.615234 0)"/>
       <use xlink:href="#ArialMT-30" transform="translate(111.230469 0)"/>
      </g>
     </g>
    </g>
    <g id="xtick_24">
     <g id="line2d_69">
      <g>
       <use xlink:href="#mebf00d7bd6" x="240.087415" y="542.62" style="fill: #262626; stroke: #262626; stroke-width: 0.8"/>
      </g>
     </g>
     <g id="line2d_70">
      <g>
       <use xlink:href="#m8495e850bd" x="240.087415" y="426.710375" style="fill: #262626; stroke: #262626; stroke-width: 0.8"/>
      </g>
     </g>
     <g id="text_42">
      <!-- 300 -->
      <g style="fill: #262626" transform="translate(227.575305 556.856719) scale(0.15 -0.15)">
       <use xlink:href="#ArialMT-33"/>
       <use xlink:href="#ArialMT-30" transform="translate(55.615234 0)"/>
       <use xlink:href="#ArialMT-30" transform="translate(111.230469 0)"/>
      </g>
     </g>
    </g>
    <g id="xtick_25">
     <g id="line2d_71">
      <g>
       <use xlink:href="#mebf00d7bd6" x="295.656553" y="542.62" style="fill: #262626; stroke: #262626; stroke-width: 0.8"/>
      </g>
     </g>
     <g id="line2d_72">
      <g>
       <use xlink:href="#m8495e850bd" x="295.656553" y="426.710375" style="fill: #262626; stroke: #262626; stroke-width: 0.8"/>
      </g>
     </g>
     <g id="text_43">
      <!-- 400 -->
      <g style="fill: #262626" transform="translate(283.144444 556.856719) scale(0.15 -0.15)">
       <use xlink:href="#ArialMT-34"/>
       <use xlink:href="#ArialMT-30" transform="translate(55.615234 0)"/>
       <use xlink:href="#ArialMT-30" transform="translate(111.230469 0)"/>
      </g>
     </g>
    </g>
   </g>
   <g id="matplotlib.axis_10">
    <g id="ytick_10">
     <g id="line2d_73">
      <g>
       <use xlink:href="#m968b0f8674" x="73.38" y="521.732867" style="fill: #262626; stroke: #262626; stroke-width: 0.8"/>
      </g>
     </g>
     <g id="line2d_74">
      <g>
       <use xlink:href="#m732c64a0f5" x="350.67" y="521.732867" style="fill: #262626; stroke: #262626; stroke-width: 0.8"/>
      </g>
     </g>
     <g id="text_44">
      <!-- 0.25 -->
      <g style="fill: #262626" transform="translate(40.688594 527.101227) scale(0.15 -0.15)">
       <defs>
        <path id="ArialMT-35" d="M 266 1200 
L 856 1250 
Q 922 819 1161 601 
Q 1400 384 1738 384 
Q 2144 384 2425 690 
Q 2706 997 2706 1503 
Q 2706 1984 2436 2262 
Q 2166 2541 1728 2541 
Q 1456 2541 1237 2417 
Q 1019 2294 894 2097 
L 366 2166 
L 809 4519 
L 3088 4519 
L 3088 3981 
L 1259 3981 
L 1013 2750 
Q 1425 3038 1878 3038 
Q 2478 3038 2890 2622 
Q 3303 2206 3303 1553 
Q 3303 931 2941 478 
Q 2500 -78 1738 -78 
Q 1113 -78 717 272 
Q 322 622 266 1200 
z
" transform="scale(0.015625)"/>
       </defs>
       <use xlink:href="#ArialMT-30"/>
       <use xlink:href="#ArialMT-2e" transform="translate(55.615234 0)"/>
       <use xlink:href="#ArialMT-32" transform="translate(83.398438 0)"/>
       <use xlink:href="#ArialMT-35" transform="translate(139.013672 0)"/>
      </g>
     </g>
    </g>
    <g id="ytick_11">
     <g id="line2d_75">
      <g>
       <use xlink:href="#m968b0f8674" x="73.38" y="486.433187" style="fill: #262626; stroke: #262626; stroke-width: 0.8"/>
      </g>
     </g>
     <g id="line2d_76">
      <g>
       <use xlink:href="#m732c64a0f5" x="350.67" y="486.433187" style="fill: #262626; stroke: #262626; stroke-width: 0.8"/>
      </g>
     </g>
     <g id="text_45">
      <!-- 0.50 -->
      <g style="fill: #262626" transform="translate(40.688594 491.801546) scale(0.15 -0.15)">
       <use xlink:href="#ArialMT-30"/>
       <use xlink:href="#ArialMT-2e" transform="translate(55.615234 0)"/>
       <use xlink:href="#ArialMT-35" transform="translate(83.398438 0)"/>
       <use xlink:href="#ArialMT-30" transform="translate(139.013672 0)"/>
      </g>
     </g>
    </g>
    <g id="ytick_12">
     <g id="line2d_77">
      <g>
       <use xlink:href="#m968b0f8674" x="73.38" y="451.133507" style="fill: #262626; stroke: #262626; stroke-width: 0.8"/>
      </g>
     </g>
     <g id="line2d_78">
      <g>
       <use xlink:href="#m732c64a0f5" x="350.67" y="451.133507" style="fill: #262626; stroke: #262626; stroke-width: 0.8"/>
      </g>
     </g>
     <g id="text_46">
      <!-- 0.75 -->
      <g style="fill: #262626" transform="translate(40.688594 456.501866) scale(0.15 -0.15)">
       <defs>
        <path id="ArialMT-37" d="M 303 3981 
L 303 4522 
L 3269 4522 
L 3269 4084 
Q 2831 3619 2401 2847 
Q 1972 2075 1738 1259 
Q 1569 684 1522 0 
L 944 0 
Q 953 541 1156 1306 
Q 1359 2072 1739 2783 
Q 2119 3494 2547 3981 
L 303 3981 
z
" transform="scale(0.015625)"/>
       </defs>
       <use xlink:href="#ArialMT-30"/>
       <use xlink:href="#ArialMT-2e" transform="translate(55.615234 0)"/>
       <use xlink:href="#ArialMT-37" transform="translate(83.398438 0)"/>
       <use xlink:href="#ArialMT-35" transform="translate(139.013672 0)"/>
      </g>
     </g>
    </g>
    <g id="text_47">
     <!-- $\hat{k}$ (W m$^{-1}$ K$^{-1}$) -->
     <g style="fill: #262626" transform="translate(33.388594 534.690188) rotate(-90) scale(0.15 -0.15)">
      <defs>
       <path id="DejaVuSans-Oblique-6b" d="M 1172 4863 
L 1747 4863 
L 1197 2028 
L 3169 3500 
L 3916 3500 
L 1716 1825 
L 3322 0 
L 2625 0 
L 1131 1709 
L 800 0 
L 225 0 
L 1172 4863 
z
" transform="scale(0.015625)"/>
       <path id="ArialMT-57" d="M 1294 0 
L 78 4581 
L 700 4581 
L 1397 1578 
Q 1509 1106 1591 641 
Q 1766 1375 1797 1488 
L 2669 4581 
L 3400 4581 
L 4056 2263 
Q 4303 1400 4413 641 
Q 4500 1075 4641 1638 
L 5359 4581 
L 5969 4581 
L 4713 0 
L 4128 0 
L 3163 3491 
Q 3041 3928 3019 4028 
Q 2947 3713 2884 3491 
L 1913 0 
L 1294 0 
z
" transform="scale(0.015625)"/>
       <path id="DejaVuSans-2212" d="M 678 2272 
L 4684 2272 
L 4684 1741 
L 678 1741 
L 678 2272 
z
" transform="scale(0.015625)"/>
       <path id="DejaVuSans-31" d="M 794 531 
L 1825 531 
L 1825 4091 
L 703 3866 
L 703 4441 
L 1819 4666 
L 2450 4666 
L 2450 531 
L 3481 531 
L 3481 0 
L 794 0 
L 794 531 
z
" transform="scale(0.015625)"/>
       <path id="ArialMT-4b" d="M 469 0 
L 469 4581 
L 1075 4581 
L 1075 2309 
L 3350 4581 
L 4172 4581 
L 2250 2725 
L 4256 0 
L 3456 0 
L 1825 2319 
L 1075 1588 
L 1075 0 
L 469 0 
z
" transform="scale(0.015625)"/>
      </defs>
      <use xlink:href="#DejaVuSans-302" transform="translate(61.055664 33.015625)"/>
      <use xlink:href="#DejaVuSans-Oblique-6b" transform="translate(0 0.53125)"/>
      <use xlink:href="#ArialMT-20" transform="translate(57.910156 0.53125)"/>
      <use xlink:href="#ArialMT-28" transform="translate(85.693359 0.53125)"/>
      <use xlink:href="#ArialMT-57" transform="translate(118.994141 0.53125)"/>
      <use xlink:href="#ArialMT-20" transform="translate(213.378906 0.53125)"/>
      <use xlink:href="#ArialMT-6d" transform="translate(241.162109 0.53125)"/>
      <use xlink:href="#DejaVuSans-2212" transform="translate(325.419922 38.8125) scale(0.7)"/>
      <use xlink:href="#DejaVuSans-31" transform="translate(384.072266 38.8125) scale(0.7)"/>
      <use xlink:href="#ArialMT-20" transform="translate(431.342773 0.53125)"/>
      <use xlink:href="#ArialMT-4b" transform="translate(459.125977 0.53125)"/>
      <use xlink:href="#DejaVuSans-2212" transform="translate(526.782227 38.8125) scale(0.7)"/>
      <use xlink:href="#DejaVuSans-31" transform="translate(585.43457 38.8125) scale(0.7)"/>
      <use xlink:href="#ArialMT-29" transform="translate(632.705078 0.53125)"/>
     </g>
    </g>
   </g>
   <g id="line2d_79">
    <path d="M 73.38 431.978994 
L 75.047074 474.410923 
L 75.602766 477.540029 
L 76.158457 482.88453 
L 77.26984 497.341176 
L 79.492605 531.26883 
L 80.048297 536.534369 
L 80.603988 537.351381 
L 81.159679 534.606341 
L 82.271062 524.557228 
L 83.382445 514.68589 
L 83.938136 511.061093 
L 84.493828 508.571821 
L 85.049519 507.281465 
L 85.60521 507.141648 
L 86.160902 508.043917 
L 86.716593 509.826805 
L 87.827976 515.103434 
L 88.939359 520.576365 
L 89.49505 522.440703 
L 90.050741 523.27084 
L 90.606433 523.023377 
L 91.162124 521.863468 
L 93.38489 514.985091 
L 93.940581 514.328454 
L 94.496273 514.419517 
L 95.051964 515.236716 
L 95.607655 516.676929 
L 97.274729 522.512916 
L 97.830421 523.898376 
L 98.386112 524.59453 
L 98.941804 524.578096 
L 99.497495 524.003493 
L 100.608878 522.418493 
L 101.164569 522.056664 
L 101.720261 522.230579 
L 102.275952 522.959101 
L 103.387335 525.534878 
L 103.943026 526.827328 
L 104.498717 527.711626 
L 105.054409 528.014257 
L 105.6101 527.775496 
L 106.721483 526.697293 
L 107.277174 526.390787 
L 107.832866 526.477959 
L 108.388557 526.966404 
L 109.49994 528.443213 
L 110.055631 528.89918 
L 110.611323 528.937577 
L 111.167014 528.596531 
L 112.278397 527.597553 
L 112.834088 527.292 
L 113.38978 527.250107 
L 114.501162 527.763611 
L 115.056854 528.017592 
L 115.612545 528.075322 
L 116.168236 527.895954 
L 117.835311 526.877223 
L 118.946693 526.584673 
L 120.058076 526.682689 
L 121.169459 526.776754 
L 122.280842 526.597417 
L 123.392224 526.367527 
L 125.059299 525.611692 
L 125.61499 525.660297 
L 127.282064 526.399685 
L 127.837756 526.447211 
L 128.949138 526.163384 
L 130.060521 525.491138 
L 130.616212 525.38382 
L 131.171904 525.548514 
L 132.838978 526.480185 
L 133.394669 526.448717 
L 134.506052 525.982476 
L 135.617435 525.389395 
L 136.173126 525.371347 
L 137.284509 525.885059 
L 137.8402 526.144833 
L 138.395892 526.225139 
L 139.507275 525.872978 
L 141.174349 525.20418 
L 141.73004 525.195821 
L 143.952806 525.819576 
L 145.61988 525.380413 
L 146.731263 524.498942 
L 147.286954 524.252502 
L 147.842645 524.324176 
L 149.509719 525.199501 
L 150.065411 525.126847 
L 151.176794 524.514582 
L 152.288176 523.534306 
L 152.843868 523.367063 
L 153.399559 523.529248 
L 154.510942 524.251616 
L 155.066633 524.393163 
L 155.622325 524.272533 
L 156.733707 523.620884 
L 157.84509 522.391863 
L 158.400782 522.257899 
L 158.956473 522.56649 
L 160.067856 523.533309 
L 160.623547 523.562666 
L 163.402004 521.775461 
L 163.957695 521.722701 
L 164.513387 521.948376 
L 165.62477 522.602246 
L 166.180461 522.662053 
L 167.291844 522.201227 
L 167.847535 522.000562 
L 168.958918 521.330578 
L 169.514609 521.213733 
L 170.070301 521.32849 
L 171.181683 521.88204 
L 171.737375 522.021792 
L 172.293066 521.956668 
L 173.404449 521.491493 
L 174.515832 520.645928 
L 175.071523 520.466964 
L 175.627214 520.581599 
L 177.294289 521.450213 
L 177.84998 521.423811 
L 178.961363 520.924951 
L 180.072745 520.041879 
L 180.628437 519.911897 
L 181.184128 520.089817 
L 182.295511 520.85301 
L 182.851202 521.036414 
L 183.406894 520.947456 
L 184.518277 520.372135 
L 185.629659 519.630454 
L 186.185351 519.564867 
L 186.741042 519.778725 
L 187.852425 520.481204 
L 188.408116 520.621446 
L 188.963808 520.517486 
L 191.186573 519.42986 
L 191.742265 519.421074 
L 192.853647 519.943365 
L 193.409339 520.200628 
L 193.96503 520.258745 
L 195.076413 519.875123 
L 196.743487 519.340713 
L 197.299178 519.345586 
L 199.521944 519.929175 
L 201.189018 519.604423 
L 202.300401 519.262043 
L 202.856092 519.238567 
L 203.967475 519.550341 
L 205.078858 519.799799 
L 206.19024 519.646062 
L 207.301623 519.347833 
L 207.857315 519.185646 
L 208.413006 519.152289 
L 209.524389 519.471508 
L 210.635772 519.764459 
L 211.747154 519.713277 
L 212.858537 519.424659 
L 213.414228 519.263895 
L 213.96992 519.224137 
L 215.081303 519.511038 
L 216.192685 519.835314 
L 217.304068 519.738975 
L 218.415451 519.404881 
L 218.971142 519.222244 
L 219.526834 519.178021 
L 220.638216 519.506683 
L 221.749599 519.791012 
L 222.860982 519.619122 
L 225.083747 519.183164 
L 227.306513 519.684073 
L 230.640661 519.413163 
L 232.307735 519.706212 
L 242.865872 519.703708 
L 243.977255 519.827378 
L 245.644329 519.713563 
L 247.311403 519.246848 
L 248.422786 519.518314 
L 249.534168 519.766828 
L 250.645551 519.614459 
L 252.868317 519.180651 
L 254.535391 519.670435 
L 255.646774 519.532571 
L 258.980922 518.816996 
L 260.647996 519.277054 
L 261.759379 519.165006 
L 262.31507 519.011866 
L 263.426453 518.332111 
L 263.982144 518.219592 
L 264.537836 518.365847 
L 265.649218 518.951073 
L 266.20491 519.055799 
L 266.760601 518.944937 
L 268.983367 518.046464 
L 269.539058 518.042799 
L 271.761824 518.769992 
L 273.428898 518.317757 
L 274.540281 517.816658 
L 275.095972 517.765341 
L 276.207355 518.166162 
L 276.763046 518.377545 
L 277.318737 518.430827 
L 278.43012 518.150184 
L 278.985812 518.002296 
L 280.097194 517.497116 
L 280.652886 517.439735 
L 281.208577 517.588372 
L 282.31996 518.095761 
L 282.875651 518.186971 
L 283.987034 517.916764 
L 284.542725 517.764903 
L 285.654108 517.205738 
L 286.2098 517.132341 
L 286.765491 517.291279 
L 287.876874 517.829829 
L 288.432565 517.928416 
L 289.543948 517.649691 
L 290.099639 517.457064 
L 291.211022 516.816691 
L 291.766713 516.73604 
L 292.322405 516.908641 
L 293.433788 517.480944 
L 293.989479 517.582455 
L 295.100862 517.277531 
L 295.656553 517.071922 
L 296.767936 516.351954 
L 297.323627 516.296917 
L 297.879319 516.531932 
L 298.990701 517.188481 
L 299.546393 517.23402 
L 301.213467 516.587441 
L 302.32485 516.081751 
L 302.880541 516.019787 
L 303.436232 516.145002 
L 305.103307 516.856478 
L 305.658998 516.78909 
L 306.770381 516.428002 
L 307.881764 515.530736 
L 308.437455 515.306683 
L 308.993146 515.425055 
L 310.66022 516.349383 
L 311.215912 516.321282 
L 312.327295 515.763589 
L 312.882986 516.961006 
L 313.438677 517.144086 
L 313.994369 516.363981 
L 314.55006 515.222522 
L 315.105752 514.664795 
L 315.661443 514.950021 
L 316.217134 515.858468 
L 316.772826 516.996758 
L 317.328517 517.313056 
L 317.884208 516.663564 
L 318.995591 514.70818 
L 319.551283 514.20074 
L 320.106974 514.418507 
L 321.218357 515.94618 
L 321.774048 516.314448 
L 322.329739 516.09881 
L 323.996814 514.297134 
L 324.552505 514.149886 
L 325.108196 514.458571 
L 326.219579 515.506447 
L 326.775271 515.662503 
L 327.330962 515.439527 
L 328.442345 514.676241 
L 329.553727 514.542955 
L 331.220802 514.666445 
L 332.887876 514.673001 
L 334.55495 514.603185 
L 336.222024 513.982389 
L 336.777715 514.043136 
L 338.44479 514.685398 
L 339.000481 514.64753 
L 340.111864 514.270261 
L 341.223246 513.747605 
L 341.778938 513.736946 
L 343.446012 514.366373 
L 344.001703 514.363188 
L 346.78016 513.596115 
L 347.891543 513.740737 
L 349.002926 513.9992 
L 350.114309 513.90863 
L 350.67 513.793304 
L 350.67 513.793304 
" clip-path="url(#p01e87559b4)" style="fill: none; stroke: #000000; stroke-width: 2; stroke-linecap: round"/>
   </g>
   <g id="patch_23">
    <path d="M 73.38 542.62 
L 73.38 426.710375 
" style="fill: none; stroke: #262626; stroke-width: 1.5; stroke-linejoin: miter; stroke-linecap: square"/>
   </g>
   <g id="patch_24">
    <path d="M 350.67 542.62 
L 350.67 426.710375 
" style="fill: none; stroke: #262626; stroke-width: 1.5; stroke-linejoin: miter; stroke-linecap: square"/>
   </g>
   <g id="patch_25">
    <path d="M 73.38 542.62 
L 350.67 542.62 
" style="fill: none; stroke: #262626; stroke-width: 1.5; stroke-linejoin: miter; stroke-linecap: square"/>
   </g>
   <g id="patch_26">
    <path d="M 73.38 426.710375 
L 350.67 426.710375 
" style="fill: none; stroke: #262626; stroke-width: 1.5; stroke-linejoin: miter; stroke-linecap: square"/>
   </g>
   <g id="text_48">
    <!-- e) -->
    <g style="fill: #262626" transform="translate(73.38 416.710375) scale(0.2 -0.2)">
     <use xlink:href="#ArialMT-65"/>
     <use xlink:href="#ArialMT-29" transform="translate(55.615234 0)"/>
    </g>
   </g>
  </g>
  <g id="axes_6">
   <g id="patch_27">
    <path d="M 426.51 542.62 
L 703.8 542.62 
L 703.8 426.710375 
L 426.51 426.710375 
z
" style="fill: #ffffff"/>
   </g>
   <g id="matplotlib.axis_11">
    <g id="xtick_26">
     <g id="line2d_80">
      <g>
       <use xlink:href="#mebf00d7bd6" x="426.51" y="542.62" style="fill: #262626; stroke: #262626; stroke-width: 0.8"/>
      </g>
     </g>
     <g id="line2d_81">
      <g>
       <use xlink:href="#m8495e850bd" x="426.51" y="426.710375" style="fill: #262626; stroke: #262626; stroke-width: 0.8"/>
      </g>
     </g>
     <g id="text_49">
      <!-- 0 -->
      <g style="fill: #262626" transform="translate(422.339297 556.856719) scale(0.15 -0.15)">
       <use xlink:href="#ArialMT-30"/>
      </g>
     </g>
    </g>
    <g id="xtick_27">
     <g id="line2d_82">
      <g>
       <use xlink:href="#mebf00d7bd6" x="482.079138" y="542.62" style="fill: #262626; stroke: #262626; stroke-width: 0.8"/>
      </g>
     </g>
     <g id="line2d_83">
      <g>
       <use xlink:href="#m8495e850bd" x="482.079138" y="426.710375" style="fill: #262626; stroke: #262626; stroke-width: 0.8"/>
      </g>
     </g>
     <g id="text_50">
      <!-- 100 -->
      <g style="fill: #262626" transform="translate(469.567029 556.856719) scale(0.15 -0.15)">
       <use xlink:href="#ArialMT-31"/>
       <use xlink:href="#ArialMT-30" transform="translate(55.615234 0)"/>
       <use xlink:href="#ArialMT-30" transform="translate(111.230469 0)"/>
      </g>
     </g>
    </g>
    <g id="xtick_28">
     <g id="line2d_84">
      <g>
       <use xlink:href="#mebf00d7bd6" x="537.648277" y="542.62" style="fill: #262626; stroke: #262626; stroke-width: 0.8"/>
      </g>
     </g>
     <g id="line2d_85">
      <g>
       <use xlink:href="#m8495e850bd" x="537.648277" y="426.710375" style="fill: #262626; stroke: #262626; stroke-width: 0.8"/>
      </g>
     </g>
     <g id="text_51">
      <!-- 200 -->
      <g style="fill: #262626" transform="translate(525.136167 556.856719) scale(0.15 -0.15)">
       <use xlink:href="#ArialMT-32"/>
       <use xlink:href="#ArialMT-30" transform="translate(55.615234 0)"/>
       <use xlink:href="#ArialMT-30" transform="translate(111.230469 0)"/>
      </g>
     </g>
    </g>
    <g id="xtick_29">
     <g id="line2d_86">
      <g>
       <use xlink:href="#mebf00d7bd6" x="593.217415" y="542.62" style="fill: #262626; stroke: #262626; stroke-width: 0.8"/>
      </g>
     </g>
     <g id="line2d_87">
      <g>
       <use xlink:href="#m8495e850bd" x="593.217415" y="426.710375" style="fill: #262626; stroke: #262626; stroke-width: 0.8"/>
      </g>
     </g>
     <g id="text_52">
      <!-- 300 -->
      <g style="fill: #262626" transform="translate(580.705305 556.856719) scale(0.15 -0.15)">
       <use xlink:href="#ArialMT-33"/>
       <use xlink:href="#ArialMT-30" transform="translate(55.615234 0)"/>
       <use xlink:href="#ArialMT-30" transform="translate(111.230469 0)"/>
      </g>
     </g>
    </g>
    <g id="xtick_30">
     <g id="line2d_88">
      <g>
       <use xlink:href="#mebf00d7bd6" x="648.786553" y="542.62" style="fill: #262626; stroke: #262626; stroke-width: 0.8"/>
      </g>
     </g>
     <g id="line2d_89">
      <g>
       <use xlink:href="#m8495e850bd" x="648.786553" y="426.710375" style="fill: #262626; stroke: #262626; stroke-width: 0.8"/>
      </g>
     </g>
     <g id="text_53">
      <!-- 400 -->
      <g style="fill: #262626" transform="translate(636.274444 556.856719) scale(0.15 -0.15)">
       <use xlink:href="#ArialMT-34"/>
       <use xlink:href="#ArialMT-30" transform="translate(55.615234 0)"/>
       <use xlink:href="#ArialMT-30" transform="translate(111.230469 0)"/>
      </g>
     </g>
    </g>
   </g>
   <g id="matplotlib.axis_12">
    <g id="ytick_13">
     <g id="line2d_90">
      <g>
       <use xlink:href="#m968b0f8674" x="426.51" y="540.887784" style="fill: #262626; stroke: #262626; stroke-width: 0.8"/>
      </g>
     </g>
     <g id="line2d_91">
      <g>
       <use xlink:href="#m732c64a0f5" x="703.8" y="540.887784" style="fill: #262626; stroke: #262626; stroke-width: 0.8"/>
      </g>
     </g>
     <g id="text_54">
      <!-- $\mathdefault{0.5}$ -->
      <g style="fill: #262626" transform="translate(402.01 546.256143) scale(0.15 -0.15)">
       <use xlink:href="#ArialMT-30" transform="translate(0 0.125)"/>
       <use xlink:href="#ArialMT-2e" transform="translate(55.615234 0.125)"/>
       <use xlink:href="#ArialMT-35" transform="translate(83.398438 0.125)"/>
      </g>
     </g>
    </g>
    <g id="ytick_14">
     <g id="line2d_92">
      <g>
       <use xlink:href="#m968b0f8674" x="426.51" y="477.559755" style="fill: #262626; stroke: #262626; stroke-width: 0.8"/>
      </g>
     </g>
     <g id="line2d_93">
      <g>
       <use xlink:href="#m732c64a0f5" x="703.8" y="477.559755" style="fill: #262626; stroke: #262626; stroke-width: 0.8"/>
      </g>
     </g>
     <g id="text_55">
      <!-- $\mathdefault{1.0}$ -->
      <g style="fill: #262626" transform="translate(402.01 482.928114) scale(0.15 -0.15)">
       <use xlink:href="#ArialMT-31" transform="translate(0 0.125)"/>
       <use xlink:href="#ArialMT-2e" transform="translate(55.615234 0.125)"/>
       <use xlink:href="#ArialMT-30" transform="translate(83.398438 0.125)"/>
      </g>
     </g>
    </g>
    <g id="text_56">
     <!-- $\hat{C}$ (J m$^{-3}$ K$^{-1}$) -->
     <g style="fill: #262626" transform="translate(394.71 532.215188) rotate(-90) scale(0.15 -0.15)">
      <defs>
       <path id="DejaVuSans-Oblique-43" d="M 4447 4306 
L 4319 3641 
Q 4019 3944 3683 4091 
Q 3347 4238 2956 4238 
Q 2422 4238 2017 3981 
Q 1613 3725 1319 3200 
Q 1131 2863 1032 2486 
Q 934 2109 934 1728 
Q 934 1091 1264 756 
Q 1594 422 2222 422 
Q 2656 422 3056 561 
Q 3456 700 3834 978 
L 3688 231 
Q 3316 72 2936 -9 
Q 2556 -91 2175 -91 
Q 1278 -91 773 396 
Q 269 884 269 1753 
Q 269 2309 461 2846 
Q 653 3384 1013 3828 
Q 1394 4300 1883 4525 
Q 2372 4750 3022 4750 
Q 3422 4750 3780 4639 
Q 4138 4528 4447 4306 
z
" transform="scale(0.015625)"/>
       <path id="ArialMT-4a" d="M 184 1300 
L 731 1375 
Q 753 850 928 656 
Q 1103 463 1413 463 
Q 1641 463 1806 567 
Q 1972 672 2034 851 
Q 2097 1031 2097 1425 
L 2097 4581 
L 2703 4581 
L 2703 1459 
Q 2703 884 2564 568 
Q 2425 253 2123 87 
Q 1822 -78 1416 -78 
Q 813 -78 492 269 
Q 172 616 184 1300 
z
" transform="scale(0.015625)"/>
       <path id="DejaVuSans-33" d="M 2597 2516 
Q 3050 2419 3304 2112 
Q 3559 1806 3559 1356 
Q 3559 666 3084 287 
Q 2609 -91 1734 -91 
Q 1441 -91 1130 -33 
Q 819 25 488 141 
L 488 750 
Q 750 597 1062 519 
Q 1375 441 1716 441 
Q 2309 441 2620 675 
Q 2931 909 2931 1356 
Q 2931 1769 2642 2001 
Q 2353 2234 1838 2234 
L 1294 2234 
L 1294 2753 
L 1863 2753 
Q 2328 2753 2575 2939 
Q 2822 3125 2822 3475 
Q 2822 3834 2567 4026 
Q 2313 4219 1838 4219 
Q 1578 4219 1281 4162 
Q 984 4106 628 3988 
L 628 4550 
Q 988 4650 1302 4700 
Q 1616 4750 1894 4750 
Q 2613 4750 3031 4423 
Q 3450 4097 3450 3541 
Q 3450 3153 3228 2886 
Q 3006 2619 2597 2516 
z
" transform="scale(0.015625)"/>
      </defs>
      <use xlink:href="#DejaVuSans-302" transform="translate(69.03418 31.015625)"/>
      <use xlink:href="#DejaVuSans-Oblique-43" transform="translate(0 0.296875)"/>
      <use xlink:href="#ArialMT-20" transform="translate(69.824219 0.296875)"/>
      <use xlink:href="#ArialMT-28" transform="translate(97.607422 0.296875)"/>
      <use xlink:href="#ArialMT-4a" transform="translate(130.908203 0.296875)"/>
      <use xlink:href="#ArialMT-20" transform="translate(180.908203 0.296875)"/>
      <use xlink:href="#ArialMT-6d" transform="translate(208.691406 0.296875)"/>
      <use xlink:href="#DejaVuSans-2212" transform="translate(292.949219 38.578125) scale(0.7)"/>
      <use xlink:href="#DejaVuSans-33" transform="translate(351.601562 38.578125) scale(0.7)"/>
      <use xlink:href="#ArialMT-20" transform="translate(398.87207 0.296875)"/>
      <use xlink:href="#ArialMT-4b" transform="translate(426.655273 0.296875)"/>
      <use xlink:href="#DejaVuSans-2212" transform="translate(494.311523 38.578125) scale(0.7)"/>
      <use xlink:href="#DejaVuSans-31" transform="translate(552.963867 38.578125) scale(0.7)"/>
      <use xlink:href="#ArialMT-29" transform="translate(600.234375 0.296875)"/>
     </g>
    </g>
    <g id="text_57">
     <!-- $\times\mathdefault{10^{6}}\mathdefault{}$ -->
     <g style="fill: #262626" transform="translate(384.9165 423.710375) scale(0.15 -0.15)">
      <defs>
       <path id="ArialMT-36" d="M 3184 3459 
L 2625 3416 
Q 2550 3747 2413 3897 
Q 2184 4138 1850 4138 
Q 1581 4138 1378 3988 
Q 1113 3794 959 3422 
Q 806 3050 800 2363 
Q 1003 2672 1297 2822 
Q 1591 2972 1913 2972 
Q 2475 2972 2870 2558 
Q 3266 2144 3266 1488 
Q 3266 1056 3080 686 
Q 2894 316 2569 119 
Q 2244 -78 1831 -78 
Q 1128 -78 684 439 
Q 241 956 241 2144 
Q 241 3472 731 4075 
Q 1159 4600 1884 4600 
Q 2425 4600 2770 4297 
Q 3116 3994 3184 3459 
z
M 888 1484 
Q 888 1194 1011 928 
Q 1134 663 1356 523 
Q 1578 384 1822 384 
Q 2178 384 2434 671 
Q 2691 959 2691 1453 
Q 2691 1928 2437 2201 
Q 2184 2475 1800 2475 
Q 1419 2475 1153 2201 
Q 888 1928 888 1484 
z
" transform="scale(0.015625)"/>
      </defs>
      <use xlink:href="#DejaVuSans-d7" transform="translate(0 0.99375)"/>
      <use xlink:href="#ArialMT-31" transform="translate(83.789062 0.99375)"/>
      <use xlink:href="#ArialMT-30" transform="translate(139.404297 0.99375)"/>
      <use xlink:href="#ArialMT-36" transform="translate(196.761875 70.6875) scale(0.7)"/>
     </g>
    </g>
   </g>
   <g id="line2d_94">
    <path d="M 426.51 431.978994 
L 427.621383 463.205713 
L 428.177074 476.681831 
L 428.732766 480.708741 
L 430.39984 496.993053 
L 431.511222 507.673768 
L 432.622605 516.284853 
L 433.178297 519.413582 
L 433.733988 521.676348 
L 434.289679 523.163345 
L 434.845371 524.039227 
L 435.401062 524.500722 
L 437.068136 525.289631 
L 437.623828 525.840704 
L 438.179519 526.676935 
L 439.290902 529.173927 
L 441.513667 535.277483 
L 442.069359 536.36963 
L 442.62505 537.078991 
L 443.180741 537.351381 
L 443.736433 537.196504 
L 444.292124 536.657598 
L 445.403507 534.769513 
L 447.070581 531.548586 
L 448.181964 530.055263 
L 450.404729 527.950232 
L 450.960421 527.10075 
L 451.516112 525.983113 
L 452.627495 522.980256 
L 454.850261 516.133198 
L 455.961643 513.44482 
L 458.184409 508.456574 
L 459.851483 504.227924 
L 460.962866 502.0943 
L 461.518557 501.389594 
L 462.62994 500.547434 
L 464.297014 499.796118 
L 464.852705 499.65192 
L 465.408397 499.635162 
L 465.964088 499.748202 
L 466.51978 500.007317 
L 467.631162 500.864113 
L 469.298236 502.245923 
L 473.188076 504.867046 
L 474.299459 505.373972 
L 475.410842 505.600694 
L 476.522224 505.616961 
L 478.189299 505.185927 
L 480.967756 504.395989 
L 482.63483 503.461006 
L 483.746212 502.808102 
L 484.857595 502.439746 
L 486.524669 501.934159 
L 488.747435 501.017858 
L 489.858818 500.827241 
L 491.525892 500.750107 
L 495.971423 500.128194 
L 497.082806 500.024012 
L 500.416954 499.321522 
L 501.528337 499.544967 
L 502.639719 499.880629 
L 503.751102 499.987733 
L 505.973868 500.036923 
L 508.752325 500.842819 
L 509.863707 500.790954 
L 510.97509 500.493344 
L 511.530782 500.474646 
L 513.753547 500.842424 
L 517.643387 499.838825 
L 518.75477 499.869776 
L 519.866152 499.671061 
L 522.088918 499.068629 
L 523.200301 499.044264 
L 524.867375 499.321823 
L 526.534449 499.220537 
L 528.201523 498.916507 
L 529.312906 499.080464 
L 530.424289 499.255384 
L 531.535671 499.116252 
L 532.647054 498.763254 
L 533.758437 498.447801 
L 534.86982 498.50155 
L 535.981202 498.540663 
L 537.092585 498.249917 
L 539.315351 497.542186 
L 542.093808 497.494057 
L 545.427956 496.547627 
L 547.09503 496.394112 
L 550.98487 495.356665 
L 552.651944 495.176813 
L 554.874709 494.591773 
L 556.541784 494.148128 
L 558.208858 493.850352 
L 560.431623 493.134318 
L 561.543006 492.742832 
L 565.988537 491.678739 
L 567.655611 491.109127 
L 570.434068 490.456928 
L 573.768216 489.59083 
L 575.435291 489.337708 
L 584.882044 486.978058 
L 588.216192 486.01077 
L 591.550341 485.216984 
L 595.995872 484.516877 
L 598.774329 484.134993 
L 600.997094 483.57116 
L 602.664168 483.416774 
L 604.886934 482.854319 
L 605.998317 482.509964 
L 608.221082 482.042825 
L 609.888156 481.61529 
L 611.55523 481.135335 
L 612.666613 481.114318 
L 614.333687 481.204798 
L 615.44507 481.105396 
L 617.112144 480.549273 
L 619.890601 480.188929 
L 623.224749 478.926754 
L 624.891824 478.655346 
L 628.781663 477.392086 
L 630.448737 477.188122 
L 632.671503 476.469903 
L 633.782886 475.975913 
L 637.672725 474.934856 
L 639.3398 474.064459 
L 640.451182 473.815477 
L 641.562565 473.582351 
L 643.785331 472.746484 
L 644.896713 472.201088 
L 646.008096 472.04576 
L 647.119479 471.868417 
L 648.786553 471.23596 
L 650.453627 470.237832 
L 651.56501 470.032997 
L 652.676393 469.769125 
L 657.121924 467.795475 
L 658.233307 467.496171 
L 660.456072 466.362219 
L 661.567455 465.541409 
L 662.123146 465.396515 
L 664.345912 465.397971 
L 666.012986 464.753466 
L 666.568677 464.018972 
L 667.68006 461.695165 
L 668.235752 460.933487 
L 668.791443 460.789258 
L 669.347134 461.141995 
L 669.902826 461.671924 
L 670.458517 461.972178 
L 671.014208 461.938662 
L 672.681283 460.702372 
L 673.236974 460.768597 
L 674.348357 461.406041 
L 674.904048 461.470857 
L 675.459739 461.20298 
L 677.682505 459.243278 
L 678.238196 459.008331 
L 679.349579 458.754687 
L 679.905271 458.482819 
L 681.572345 457.373708 
L 682.683727 457.240482 
L 684.350802 456.818527 
L 686.573567 456.111327 
L 687.68495 455.984149 
L 688.240641 455.709083 
L 689.907715 454.588146 
L 691.57479 454.066687 
L 693.797555 453.292739 
L 694.908938 452.767196 
L 697.687395 452.04562 
L 701.021543 450.856969 
L 703.8 449.941325 
L 703.8 449.941325 
" clip-path="url(#p821378f30c)" style="fill: none; stroke: #000000; stroke-width: 2; stroke-linecap: round"/>
   </g>
   <g id="patch_28">
    <path d="M 426.51 542.62 
L 426.51 426.710375 
" style="fill: none; stroke: #262626; stroke-width: 1.5; stroke-linejoin: miter; stroke-linecap: square"/>
   </g>
   <g id="patch_29">
    <path d="M 703.8 542.62 
L 703.8 426.710375 
" style="fill: none; stroke: #262626; stroke-width: 1.5; stroke-linejoin: miter; stroke-linecap: square"/>
   </g>
   <g id="patch_30">
    <path d="M 426.51 542.62 
L 703.8 542.62 
" style="fill: none; stroke: #262626; stroke-width: 1.5; stroke-linejoin: miter; stroke-linecap: square"/>
   </g>
   <g id="patch_31">
    <path d="M 426.51 426.710375 
L 703.8 426.710375 
" style="fill: none; stroke: #262626; stroke-width: 1.5; stroke-linejoin: miter; stroke-linecap: square"/>
   </g>
   <g id="text_58">
    <!-- f) -->
    <g style="fill: #262626" transform="translate(426.51 416.710375) scale(0.2 -0.2)">
     <defs>
      <path id="ArialMT-66" d="M 556 0 
L 556 2881 
L 59 2881 
L 59 3319 
L 556 3319 
L 556 3672 
Q 556 4006 616 4169 
Q 697 4388 901 4523 
Q 1106 4659 1475 4659 
Q 1713 4659 2000 4603 
L 1916 4113 
Q 1741 4144 1584 4144 
Q 1328 4144 1222 4034 
Q 1116 3925 1116 3625 
L 1116 3319 
L 1763 3319 
L 1763 2881 
L 1116 2881 
L 1116 0 
L 556 0 
z
" transform="scale(0.015625)"/>
     </defs>
     <use xlink:href="#ArialMT-66"/>
     <use xlink:href="#ArialMT-29" transform="translate(27.783203 0)"/>
    </g>
   </g>
  </g>
 </g>
 <defs>
  <clipPath id="p1e7c3f932e">
   <rect x="73.38" y="40.9" width="277.29" height="115.909625"/>
  </clipPath>
  <clipPath id="pc267516232">
   <rect x="426.51" y="40.9" width="277.29" height="115.909625"/>
  </clipPath>
  <clipPath id="p001225c885">
   <rect x="73.38" y="233.805188" width="277.29" height="115.909625"/>
  </clipPath>
  <clipPath id="pf421420c82">
   <rect x="426.51" y="233.805188" width="277.29" height="115.909625"/>
  </clipPath>
  <clipPath id="p01e87559b4">
   <rect x="73.38" y="426.710375" width="277.29" height="115.909625"/>
  </clipPath>
  <clipPath id="p821378f30c">
   <rect x="426.51" y="426.710375" width="277.29" height="115.909625"/>
  </clipPath>
 </defs>
</svg>
