<?xml version="1.0" encoding="utf-8" standalone="no"?>
<!DOCTYPE svg PUBLIC "-//W3C//DTD SVG 1.1//EN"
  "http://www.w3.org/Graphics/SVG/1.1/DTD/svg11.dtd">
<svg xmlns:xlink="http://www.w3.org/1999/xlink" width="720pt" height="576pt" viewBox="0 0 720 576" xmlns="http://www.w3.org/2000/svg" version="1.1">
 <metadata>
  <rdf:RDF xmlns:dc="http://purl.org/dc/elements/1.1/" xmlns:cc="http://creativecommons.org/ns#" xmlns:rdf="http://www.w3.org/1999/02/22-rdf-syntax-ns#">
   <cc:Work>
    <dc:type rdf:resource="http://purl.org/dc/dcmitype/StillImage"/>
    <dc:date>2026-07-29T11:33:47.777359</dc:date>
    <dc:format>image/svg+xml</dc:format>
    <dc:creator>
     <cc:Agent>
      <dc:title>Matplotlib v3.10.9, https://matplotlib.org/</dc:title>
     </cc:Agent>
    </dc:creator>
   </cc:Work>
  </rdf:RDF>
 </metadata>
 <defs>
  <style type="text/css">*{stroke-linejoin: round; stroke-linecap: butt}</style>
 </defs>
 <g id="figure_1">
  <g id="patch_1">
   <path d="M 0 576 
L 720 576 
L 720 0 
L 0 0 
z
" style="fill: #ffffff"/>
  </g>
  <g id="axes_1">
   <g id="patch_2">
    <path d="M 67.38 156.809625 
L 351.8325 156.809625 
L 351.8325 40.9 
L 67.38 40.9 
z
" style="fill: #ffffff"/>
   </g>
   <g id="matplotlib.axis_1">
    <g id="xtick_1">
     <g id="line2d_1">
      <defs>
       <path id="maaa9d03b6b" d="M 0 0 
L 0 -6 
" style="stroke: #262626; stroke-width: 0.8"/>
      </defs>
      <g>
       <use xlink:href="#maaa9d03b6b" x="67.38" y="156.809625" style="fill: #262626; stroke: #262626; stroke-width: 0.8"/>
      </g>
     </g>
     <g id="line2d_2">
      <defs>
       <path id="me3b84c8afb" d="M 0 0 
L 0 6 
" style="stroke: #262626; stroke-width: 0.8"/>
      </defs>
      <g>
       <use xlink:href="#me3b84c8afb" x="67.38" y="40.9" style="fill: #262626; stroke: #262626; stroke-width: 0.8"/>
      </g>
     </g>
     <g id="text_1">
      <!-- 0 -->
      <g style="fill: #262626" transform="translate(63.209297 171.046344) scale(0.15 -0.15)">
       <defs>
        <path id="ArialMT-30" d="M 266 2259 
Q 266 3072 433 3567 
Q 600 4063 929 4331 
Q 1259 4600 1759 4600 
Q 2128 4600 2406 4451 
Q 2684 4303 2865 4023 
Q 3047 3744 3150 3342 
Q 3253 2941 3253 2259 
Q 3253 1453 3087 958 
Q 2922 463 2592 192 
Q 2263 -78 1759 -78 
Q 1097 -78 719 397 
Q 266 969 266 2259 
z
M 844 2259 
Q 844 1131 1108 757 
Q 1372 384 1759 384 
Q 2147 384 2411 759 
Q 2675 1134 2675 2259 
Q 2675 3391 2411 3762 
Q 2147 4134 1753 4134 
Q 1366 4134 1134 3806 
Q 844 3388 844 2259 
z
" transform="scale(0.015625)"/>
       </defs>
       <use xlink:href="#ArialMT-30"/>
      </g>
     </g>
    </g>
    <g id="xtick_2">
     <g id="line2d_3">
      <g>
       <use xlink:href="#maaa9d03b6b" x="134.785806" y="156.809625" style="fill: #262626; stroke: #262626; stroke-width: 0.8"/>
      </g>
     </g>
     <g id="line2d_4">
      <g>
       <use xlink:href="#me3b84c8afb" x="134.785806" y="40.9" style="fill: #262626; stroke: #262626; stroke-width: 0.8"/>
      </g>
     </g>
     <g id="text_2">
      <!-- 50 -->
      <g style="fill: #262626" transform="translate(126.444399 171.046344) scale(0.15 -0.15)">
       <defs>
        <path id="ArialMT-35" d="M 266 1200 
L 856 1250 
Q 922 819 1161 601 
Q 1400 384 1738 384 
Q 2144 384 2425 690 
Q 2706 997 2706 1503 
Q 2706 1984 2436 2262 
Q 2166 2541 1728 2541 
Q 1456 2541 1237 2417 
Q 1019 2294 894 2097 
L 366 2166 
L 809 4519 
L 3088 4519 
L 3088 3981 
L 1259 3981 
L 1013 2750 
Q 1425 3038 1878 3038 
Q 2478 3038 2890 2622 
Q 3303 2206 3303 1553 
Q 3303 931 2941 478 
Q 2500 -78 1738 -78 
Q 1113 -78 717 272 
Q 322 622 266 1200 
z
" transform="scale(0.015625)"/>
       </defs>
       <use xlink:href="#ArialMT-35"/>
       <use xlink:href="#ArialMT-30" transform="translate(55.615234 0)"/>
      </g>
     </g>
    </g>
    <g id="xtick_3">
     <g id="line2d_5">
      <g>
       <use xlink:href="#maaa9d03b6b" x="202.191611" y="156.809625" style="fill: #262626; stroke: #262626; stroke-width: 0.8"/>
      </g>
     </g>
     <g id="line2d_6">
      <g>
       <use xlink:href="#me3b84c8afb" x="202.191611" y="40.9" style="fill: #262626; stroke: #262626; stroke-width: 0.8"/>
      </g>
     </g>
     <g id="text_3">
      <!-- 100 -->
      <g style="fill: #262626" transform="translate(189.679502 171.046344) scale(0.15 -0.15)">
       <defs>
        <path id="ArialMT-31" d="M 2384 0 
L 1822 0 
L 1822 3584 
Q 1619 3391 1289 3197 
Q 959 3003 697 2906 
L 697 3450 
Q 1169 3672 1522 3987 
Q 1875 4303 2022 4600 
L 2384 4600 
L 2384 0 
z
" transform="scale(0.015625)"/>
       </defs>
       <use xlink:href="#ArialMT-31"/>
       <use xlink:href="#ArialMT-30" transform="translate(55.615234 0)"/>
       <use xlink:href="#ArialMT-30" transform="translate(111.230469 0)"/>
      </g>
     </g>
    </g>
    <g id="xtick_4">
     <g id="line2d_7">
      <g>
       <use xlink:href="#maaa9d03b6b" x="269.597417" y="156.809625" style="fill: #262626; stroke: #262626; stroke-width: 0.8"/>
      </g>
     </g>
     <g id="line2d_8">
      <g>
       <use xlink:href="#me3b84c8afb" x="269.597417" y="40.9" style="fill: #262626; stroke: #262626; stroke-width: 0.8"/>
      </g>
     </g>
     <g id="text_4">
      <!-- 150 -->
      <g style="fill: #262626" transform="translate(257.085308 171.046344) scale(0.15 -0.15)">
       <use xlink:href="#ArialMT-31"/>
       <use xlink:href="#ArialMT-35" transform="translate(55.615234 0)"/>
       <use xlink:href="#ArialMT-30" transform="translate(111.230469 0)"/>
      </g>
     </g>
    </g>
    <g id="xtick_5">
     <g id="line2d_9">
      <g>
       <use xlink:href="#maaa9d03b6b" x="337.003223" y="156.809625" style="fill: #262626; stroke: #262626; stroke-width: 0.8"/>
      </g>
     </g>
     <g id="line2d_10">
      <g>
       <use xlink:href="#me3b84c8afb" x="337.003223" y="40.9" style="fill: #262626; stroke: #262626; stroke-width: 0.8"/>
      </g>
     </g>
     <g id="text_5">
      <!-- 200 -->
      <g style="fill: #262626" transform="translate(324.491113 171.046344) scale(0.15 -0.15)">
       <defs>
        <path id="ArialMT-32" d="M 3222 541 
L 3222 0 
L 194 0 
Q 188 203 259 391 
Q 375 700 629 1000 
Q 884 1300 1366 1694 
Q 2113 2306 2375 2664 
Q 2638 3022 2638 3341 
Q 2638 3675 2398 3904 
Q 2159 4134 1775 4134 
Q 1369 4134 1125 3890 
Q 881 3647 878 3216 
L 300 3275 
Q 359 3922 746 4261 
Q 1134 4600 1788 4600 
Q 2447 4600 2831 4234 
Q 3216 3869 3216 3328 
Q 3216 3053 3103 2787 
Q 2991 2522 2730 2228 
Q 2469 1934 1863 1422 
Q 1356 997 1212 845 
Q 1069 694 975 541 
L 3222 541 
z
" transform="scale(0.015625)"/>
       </defs>
       <use xlink:href="#ArialMT-32"/>
       <use xlink:href="#ArialMT-30" transform="translate(55.615234 0)"/>
       <use xlink:href="#ArialMT-30" transform="translate(111.230469 0)"/>
      </g>
     </g>
    </g>
   </g>
   <g id="matplotlib.axis_2">
    <g id="ytick_1">
     <g id="line2d_11">
      <defs>
       <path id="m6de2206241" d="M 0 0 
L 6 0 
" style="stroke: #262626; stroke-width: 0.8"/>
      </defs>
      <g>
       <use xlink:href="#m6de2206241" x="67.38" y="155.622086" style="fill: #262626; stroke: #262626; stroke-width: 0.8"/>
      </g>
     </g>
     <g id="line2d_12">
      <defs>
       <path id="m2ebc78dd16" d="M 0 0 
L -6 0 
" style="stroke: #262626; stroke-width: 0.8"/>
      </defs>
      <g>
       <use xlink:href="#m2ebc78dd16" x="351.8325" y="155.622086" style="fill: #262626; stroke: #262626; stroke-width: 0.8"/>
      </g>
     </g>
     <g id="text_6">
      <!-- 50 -->
      <g style="fill: #262626" transform="translate(47.197188 160.990445) scale(0.15 -0.15)">
       <use xlink:href="#ArialMT-35"/>
       <use xlink:href="#ArialMT-30" transform="translate(55.615234 0)"/>
      </g>
     </g>
    </g>
    <g id="ytick_2">
     <g id="line2d_13">
      <g>
       <use xlink:href="#m6de2206241" x="67.38" y="91.60346" style="fill: #262626; stroke: #262626; stroke-width: 0.8"/>
      </g>
     </g>
     <g id="line2d_14">
      <g>
       <use xlink:href="#m2ebc78dd16" x="351.8325" y="91.60346" style="fill: #262626; stroke: #262626; stroke-width: 0.8"/>
      </g>
     </g>
     <g id="text_7">
      <!-- 100 -->
      <g style="fill: #262626" transform="translate(38.855781 96.971819) scale(0.15 -0.15)">
       <use xlink:href="#ArialMT-31"/>
       <use xlink:href="#ArialMT-30" transform="translate(55.615234 0)"/>
       <use xlink:href="#ArialMT-30" transform="translate(111.230469 0)"/>
      </g>
     </g>
    </g>
    <g id="text_8">
     <!-- ALL Losses -->
     <g style="fill: #262626" transform="translate(31.874531 137.763406) rotate(-90) scale(0.15 -0.15)">
      <defs>
       <path id="ArialMT-41" d="M -9 0 
L 1750 4581 
L 2403 4581 
L 4278 0 
L 3588 0 
L 3053 1388 
L 1138 1388 
L 634 0 
L -9 0 
z
M 1313 1881 
L 2866 1881 
L 2388 3150 
Q 2169 3728 2063 4100 
Q 1975 3659 1816 3225 
L 1313 1881 
z
" transform="scale(0.015625)"/>
       <path id="ArialMT-4c" d="M 469 0 
L 469 4581 
L 1075 4581 
L 1075 541 
L 3331 541 
L 3331 0 
L 469 0 
z
" transform="scale(0.015625)"/>
       <path id="ArialMT-20" transform="scale(0.015625)"/>
       <path id="ArialMT-6f" d="M 213 1659 
Q 213 2581 725 3025 
Q 1153 3394 1769 3394 
Q 2453 3394 2887 2945 
Q 3322 2497 3322 1706 
Q 3322 1066 3130 698 
Q 2938 331 2570 128 
Q 2203 -75 1769 -75 
Q 1072 -75 642 372 
Q 213 819 213 1659 
z
M 791 1659 
Q 791 1022 1069 705 
Q 1347 388 1769 388 
Q 2188 388 2466 706 
Q 2744 1025 2744 1678 
Q 2744 2294 2464 2611 
Q 2184 2928 1769 2928 
Q 1347 2928 1069 2612 
Q 791 2297 791 1659 
z
" transform="scale(0.015625)"/>
       <path id="ArialMT-73" d="M 197 991 
L 753 1078 
Q 800 744 1014 566 
Q 1228 388 1613 388 
Q 2000 388 2187 545 
Q 2375 703 2375 916 
Q 2375 1106 2209 1216 
Q 2094 1291 1634 1406 
Q 1016 1563 777 1677 
Q 538 1791 414 1992 
Q 291 2194 291 2438 
Q 291 2659 392 2848 
Q 494 3038 669 3163 
Q 800 3259 1026 3326 
Q 1253 3394 1513 3394 
Q 1903 3394 2198 3281 
Q 2494 3169 2634 2976 
Q 2775 2784 2828 2463 
L 2278 2388 
Q 2241 2644 2061 2787 
Q 1881 2931 1553 2931 
Q 1166 2931 1000 2803 
Q 834 2675 834 2503 
Q 834 2394 903 2306 
Q 972 2216 1119 2156 
Q 1203 2125 1616 2013 
Q 2213 1853 2448 1751 
Q 2684 1650 2818 1456 
Q 2953 1263 2953 975 
Q 2953 694 2789 445 
Q 2625 197 2315 61 
Q 2006 -75 1616 -75 
Q 969 -75 630 194 
Q 291 463 197 991 
z
" transform="scale(0.015625)"/>
       <path id="ArialMT-65" d="M 2694 1069 
L 3275 997 
Q 3138 488 2766 206 
Q 2394 -75 1816 -75 
Q 1088 -75 661 373 
Q 234 822 234 1631 
Q 234 2469 665 2931 
Q 1097 3394 1784 3394 
Q 2450 3394 2872 2941 
Q 3294 2488 3294 1666 
Q 3294 1616 3291 1516 
L 816 1516 
Q 847 969 1125 678 
Q 1403 388 1819 388 
Q 2128 388 2347 550 
Q 2566 713 2694 1069 
z
M 847 1978 
L 2700 1978 
Q 2663 2397 2488 2606 
Q 2219 2931 1791 2931 
Q 1403 2931 1139 2672 
Q 875 2413 847 1978 
z
" transform="scale(0.015625)"/>
      </defs>
      <use xlink:href="#ArialMT-41"/>
      <use xlink:href="#ArialMT-4c" transform="translate(66.699219 0)"/>
      <use xlink:href="#ArialMT-4c" transform="translate(122.314453 0)"/>
      <use xlink:href="#ArialMT-20" transform="translate(174.179688 0)"/>
      <use xlink:href="#ArialMT-4c" transform="translate(201.962891 0)"/>
      <use xlink:href="#ArialMT-6f" transform="translate(257.578125 0)"/>
      <use xlink:href="#ArialMT-73" transform="translate(313.193359 0)"/>
      <use xlink:href="#ArialMT-73" transform="translate(363.193359 0)"/>
      <use xlink:href="#ArialMT-65" transform="translate(413.193359 0)"/>
      <use xlink:href="#ArialMT-73" transform="translate(468.808594 0)"/>
     </g>
    </g>
   </g>
   <g id="line2d_15">
    <path d="M 67.38 46.168619 
L 68.728116 65.931635 
L 70.076232 77.041391 
L 72.772464 96.88992 
L 74.120581 105.784167 
L 75.468697 113.181583 
L 76.816813 118.554807 
L 78.164929 121.784751 
L 79.513045 123.644755 
L 80.861161 125.792069 
L 82.209277 130.690281 
L 83.557393 134.597365 
L 84.905509 137.634655 
L 86.253626 139.233753 
L 87.601742 139.430617 
L 88.949858 138.649589 
L 91.64609 136.426569 
L 92.994206 135.77976 
L 94.342322 135.581987 
L 95.690438 136.881604 
L 97.038555 137.433854 
L 98.386671 138.200835 
L 101.082903 139.988841 
L 102.431019 140.711292 
L 103.779135 141.131341 
L 105.127251 141.223253 
L 107.823483 140.88351 
L 109.1716 141.850574 
L 110.519716 141.835555 
L 113.215948 142.154574 
L 119.956528 143.501391 
L 121.304645 143.565155 
L 122.652761 144.317249 
L 126.697109 144.194283 
L 129.393341 144.319832 
L 132.089573 144.656649 
L 134.785806 145.152272 
L 136.133922 145.882494 
L 141.526386 146.943589 
L 142.874502 147.392826 
L 144.222618 148.008855 
L 145.570735 148.902299 
L 148.266967 151.541006 
L 149.615083 137.267986 
L 150.963199 151.456997 
L 152.311315 147.074931 
L 153.659431 144.053744 
L 155.007547 142.336223 
L 156.355664 141.567557 
L 157.70378 141.450609 
L 159.051896 141.761803 
L 160.400012 142.416559 
L 163.096244 144.203749 
L 164.44436 144.662715 
L 165.792476 144.628619 
L 169.836825 143.560095 
L 171.184941 143.49425 
L 173.881173 143.676437 
L 176.577405 144.028942 
L 179.273637 144.528599 
L 180.621754 144.579053 
L 187.362334 144.163244 
L 191.406682 144.353959 
L 195.451031 144.525913 
L 202.191611 144.425605 
L 242.635095 144.683757 
L 245.331327 144.779859 
L 269.597417 144.893412 
L 272.293649 144.979184 
L 310.0409 145.119616 
L 319.477713 145.141751 
L 351.8325 145.141751 
L 351.8325 145.141751 
" clip-path="url(#pb150decd2a)" style="fill: none; stroke: #000000; stroke-width: 2; stroke-linecap: round"/>
   </g>
   <g id="patch_3">
    <path d="M 67.38 156.809625 
L 67.38 40.9 
" style="fill: none; stroke: #262626; stroke-width: 1.5; stroke-linejoin: miter; stroke-linecap: square"/>
   </g>
   <g id="patch_4">
    <path d="M 351.8325 156.809625 
L 351.8325 40.9 
" style="fill: none; stroke: #262626; stroke-width: 1.5; stroke-linejoin: miter; stroke-linecap: square"/>
   </g>
   <g id="patch_5">
    <path d="M 67.38 156.809625 
L 351.8325 156.809625 
" style="fill: none; stroke: #262626; stroke-width: 1.5; stroke-linejoin: miter; stroke-linecap: square"/>
   </g>
   <g id="patch_6">
    <path d="M 67.38 40.9 
L 351.8325 40.9 
" style="fill: none; stroke: #262626; stroke-width: 1.5; stroke-linejoin: miter; stroke-linecap: square"/>
   </g>
   <g id="text_9">
    <!-- (a) -->
    <g style="fill: #262626" transform="translate(67.38 30.9) scale(0.2 -0.2)">
     <defs>
      <path id="ArialMT-28" d="M 1497 -1347 
Q 1031 -759 709 28 
Q 388 816 388 1659 
Q 388 2403 628 3084 
Q 909 3875 1497 4659 
L 1900 4659 
Q 1522 4009 1400 3731 
Q 1209 3300 1100 2831 
Q 966 2247 966 1656 
Q 966 153 1900 -1347 
L 1497 -1347 
z
" transform="scale(0.015625)"/>
      <path id="ArialMT-61" d="M 2588 409 
Q 2275 144 1986 34 
Q 1697 -75 1366 -75 
Q 819 -75 525 192 
Q 231 459 231 875 
Q 231 1119 342 1320 
Q 453 1522 633 1644 
Q 813 1766 1038 1828 
Q 1203 1872 1538 1913 
Q 2219 1994 2541 2106 
Q 2544 2222 2544 2253 
Q 2544 2597 2384 2738 
Q 2169 2928 1744 2928 
Q 1347 2928 1158 2789 
Q 969 2650 878 2297 
L 328 2372 
Q 403 2725 575 2942 
Q 747 3159 1072 3276 
Q 1397 3394 1825 3394 
Q 2250 3394 2515 3294 
Q 2781 3194 2906 3042 
Q 3031 2891 3081 2659 
Q 3109 2516 3109 2141 
L 3109 1391 
Q 3109 606 3145 398 
Q 3181 191 3288 0 
L 2700 0 
Q 2613 175 2588 409 
z
M 2541 1666 
Q 2234 1541 1622 1453 
Q 1275 1403 1131 1340 
Q 988 1278 909 1158 
Q 831 1038 831 891 
Q 831 666 1001 516 
Q 1172 366 1500 366 
Q 1825 366 2078 508 
Q 2331 650 2450 897 
Q 2541 1088 2541 1459 
L 2541 1666 
z
" transform="scale(0.015625)"/>
      <path id="ArialMT-29" d="M 791 -1347 
L 388 -1347 
Q 1322 153 1322 1656 
Q 1322 2244 1188 2822 
Q 1081 3291 891 3722 
Q 769 4003 388 4659 
L 791 4659 
Q 1378 3875 1659 3084 
Q 1900 2403 1900 1659 
Q 1900 816 1576 28 
Q 1253 -759 791 -1347 
z
" transform="scale(0.015625)"/>
     </defs>
     <use xlink:href="#ArialMT-28"/>
     <use xlink:href="#ArialMT-61" transform="translate(33.300781 0)"/>
     <use xlink:href="#ArialMT-29" transform="translate(88.916016 0)"/>
    </g>
   </g>
  </g>
  <g id="axes_2">
   <g id="patch_7">
    <path d="M 419.3475 156.809625 
L 703.8 156.809625 
L 703.8 40.9 
L 419.3475 40.9 
z
" style="fill: #ffffff"/>
   </g>
   <g id="matplotlib.axis_3">
    <g id="xtick_6">
     <g id="line2d_16">
      <g>
       <use xlink:href="#maaa9d03b6b" x="419.3475" y="156.809625" style="fill: #262626; stroke: #262626; stroke-width: 0.8"/>
      </g>
     </g>
     <g id="line2d_17">
      <g>
       <use xlink:href="#me3b84c8afb" x="419.3475" y="40.9" style="fill: #262626; stroke: #262626; stroke-width: 0.8"/>
      </g>
     </g>
     <g id="text_10">
      <!-- 0 -->
      <g style="fill: #262626" transform="translate(415.176797 171.046344) scale(0.15 -0.15)">
       <use xlink:href="#ArialMT-30"/>
      </g>
     </g>
    </g>
    <g id="xtick_7">
     <g id="line2d_18">
      <g>
       <use xlink:href="#maaa9d03b6b" x="486.753306" y="156.809625" style="fill: #262626; stroke: #262626; stroke-width: 0.8"/>
      </g>
     </g>
     <g id="line2d_19">
      <g>
       <use xlink:href="#me3b84c8afb" x="486.753306" y="40.9" style="fill: #262626; stroke: #262626; stroke-width: 0.8"/>
      </g>
     </g>
     <g id="text_11">
      <!-- 50 -->
      <g style="fill: #262626" transform="translate(478.411899 171.046344) scale(0.15 -0.15)">
       <use xlink:href="#ArialMT-35"/>
       <use xlink:href="#ArialMT-30" transform="translate(55.615234 0)"/>
      </g>
     </g>
    </g>
    <g id="xtick_8">
     <g id="line2d_20">
      <g>
       <use xlink:href="#maaa9d03b6b" x="554.159111" y="156.809625" style="fill: #262626; stroke: #262626; stroke-width: 0.8"/>
      </g>
     </g>
     <g id="line2d_21">
      <g>
       <use xlink:href="#me3b84c8afb" x="554.159111" y="40.9" style="fill: #262626; stroke: #262626; stroke-width: 0.8"/>
      </g>
     </g>
     <g id="text_12">
      <!-- 100 -->
      <g style="fill: #262626" transform="translate(541.647002 171.046344) scale(0.15 -0.15)">
       <use xlink:href="#ArialMT-31"/>
       <use xlink:href="#ArialMT-30" transform="translate(55.615234 0)"/>
       <use xlink:href="#ArialMT-30" transform="translate(111.230469 0)"/>
      </g>
     </g>
    </g>
    <g id="xtick_9">
     <g id="line2d_22">
      <g>
       <use xlink:href="#maaa9d03b6b" x="621.564917" y="156.809625" style="fill: #262626; stroke: #262626; stroke-width: 0.8"/>
      </g>
     </g>
     <g id="line2d_23">
      <g>
       <use xlink:href="#me3b84c8afb" x="621.564917" y="40.9" style="fill: #262626; stroke: #262626; stroke-width: 0.8"/>
      </g>
     </g>
     <g id="text_13">
      <!-- 150 -->
      <g style="fill: #262626" transform="translate(609.052808 171.046344) scale(0.15 -0.15)">
       <use xlink:href="#ArialMT-31"/>
       <use xlink:href="#ArialMT-35" transform="translate(55.615234 0)"/>
       <use xlink:href="#ArialMT-30" transform="translate(111.230469 0)"/>
      </g>
     </g>
    </g>
    <g id="xtick_10">
     <g id="line2d_24">
      <g>
       <use xlink:href="#maaa9d03b6b" x="688.970723" y="156.809625" style="fill: #262626; stroke: #262626; stroke-width: 0.8"/>
      </g>
     </g>
     <g id="line2d_25">
      <g>
       <use xlink:href="#me3b84c8afb" x="688.970723" y="40.9" style="fill: #262626; stroke: #262626; stroke-width: 0.8"/>
      </g>
     </g>
     <g id="text_14">
      <!-- 200 -->
      <g style="fill: #262626" transform="translate(676.458613 171.046344) scale(0.15 -0.15)">
       <use xlink:href="#ArialMT-32"/>
       <use xlink:href="#ArialMT-30" transform="translate(55.615234 0)"/>
       <use xlink:href="#ArialMT-30" transform="translate(111.230469 0)"/>
      </g>
     </g>
    </g>
   </g>
   <g id="matplotlib.axis_4">
    <g id="ytick_3">
     <g id="line2d_26">
      <g>
       <use xlink:href="#m6de2206241" x="419.3475" y="128.415007" style="fill: #262626; stroke: #262626; stroke-width: 0.8"/>
      </g>
     </g>
     <g id="line2d_27">
      <g>
       <use xlink:href="#m2ebc78dd16" x="703.8" y="128.415007" style="fill: #262626; stroke: #262626; stroke-width: 0.8"/>
      </g>
     </g>
     <g id="text_15">
      <!-- 0.25 -->
      <g style="fill: #262626" transform="translate(386.656094 133.783367) scale(0.15 -0.15)">
       <defs>
        <path id="ArialMT-2e" d="M 581 0 
L 581 641 
L 1222 641 
L 1222 0 
L 581 0 
z
" transform="scale(0.015625)"/>
       </defs>
       <use xlink:href="#ArialMT-30"/>
       <use xlink:href="#ArialMT-2e" transform="translate(55.615234 0)"/>
       <use xlink:href="#ArialMT-32" transform="translate(83.398438 0)"/>
       <use xlink:href="#ArialMT-35" transform="translate(139.013672 0)"/>
      </g>
     </g>
    </g>
    <g id="ytick_4">
     <g id="line2d_28">
      <g>
       <use xlink:href="#m6de2206241" x="419.3475" y="87.959889" style="fill: #262626; stroke: #262626; stroke-width: 0.8"/>
      </g>
     </g>
     <g id="line2d_29">
      <g>
       <use xlink:href="#m2ebc78dd16" x="703.8" y="87.959889" style="fill: #262626; stroke: #262626; stroke-width: 0.8"/>
      </g>
     </g>
     <g id="text_16">
      <!-- 0.26 -->
      <g style="fill: #262626" transform="translate(386.656094 93.328249) scale(0.15 -0.15)">
       <defs>
        <path id="ArialMT-36" d="M 3184 3459 
L 2625 3416 
Q 2550 3747 2413 3897 
Q 2184 4138 1850 4138 
Q 1581 4138 1378 3988 
Q 1113 3794 959 3422 
Q 806 3050 800 2363 
Q 1003 2672 1297 2822 
Q 1591 2972 1913 2972 
Q 2475 2972 2870 2558 
Q 3266 2144 3266 1488 
Q 3266 1056 3080 686 
Q 2894 316 2569 119 
Q 2244 -78 1831 -78 
Q 1128 -78 684 439 
Q 241 956 241 2144 
Q 241 3472 731 4075 
Q 1159 4600 1884 4600 
Q 2425 4600 2770 4297 
Q 3116 3994 3184 3459 
z
M 888 1484 
Q 888 1194 1011 928 
Q 1134 663 1356 523 
Q 1578 384 1822 384 
Q 2178 384 2434 671 
Q 2691 959 2691 1453 
Q 2691 1928 2437 2201 
Q 2184 2475 1800 2475 
Q 1419 2475 1153 2201 
Q 888 1928 888 1484 
z
" transform="scale(0.015625)"/>
       </defs>
       <use xlink:href="#ArialMT-30"/>
       <use xlink:href="#ArialMT-2e" transform="translate(55.615234 0)"/>
       <use xlink:href="#ArialMT-32" transform="translate(83.398438 0)"/>
       <use xlink:href="#ArialMT-36" transform="translate(139.013672 0)"/>
      </g>
     </g>
    </g>
    <g id="ytick_5">
     <g id="line2d_30">
      <g>
       <use xlink:href="#m6de2206241" x="419.3475" y="47.504771" style="fill: #262626; stroke: #262626; stroke-width: 0.8"/>
      </g>
     </g>
     <g id="line2d_31">
      <g>
       <use xlink:href="#m2ebc78dd16" x="703.8" y="47.504771" style="fill: #262626; stroke: #262626; stroke-width: 0.8"/>
      </g>
     </g>
     <g id="text_17">
      <!-- 0.27 -->
      <g style="fill: #262626" transform="translate(386.656094 52.873131) scale(0.15 -0.15)">
       <defs>
        <path id="ArialMT-37" d="M 303 3981 
L 303 4522 
L 3269 4522 
L 3269 4084 
Q 2831 3619 2401 2847 
Q 1972 2075 1738 1259 
Q 1569 684 1522 0 
L 944 0 
Q 953 541 1156 1306 
Q 1359 2072 1739 2783 
Q 2119 3494 2547 3981 
L 303 3981 
z
" transform="scale(0.015625)"/>
       </defs>
       <use xlink:href="#ArialMT-30"/>
       <use xlink:href="#ArialMT-2e" transform="translate(55.615234 0)"/>
       <use xlink:href="#ArialMT-32" transform="translate(83.398438 0)"/>
       <use xlink:href="#ArialMT-37" transform="translate(139.013672 0)"/>
      </g>
     </g>
    </g>
    <g id="text_18">
     <!-- $\hat{\alpha}$ -->
     <g style="fill: #262626" transform="translate(379.674844 103.804813) rotate(-90) scale(0.15 -0.15)">
      <defs>
       <path id="DejaVuSans-302" d="M -1831 5119 
L -1369 5119 
L -603 3944 
L -1038 3944 
L -1600 4709 
L -2163 3944 
L -2597 3944 
L -1831 5119 
z
M -1600 3584 
L -1600 3584 
z
" transform="scale(0.015625)"/>
       <path id="DejaVuSans-Oblique-3b1" d="M 2619 1628 
L 2622 2350 
Q 2625 3088 2069 3091 
Q 1653 3094 1394 2747 
Q 1069 2319 959 1747 
Q 825 1059 994 731 
Q 1169 397 1547 397 
Q 1966 397 2319 1063 
L 2619 1628 
z
M 2166 3578 
Q 3141 3594 3128 2584 
Q 3128 2584 3616 3500 
L 4128 3500 
L 3119 1603 
L 3109 919 
Q 3109 766 3194 638 
Q 3291 488 3391 488 
L 3669 488 
L 3575 0 
L 3228 0 
Q 2934 0 2722 263 
Q 2622 394 2619 669 
Q 2416 334 2066 50 
Q 1900 -81 1453 -78 
Q 722 -72 456 397 
Q 184 884 353 1747 
Q 534 2675 1009 3097 
Q 1544 3569 2166 3578 
z
" transform="scale(0.015625)"/>
      </defs>
      <use xlink:href="#DejaVuSans-302" transform="translate(66.057617 13.015625)"/>
      <use xlink:href="#DejaVuSans-Oblique-3b1" transform="translate(0 0.359375)"/>
     </g>
    </g>
   </g>
   <g id="line2d_32">
    <path d="M 419.3475 112.107901 
L 420.695616 143.688083 
L 422.043732 151.541006 
L 423.391848 142.784504 
L 424.739964 125.454397 
L 427.436197 82.880738 
L 428.784313 64.869677 
L 430.132429 52.554861 
L 431.480545 46.507288 
L 432.828661 46.168619 
L 434.176777 50.763979 
L 435.524893 58.7699 
L 438.221126 77.482532 
L 439.569242 84.08531 
L 440.917358 86.673734 
L 442.265474 84.915645 
L 443.61359 79.565183 
L 446.309822 64.337501 
L 447.657938 58.575789 
L 449.006055 56.283836 
L 450.354171 58.148263 
L 451.702287 63.992201 
L 453.050403 72.898023 
L 455.746635 93.532231 
L 457.094751 101.408664 
L 458.442867 105.563598 
L 459.790983 105.53647 
L 461.1391 102.333282 
L 462.487216 97.013082 
L 463.835332 90.943445 
L 465.183448 85.48146 
L 466.531564 81.643011 
L 467.87968 79.873831 
L 469.227796 79.997773 
L 470.575912 81.354136 
L 471.924028 83.034218 
L 473.272145 84.151018 
L 474.620261 84.556963 
L 475.968377 83.892887 
L 477.316493 82.190741 
L 480.012725 77.463362 
L 481.360841 75.727699 
L 482.708957 75.153807 
L 484.057073 75.989327 
L 485.40519 78.142991 
L 486.753306 81.196798 
L 489.449538 88.891418 
L 490.797654 91.89073 
L 492.14577 93.556103 
L 493.493886 93.803504 
L 494.842002 92.999572 
L 496.190118 91.849617 
L 497.538235 91.223037 
L 498.886351 92.128967 
L 500.234467 96.277872 
L 501.582583 105.914444 
L 502.930699 109.118476 
L 504.278815 103.356523 
L 505.626931 90.518331 
L 508.323164 59.250957 
L 509.67128 49.174321 
L 511.019396 46.432899 
L 512.367512 51.300496 
L 513.715628 62.396755 
L 516.41186 93.11845 
L 517.759976 105.495357 
L 519.108092 111.881117 
L 520.456209 111.610447 
L 521.804325 105.973641 
L 524.500557 88.587834 
L 525.848673 82.16916 
L 527.196789 79.561566 
L 528.544905 81.210301 
L 529.893021 85.855575 
L 531.241137 91.478275 
L 532.589254 95.939445 
L 533.93737 97.655335 
L 535.285486 96.0834 
L 536.633602 91.815617 
L 537.981718 86.269356 
L 539.329834 81.201138 
L 540.67795 78.158544 
L 542.026066 78.297074 
L 543.374182 81.477836 
L 544.722299 86.69435 
L 546.070415 92.401325 
L 547.418531 96.986196 
L 548.766647 99.27212 
L 550.114763 98.866296 
L 551.462879 96.226029 
L 554.159111 88.743002 
L 555.507227 86.542076 
L 556.855344 86.251151 
L 558.20346 87.614387 
L 560.899692 91.976814 
L 562.247808 93.129059 
L 563.595924 92.886843 
L 564.94404 91.372056 
L 567.640273 87.06304 
L 568.988389 85.998084 
L 570.336505 86.30625 
L 571.684621 87.858291 
L 574.380853 92.414467 
L 575.728969 94.023536 
L 577.077085 94.56355 
L 578.425201 94.017508 
L 579.773318 92.718292 
L 581.121434 91.20881 
L 582.46955 90.204378 
L 583.817666 89.965899 
L 585.165782 90.442133 
L 587.862014 92.137166 
L 589.21013 92.538288 
L 590.558246 92.330674 
L 591.906363 91.584734 
L 594.602595 89.678591 
L 595.950711 89.334617 
L 597.298827 89.639166 
L 598.646943 90.453226 
L 599.995059 91.459828 
L 601.343175 92.310419 
L 602.691291 92.740959 
L 604.039408 92.66657 
L 605.387524 92.196725 
L 608.083756 91.031217 
L 609.431872 90.870021 
L 610.779988 91.094635 
L 613.47622 92.02721 
L 614.824336 92.284738 
L 616.172453 92.225058 
L 617.520569 91.873007 
L 620.216801 90.952126 
L 621.564917 90.748491 
L 622.913033 90.876411 
L 628.305498 92.305717 
L 629.653614 92.20842 
L 633.697962 91.31961 
L 635.046078 91.234491 
L 636.394194 91.331787 
L 640.438543 91.87168 
L 641.786659 91.83961 
L 647.179123 91.256916 
L 653.919704 91.684562 
L 660.660284 91.427517 
L 663.356517 91.447651 
L 667.400865 91.283441 
L 703.8 91.283441 
L 703.8 91.283441 
" clip-path="url(#pd8126969d2)" style="fill: none; stroke: #000000; stroke-width: 2; stroke-linecap: round"/>
   </g>
   <g id="patch_8">
    <path d="M 419.3475 156.809625 
L 419.3475 40.9 
" style="fill: none; stroke: #262626; stroke-width: 1.5; stroke-linejoin: miter; stroke-linecap: square"/>
   </g>
   <g id="patch_9">
    <path d="M 703.8 156.809625 
L 703.8 40.9 
" style="fill: none; stroke: #262626; stroke-width: 1.5; stroke-linejoin: miter; stroke-linecap: square"/>
   </g>
   <g id="patch_10">
    <path d="M 419.3475 156.809625 
L 703.8 156.809625 
" style="fill: none; stroke: #262626; stroke-width: 1.5; stroke-linejoin: miter; stroke-linecap: square"/>
   </g>
   <g id="patch_11">
    <path d="M 419.3475 40.9 
L 703.8 40.9 
" style="fill: none; stroke: #262626; stroke-width: 1.5; stroke-linejoin: miter; stroke-linecap: square"/>
   </g>
   <g id="text_19">
    <!-- (b) -->
    <g style="fill: #262626" transform="translate(419.3475 30.9) scale(0.2 -0.2)">
     <defs>
      <path id="ArialMT-62" d="M 941 0 
L 419 0 
L 419 4581 
L 981 4581 
L 981 2947 
Q 1338 3394 1891 3394 
Q 2197 3394 2470 3270 
Q 2744 3147 2920 2923 
Q 3097 2700 3197 2384 
Q 3297 2069 3297 1709 
Q 3297 856 2875 390 
Q 2453 -75 1863 -75 
Q 1275 -75 941 416 
L 941 0 
z
M 934 1684 
Q 934 1088 1097 822 
Q 1363 388 1816 388 
Q 2184 388 2453 708 
Q 2722 1028 2722 1663 
Q 2722 2313 2464 2622 
Q 2206 2931 1841 2931 
Q 1472 2931 1203 2611 
Q 934 2291 934 1684 
z
" transform="scale(0.015625)"/>
     </defs>
     <use xlink:href="#ArialMT-28"/>
     <use xlink:href="#ArialMT-62" transform="translate(33.300781 0)"/>
     <use xlink:href="#ArialMT-29" transform="translate(88.916016 0)"/>
    </g>
   </g>
  </g>
  <g id="axes_3">
   <g id="patch_12">
    <path d="M 67.38 349.714813 
L 351.8325 349.714813 
L 351.8325 233.805188 
L 67.38 233.805188 
z
" style="fill: #ffffff"/>
   </g>
   <g id="matplotlib.axis_5">
    <g id="xtick_11">
     <g id="line2d_33">
      <g>
       <use xlink:href="#maaa9d03b6b" x="67.38" y="349.714813" style="fill: #262626; stroke: #262626; stroke-width: 0.8"/>
      </g>
     </g>
     <g id="line2d_34">
      <g>
       <use xlink:href="#me3b84c8afb" x="67.38" y="233.805188" style="fill: #262626; stroke: #262626; stroke-width: 0.8"/>
      </g>
     </g>
     <g id="text_20">
      <!-- 0 -->
      <g style="fill: #262626" transform="translate(63.209297 363.951531) scale(0.15 -0.15)">
       <use xlink:href="#ArialMT-30"/>
      </g>
     </g>
    </g>
    <g id="xtick_12">
     <g id="line2d_35">
      <g>
       <use xlink:href="#maaa9d03b6b" x="134.785806" y="349.714813" style="fill: #262626; stroke: #262626; stroke-width: 0.8"/>
      </g>
     </g>
     <g id="line2d_36">
      <g>
       <use xlink:href="#me3b84c8afb" x="134.785806" y="233.805188" style="fill: #262626; stroke: #262626; stroke-width: 0.8"/>
      </g>
     </g>
     <g id="text_21">
      <!-- 50 -->
      <g style="fill: #262626" transform="translate(126.444399 363.951531) scale(0.15 -0.15)">
       <use xlink:href="#ArialMT-35"/>
       <use xlink:href="#ArialMT-30" transform="translate(55.615234 0)"/>
      </g>
     </g>
    </g>
    <g id="xtick_13">
     <g id="line2d_37">
      <g>
       <use xlink:href="#maaa9d03b6b" x="202.191611" y="349.714813" style="fill: #262626; stroke: #262626; stroke-width: 0.8"/>
      </g>
     </g>
     <g id="line2d_38">
      <g>
       <use xlink:href="#me3b84c8afb" x="202.191611" y="233.805188" style="fill: #262626; stroke: #262626; stroke-width: 0.8"/>
      </g>
     </g>
     <g id="text_22">
      <!-- 100 -->
      <g style="fill: #262626" transform="translate(189.679502 363.951531) scale(0.15 -0.15)">
       <use xlink:href="#ArialMT-31"/>
       <use xlink:href="#ArialMT-30" transform="translate(55.615234 0)"/>
       <use xlink:href="#ArialMT-30" transform="translate(111.230469 0)"/>
      </g>
     </g>
    </g>
    <g id="xtick_14">
     <g id="line2d_39">
      <g>
       <use xlink:href="#maaa9d03b6b" x="269.597417" y="349.714813" style="fill: #262626; stroke: #262626; stroke-width: 0.8"/>
      </g>
     </g>
     <g id="line2d_40">
      <g>
       <use xlink:href="#me3b84c8afb" x="269.597417" y="233.805188" style="fill: #262626; stroke: #262626; stroke-width: 0.8"/>
      </g>
     </g>
     <g id="text_23">
      <!-- 150 -->
      <g style="fill: #262626" transform="translate(257.085308 363.951531) scale(0.15 -0.15)">
       <use xlink:href="#ArialMT-31"/>
       <use xlink:href="#ArialMT-35" transform="translate(55.615234 0)"/>
       <use xlink:href="#ArialMT-30" transform="translate(111.230469 0)"/>
      </g>
     </g>
    </g>
    <g id="xtick_15">
     <g id="line2d_41">
      <g>
       <use xlink:href="#maaa9d03b6b" x="337.003223" y="349.714813" style="fill: #262626; stroke: #262626; stroke-width: 0.8"/>
      </g>
     </g>
     <g id="line2d_42">
      <g>
       <use xlink:href="#me3b84c8afb" x="337.003223" y="233.805188" style="fill: #262626; stroke: #262626; stroke-width: 0.8"/>
      </g>
     </g>
     <g id="text_24">
      <!-- 200 -->
      <g style="fill: #262626" transform="translate(324.491113 363.951531) scale(0.15 -0.15)">
       <use xlink:href="#ArialMT-32"/>
       <use xlink:href="#ArialMT-30" transform="translate(55.615234 0)"/>
       <use xlink:href="#ArialMT-30" transform="translate(111.230469 0)"/>
      </g>
     </g>
    </g>
   </g>
   <g id="matplotlib.axis_6">
    <g id="ytick_6">
     <g id="line2d_43">
      <g>
       <use xlink:href="#m6de2206241" x="67.38" y="337.713893" style="fill: #262626; stroke: #262626; stroke-width: 0.8"/>
      </g>
     </g>
     <g id="line2d_44">
      <g>
       <use xlink:href="#m2ebc78dd16" x="351.8325" y="337.713893" style="fill: #262626; stroke: #262626; stroke-width: 0.8"/>
      </g>
     </g>
     <g id="text_25">
      <!-- 0.90 -->
      <g style="fill: #262626" transform="translate(34.688594 343.082252) scale(0.15 -0.15)">
       <defs>
        <path id="ArialMT-39" d="M 350 1059 
L 891 1109 
Q 959 728 1153 556 
Q 1347 384 1650 384 
Q 1909 384 2104 503 
Q 2300 622 2425 820 
Q 2550 1019 2634 1356 
Q 2719 1694 2719 2044 
Q 2719 2081 2716 2156 
Q 2547 1888 2255 1720 
Q 1963 1553 1622 1553 
Q 1053 1553 659 1965 
Q 266 2378 266 3053 
Q 266 3750 677 4175 
Q 1088 4600 1706 4600 
Q 2153 4600 2523 4359 
Q 2894 4119 3086 3673 
Q 3278 3228 3278 2384 
Q 3278 1506 3087 986 
Q 2897 466 2520 194 
Q 2144 -78 1638 -78 
Q 1100 -78 759 220 
Q 419 519 350 1059 
z
M 2653 3081 
Q 2653 3566 2395 3850 
Q 2138 4134 1775 4134 
Q 1400 4134 1122 3828 
Q 844 3522 844 3034 
Q 844 2597 1108 2323 
Q 1372 2050 1759 2050 
Q 2150 2050 2401 2323 
Q 2653 2597 2653 3081 
z
" transform="scale(0.015625)"/>
       </defs>
       <use xlink:href="#ArialMT-30"/>
       <use xlink:href="#ArialMT-2e" transform="translate(55.615234 0)"/>
       <use xlink:href="#ArialMT-39" transform="translate(83.398438 0)"/>
       <use xlink:href="#ArialMT-30" transform="translate(139.013672 0)"/>
      </g>
     </g>
    </g>
    <g id="ytick_7">
     <g id="line2d_45">
      <g>
       <use xlink:href="#m6de2206241" x="67.38" y="287.895674" style="fill: #262626; stroke: #262626; stroke-width: 0.8"/>
      </g>
     </g>
     <g id="line2d_46">
      <g>
       <use xlink:href="#m2ebc78dd16" x="351.8325" y="287.895674" style="fill: #262626; stroke: #262626; stroke-width: 0.8"/>
      </g>
     </g>
     <g id="text_26">
      <!-- 0.95 -->
      <g style="fill: #262626" transform="translate(34.688594 293.264033) scale(0.15 -0.15)">
       <use xlink:href="#ArialMT-30"/>
       <use xlink:href="#ArialMT-2e" transform="translate(55.615234 0)"/>
       <use xlink:href="#ArialMT-39" transform="translate(83.398438 0)"/>
       <use xlink:href="#ArialMT-35" transform="translate(139.013672 0)"/>
      </g>
     </g>
    </g>
    <g id="ytick_8">
     <g id="line2d_47">
      <g>
       <use xlink:href="#m6de2206241" x="67.38" y="238.077455" style="fill: #262626; stroke: #262626; stroke-width: 0.8"/>
      </g>
     </g>
     <g id="line2d_48">
      <g>
       <use xlink:href="#m2ebc78dd16" x="351.8325" y="238.077455" style="fill: #262626; stroke: #262626; stroke-width: 0.8"/>
      </g>
     </g>
     <g id="text_27">
      <!-- 1.00 -->
      <g style="fill: #262626" transform="translate(34.688594 243.445815) scale(0.15 -0.15)">
       <use xlink:href="#ArialMT-31"/>
       <use xlink:href="#ArialMT-2e" transform="translate(55.615234 0)"/>
       <use xlink:href="#ArialMT-30" transform="translate(83.398438 0)"/>
       <use xlink:href="#ArialMT-30" transform="translate(139.013672 0)"/>
      </g>
     </g>
    </g>
    <g id="text_28">
     <!-- $\hat{\sigma}$ -->
     <g style="fill: #262626" transform="translate(27.707344 296.56) rotate(-90) scale(0.15 -0.15)">
      <defs>
       <path id="DejaVuSans-Oblique-3c3" d="M 2219 3044 
Q 1744 3044 1422 2700 
Q 1081 2341 969 1747 
Q 844 1119 1044 756 
Q 1241 397 1706 397 
Q 2166 397 2503 759 
Q 2844 1122 2966 1747 
Q 3075 2319 2881 2700 
Q 2700 3044 2219 3044 
z
M 2309 3503 
L 4219 3500 
L 4106 2925 
L 3463 2925 
Q 3706 2438 3575 1747 
Q 3406 888 2884 400 
Q 2359 -91 1609 -91 
Q 856 -91 525 400 
Q 194 888 363 1747 
Q 528 2609 1050 3097 
Q 1484 3503 2309 3503 
z
" transform="scale(0.015625)"/>
      </defs>
      <use xlink:href="#DejaVuSans-302" transform="translate(64.422852 12.015625)"/>
      <use xlink:href="#DejaVuSans-Oblique-3c3" transform="translate(0 0.78125)"/>
     </g>
    </g>
   </g>
   <g id="line2d_49">
    <path d="M 67.38 344.446193 
L 68.728116 343.609179 
L 70.076232 338.340578 
L 71.424348 331.264979 
L 74.120581 314.668187 
L 82.209277 261.266369 
L 84.905509 245.699363 
L 86.253626 239.073807 
L 114.564064 239.123633 
L 115.91218 239.552949 
L 117.260296 240.2776 
L 122.652761 243.904303 
L 124.000877 244.560243 
L 125.348993 244.993419 
L 126.697109 245.186727 
L 128.045225 245.154242 
L 129.393341 244.937476 
L 134.785806 243.594061 
L 136.133922 243.552727 
L 137.482038 243.78921 
L 138.830154 244.357196 
L 140.17827 245.31251 
L 141.526386 246.68942 
L 142.874502 248.560081 
L 144.222618 251.089473 
L 145.570735 254.51004 
L 146.918851 259.313575 
L 148.266967 266.552846 
L 149.615083 276.655805 
L 150.963199 285.830351 
L 152.311315 292.543208 
L 153.659431 296.29421 
L 155.007547 297.195125 
L 156.355664 295.646644 
L 157.70378 292.134203 
L 159.051896 287.131363 
L 160.400012 281.067794 
L 163.096244 267.228325 
L 165.792476 253.102665 
L 167.140592 246.531329 
L 168.488709 240.552507 
L 169.836825 239.073807 
L 188.71045 239.17055 
L 190.058566 239.430728 
L 191.406682 239.855768 
L 194.102915 241.126432 
L 198.147263 243.592042 
L 204.887844 247.765351 
L 206.23596 248.468564 
L 207.584076 249.034056 
L 208.932192 249.413782 
L 210.280308 249.573477 
L 211.628424 249.500964 
L 212.97654 249.210082 
L 214.324656 248.733018 
L 217.020889 247.429334 
L 221.065237 245.34262 
L 223.761469 244.239667 
L 226.457701 243.534376 
L 227.805818 243.361379 
L 229.153934 243.317669 
L 230.50205 243.412274 
L 233.198282 243.941183 
L 239.938863 245.718249 
L 242.635095 246.093818 
L 245.331327 246.261886 
L 248.027559 246.264618 
L 252.071908 246.023562 
L 258.812488 245.545074 
L 270.945533 245.259774 
L 277.686114 245.38532 
L 291.167275 245.651437 
L 312.737133 245.37855 
L 351.8325 245.381222 
L 351.8325 245.381222 
" clip-path="url(#p55f6d35789)" style="fill: none; stroke: #000000; stroke-width: 2; stroke-linecap: round"/>
   </g>
   <g id="patch_13">
    <path d="M 67.38 349.714813 
L 67.38 233.805188 
" style="fill: none; stroke: #262626; stroke-width: 1.5; stroke-linejoin: miter; stroke-linecap: square"/>
   </g>
   <g id="patch_14">
    <path d="M 351.8325 349.714813 
L 351.8325 233.805188 
" style="fill: none; stroke: #262626; stroke-width: 1.5; stroke-linejoin: miter; stroke-linecap: square"/>
   </g>
   <g id="patch_15">
    <path d="M 67.38 349.714813 
L 351.8325 349.714813 
" style="fill: none; stroke: #262626; stroke-width: 1.5; stroke-linejoin: miter; stroke-linecap: square"/>
   </g>
   <g id="patch_16">
    <path d="M 67.38 233.805188 
L 351.8325 233.805188 
" style="fill: none; stroke: #262626; stroke-width: 1.5; stroke-linejoin: miter; stroke-linecap: square"/>
   </g>
   <g id="text_29">
    <!-- (c) -->
    <g style="fill: #262626" transform="translate(67.38 223.805188) scale(0.2 -0.2)">
     <defs>
      <path id="ArialMT-63" d="M 2588 1216 
L 3141 1144 
Q 3050 572 2676 248 
Q 2303 -75 1759 -75 
Q 1078 -75 664 370 
Q 250 816 250 1647 
Q 250 2184 428 2587 
Q 606 2991 970 3192 
Q 1334 3394 1763 3394 
Q 2303 3394 2647 3120 
Q 2991 2847 3088 2344 
L 2541 2259 
Q 2463 2594 2264 2762 
Q 2066 2931 1784 2931 
Q 1359 2931 1093 2626 
Q 828 2322 828 1663 
Q 828 994 1084 691 
Q 1341 388 1753 388 
Q 2084 388 2306 591 
Q 2528 794 2588 1216 
z
" transform="scale(0.015625)"/>
     </defs>
     <use xlink:href="#ArialMT-28"/>
     <use xlink:href="#ArialMT-63" transform="translate(33.300781 0)"/>
     <use xlink:href="#ArialMT-29" transform="translate(83.300781 0)"/>
    </g>
   </g>
  </g>
  <g id="axes_4">
   <g id="patch_17">
    <path d="M 419.3475 349.714813 
L 703.8 349.714813 
L 703.8 233.805188 
L 419.3475 233.805188 
z
" style="fill: #ffffff"/>
   </g>
   <g id="matplotlib.axis_7">
    <g id="xtick_16">
     <g id="line2d_50">
      <g>
       <use xlink:href="#maaa9d03b6b" x="419.3475" y="349.714813" style="fill: #262626; stroke: #262626; stroke-width: 0.8"/>
      </g>
     </g>
     <g id="line2d_51">
      <g>
       <use xlink:href="#me3b84c8afb" x="419.3475" y="233.805188" style="fill: #262626; stroke: #262626; stroke-width: 0.8"/>
      </g>
     </g>
     <g id="text_30">
      <!-- 0 -->
      <g style="fill: #262626" transform="translate(415.176797 363.951531) scale(0.15 -0.15)">
       <use xlink:href="#ArialMT-30"/>
      </g>
     </g>
    </g>
    <g id="xtick_17">
     <g id="line2d_52">
      <g>
       <use xlink:href="#maaa9d03b6b" x="486.753306" y="349.714813" style="fill: #262626; stroke: #262626; stroke-width: 0.8"/>
      </g>
     </g>
     <g id="line2d_53">
      <g>
       <use xlink:href="#me3b84c8afb" x="486.753306" y="233.805188" style="fill: #262626; stroke: #262626; stroke-width: 0.8"/>
      </g>
     </g>
     <g id="text_31">
      <!-- 50 -->
      <g style="fill: #262626" transform="translate(478.411899 363.951531) scale(0.15 -0.15)">
       <use xlink:href="#ArialMT-35"/>
       <use xlink:href="#ArialMT-30" transform="translate(55.615234 0)"/>
      </g>
     </g>
    </g>
    <g id="xtick_18">
     <g id="line2d_54">
      <g>
       <use xlink:href="#maaa9d03b6b" x="554.159111" y="349.714813" style="fill: #262626; stroke: #262626; stroke-width: 0.8"/>
      </g>
     </g>
     <g id="line2d_55">
      <g>
       <use xlink:href="#me3b84c8afb" x="554.159111" y="233.805188" style="fill: #262626; stroke: #262626; stroke-width: 0.8"/>
      </g>
     </g>
     <g id="text_32">
      <!-- 100 -->
      <g style="fill: #262626" transform="translate(541.647002 363.951531) scale(0.15 -0.15)">
       <use xlink:href="#ArialMT-31"/>
       <use xlink:href="#ArialMT-30" transform="translate(55.615234 0)"/>
       <use xlink:href="#ArialMT-30" transform="translate(111.230469 0)"/>
      </g>
     </g>
    </g>
    <g id="xtick_19">
     <g id="line2d_56">
      <g>
       <use xlink:href="#maaa9d03b6b" x="621.564917" y="349.714813" style="fill: #262626; stroke: #262626; stroke-width: 0.8"/>
      </g>
     </g>
     <g id="line2d_57">
      <g>
       <use xlink:href="#me3b84c8afb" x="621.564917" y="233.805188" style="fill: #262626; stroke: #262626; stroke-width: 0.8"/>
      </g>
     </g>
     <g id="text_33">
      <!-- 150 -->
      <g style="fill: #262626" transform="translate(609.052808 363.951531) scale(0.15 -0.15)">
       <use xlink:href="#ArialMT-31"/>
       <use xlink:href="#ArialMT-35" transform="translate(55.615234 0)"/>
       <use xlink:href="#ArialMT-30" transform="translate(111.230469 0)"/>
      </g>
     </g>
    </g>
    <g id="xtick_20">
     <g id="line2d_58">
      <g>
       <use xlink:href="#maaa9d03b6b" x="688.970723" y="349.714813" style="fill: #262626; stroke: #262626; stroke-width: 0.8"/>
      </g>
     </g>
     <g id="line2d_59">
      <g>
       <use xlink:href="#me3b84c8afb" x="688.970723" y="233.805188" style="fill: #262626; stroke: #262626; stroke-width: 0.8"/>
      </g>
     </g>
     <g id="text_34">
      <!-- 200 -->
      <g style="fill: #262626" transform="translate(676.458613 363.951531) scale(0.15 -0.15)">
       <use xlink:href="#ArialMT-32"/>
       <use xlink:href="#ArialMT-30" transform="translate(55.615234 0)"/>
       <use xlink:href="#ArialMT-30" transform="translate(111.230469 0)"/>
      </g>
     </g>
    </g>
   </g>
   <g id="matplotlib.axis_8">
    <g id="ytick_9">
     <g id="line2d_60">
      <g>
       <use xlink:href="#m6de2206241" x="419.3475" y="345.06069" style="fill: #262626; stroke: #262626; stroke-width: 0.8"/>
      </g>
     </g>
     <g id="line2d_61">
      <g>
       <use xlink:href="#m2ebc78dd16" x="703.8" y="345.06069" style="fill: #262626; stroke: #262626; stroke-width: 0.8"/>
      </g>
     </g>
     <g id="text_35">
      <!-- $\mathdefault{0}$ -->
      <g style="fill: #262626" transform="translate(407.4475 350.429049) scale(0.15 -0.15)">
       <use xlink:href="#ArialMT-30" transform="translate(0 0.125)"/>
      </g>
     </g>
    </g>
    <g id="ytick_10">
     <g id="line2d_62">
      <g>
       <use xlink:href="#m6de2206241" x="419.3475" y="271.900221" style="fill: #262626; stroke: #262626; stroke-width: 0.8"/>
      </g>
     </g>
     <g id="line2d_63">
      <g>
       <use xlink:href="#m2ebc78dd16" x="703.8" y="271.900221" style="fill: #262626; stroke: #262626; stroke-width: 0.8"/>
      </g>
     </g>
     <g id="text_36">
      <!-- $\mathdefault{5}$ -->
      <g style="fill: #262626" transform="translate(407.4475 277.26858) scale(0.15 -0.15)">
       <use xlink:href="#ArialMT-35" transform="translate(0 0.390625)"/>
      </g>
     </g>
    </g>
    <g id="text_37">
     <!-- $\hat{z}_{0m}$ (m) -->
     <g style="fill: #262626" transform="translate(400.1475 317.785) rotate(-90) scale(0.15 -0.15)">
      <defs>
       <path id="DejaVuSans-Oblique-7a" d="M 744 3500 
L 3475 3500 
L 3372 2975 
L 738 459 
L 2913 459 
L 2822 0 
L -19 0 
L 84 525 
L 2719 3041 
L 653 3041 
L 744 3500 
z
" transform="scale(0.015625)"/>
       <path id="DejaVuSans-30" d="M 2034 4250 
Q 1547 4250 1301 3770 
Q 1056 3291 1056 2328 
Q 1056 1369 1301 889 
Q 1547 409 2034 409 
Q 2525 409 2770 889 
Q 3016 1369 3016 2328 
Q 3016 3291 2770 3770 
Q 2525 4250 2034 4250 
z
M 2034 4750 
Q 2819 4750 3233 4129 
Q 3647 3509 3647 2328 
Q 3647 1150 3233 529 
Q 2819 -91 2034 -91 
Q 1250 -91 836 529 
Q 422 1150 422 2328 
Q 422 3509 836 4129 
Q 1250 4750 2034 4750 
z
" transform="scale(0.015625)"/>
       <path id="DejaVuSans-Oblique-6d" d="M 5747 2113 
L 5338 0 
L 4763 0 
L 5166 2094 
Q 5191 2228 5203 2325 
Q 5216 2422 5216 2491 
Q 5216 2772 5059 2928 
Q 4903 3084 4622 3084 
Q 4203 3084 3875 2770 
Q 3547 2456 3450 1953 
L 3066 0 
L 2491 0 
L 2900 2094 
Q 2925 2209 2937 2307 
Q 2950 2406 2950 2484 
Q 2950 2769 2794 2926 
Q 2638 3084 2363 3084 
Q 1938 3084 1609 2770 
Q 1281 2456 1184 1953 
L 800 0 
L 225 0 
L 909 3500 
L 1484 3500 
L 1375 2956 
Q 1609 3263 1923 3423 
Q 2238 3584 2597 3584 
Q 2978 3584 3223 3384 
Q 3469 3184 3519 2828 
Q 3781 3197 4126 3390 
Q 4472 3584 4856 3584 
Q 5306 3584 5551 3325 
Q 5797 3066 5797 2591 
Q 5797 2488 5784 2364 
Q 5772 2241 5747 2113 
z
" transform="scale(0.015625)"/>
       <path id="ArialMT-6d" d="M 422 0 
L 422 3319 
L 925 3319 
L 925 2853 
Q 1081 3097 1340 3245 
Q 1600 3394 1931 3394 
Q 2300 3394 2536 3241 
Q 2772 3088 2869 2813 
Q 3263 3394 3894 3394 
Q 4388 3394 4653 3120 
Q 4919 2847 4919 2278 
L 4919 0 
L 4359 0 
L 4359 2091 
Q 4359 2428 4304 2576 
Q 4250 2725 4106 2815 
Q 3963 2906 3769 2906 
Q 3419 2906 3187 2673 
Q 2956 2441 2956 1928 
L 2956 0 
L 2394 0 
L 2394 2156 
Q 2394 2531 2256 2718 
Q 2119 2906 1806 2906 
Q 1569 2906 1367 2781 
Q 1166 2656 1075 2415 
Q 984 2175 984 1722 
L 984 0 
L 422 0 
z
" transform="scale(0.015625)"/>
      </defs>
      <use xlink:href="#DejaVuSans-302" transform="translate(57.700684 12.015625)"/>
      <use xlink:href="#DejaVuSans-Oblique-7a" transform="translate(0 0.828125)"/>
      <use xlink:href="#DejaVuSans-30" transform="translate(53.447266 -15.578125) scale(0.7)"/>
      <use xlink:href="#DejaVuSans-Oblique-6d" transform="translate(97.983398 -15.578125) scale(0.7)"/>
      <use xlink:href="#ArialMT-20" transform="translate(168.90625 0.828125)"/>
      <use xlink:href="#ArialMT-28" transform="translate(196.689453 0.828125)"/>
      <use xlink:href="#ArialMT-6d" transform="translate(229.990234 0.828125)"/>
      <use xlink:href="#ArialMT-29" transform="translate(313.291016 0.828125)"/>
     </g>
    </g>
    <g id="text_38">
     <!-- $\times\mathdefault{10^{−2}}\mathdefault{}$ -->
     <g style="fill: #262626" transform="translate(376.679625 230.805188) scale(0.15 -0.15)">
      <defs>
       <path id="DejaVuSans-d7" d="M 4488 3438 
L 3059 2003 
L 4488 575 
L 4116 197 
L 2681 1631 
L 1247 197 
L 878 575 
L 2303 2003 
L 878 3438 
L 1247 3816 
L 2681 2381 
L 4116 3816 
L 4488 3438 
z
" transform="scale(0.015625)"/>
       <path id="ArialMT-2212" d="M 3381 1997 
L 356 1997 
L 356 2522 
L 3381 2522 
L 3381 1997 
z
" transform="scale(0.015625)"/>
      </defs>
      <use xlink:href="#DejaVuSans-d7" transform="translate(0 0.99375)"/>
      <use xlink:href="#ArialMT-31" transform="translate(83.789062 0.99375)"/>
      <use xlink:href="#ArialMT-30" transform="translate(139.404297 0.99375)"/>
      <use xlink:href="#ArialMT-2212" transform="translate(196.761875 70.6875) scale(0.7)"/>
      <use xlink:href="#ArialMT-32" transform="translate(237.640781 70.6875) scale(0.7)"/>
     </g>
    </g>
   </g>
   <g id="line2d_64">
    <path d="M 419.3475 327.134045 
L 420.695616 316.680194 
L 422.043732 308.453593 
L 423.391848 301.693834 
L 424.739964 296.006108 
L 426.088081 291.153174 
L 427.436197 286.98028 
L 428.784313 283.381708 
L 430.132429 280.283842 
L 431.480545 277.629765 
L 432.828661 275.362869 
L 434.176777 273.424842 
L 435.524893 271.772925 
L 436.873009 270.379277 
L 438.221126 269.224312 
L 439.569242 268.292751 
L 440.917358 267.570461 
L 442.265474 267.042674 
L 443.61359 266.694248 
L 444.961706 266.510221 
L 446.309822 266.475777 
L 447.657938 266.58045 
L 450.354171 267.147696 
L 453.050403 268.097266 
L 455.746635 269.329569 
L 459.790983 271.540865 
L 463.835332 274.052385 
L 467.87968 276.843683 
L 470.575912 278.931228 
L 473.272145 281.296414 
L 475.968377 284.04509 
L 478.664609 287.276214 
L 481.360841 291.077009 
L 484.057073 295.528066 
L 486.753306 300.717715 
L 489.449538 306.763518 
L 492.14577 313.864422 
L 493.493886 317.917121 
L 494.842002 322.398446 
L 496.190118 327.421079 
L 497.538235 333.133638 
L 498.886351 339.625267 
L 500.234467 344.446193 
L 501.582583 333.464329 
L 502.930699 323.736198 
L 504.278815 315.07458 
L 505.626931 307.330028 
L 506.975047 300.386612 
L 508.323164 294.150078 
L 509.67128 288.541281 
L 511.019396 283.492284 
L 512.367512 278.943928 
L 513.715628 274.844278 
L 515.063744 271.147541 
L 516.41186 267.812916 
L 517.759976 264.804101 
L 519.108092 262.088822 
L 520.456209 259.638352 
L 521.804325 257.42706 
L 524.500557 253.632676 
L 527.196789 250.549108 
L 529.893021 248.050054 
L 532.589254 246.032716 
L 535.285486 244.412486 
L 537.981718 243.119057 
L 540.67795 242.093638 
L 543.374182 241.28706 
L 546.070415 240.657974 
L 550.114763 239.974249 
L 554.159111 239.52671 
L 559.551576 239.194544 
L 564.94404 239.077546 
L 571.684621 239.137222 
L 581.121434 239.45708 
L 594.602595 240.17072 
L 613.47622 241.434016 
L 635.046078 243.103173 
L 659.312168 245.208685 
L 666.052749 245.835405 
L 703.8 245.835405 
L 703.8 245.835405 
" clip-path="url(#pa8e7f1baba)" style="fill: none; stroke: #000000; stroke-width: 2; stroke-linecap: round"/>
   </g>
   <g id="patch_18">
    <path d="M 419.3475 349.714813 
L 419.3475 233.805188 
" style="fill: none; stroke: #262626; stroke-width: 1.5; stroke-linejoin: miter; stroke-linecap: square"/>
   </g>
   <g id="patch_19">
    <path d="M 703.8 349.714813 
L 703.8 233.805188 
" style="fill: none; stroke: #262626; stroke-width: 1.5; stroke-linejoin: miter; stroke-linecap: square"/>
   </g>
   <g id="patch_20">
    <path d="M 419.3475 349.714813 
L 703.8 349.714813 
" style="fill: none; stroke: #262626; stroke-width: 1.5; stroke-linejoin: miter; stroke-linecap: square"/>
   </g>
   <g id="patch_21">
    <path d="M 419.3475 233.805188 
L 703.8 233.805188 
" style="fill: none; stroke: #262626; stroke-width: 1.5; stroke-linejoin: miter; stroke-linecap: square"/>
   </g>
   <g id="text_39">
    <!-- (d) -->
    <g style="fill: #262626" transform="translate(419.3475 223.805188) scale(0.2 -0.2)">
     <defs>
      <path id="ArialMT-64" d="M 2575 0 
L 2575 419 
Q 2259 -75 1647 -75 
Q 1250 -75 917 144 
Q 584 363 401 755 
Q 219 1147 219 1656 
Q 219 2153 384 2558 
Q 550 2963 881 3178 
Q 1213 3394 1622 3394 
Q 1922 3394 2156 3267 
Q 2391 3141 2538 2938 
L 2538 4581 
L 3097 4581 
L 3097 0 
L 2575 0 
z
M 797 1656 
Q 797 1019 1065 703 
Q 1334 388 1700 388 
Q 2069 388 2326 689 
Q 2584 991 2584 1609 
Q 2584 2291 2321 2609 
Q 2059 2928 1675 2928 
Q 1300 2928 1048 2622 
Q 797 2316 797 1656 
z
" transform="scale(0.015625)"/>
     </defs>
     <use xlink:href="#ArialMT-28"/>
     <use xlink:href="#ArialMT-64" transform="translate(33.300781 0)"/>
     <use xlink:href="#ArialMT-29" transform="translate(88.916016 0)"/>
    </g>
   </g>
  </g>
  <g id="axes_5">
   <g id="patch_22">
    <path d="M 67.38 542.62 
L 351.8325 542.62 
L 351.8325 426.710375 
L 67.38 426.710375 
z
" style="fill: #ffffff"/>
   </g>
   <g id="matplotlib.axis_9">
    <g id="xtick_21">
     <g id="line2d_65">
      <g>
       <use xlink:href="#maaa9d03b6b" x="67.38" y="542.62" style="fill: #262626; stroke: #262626; stroke-width: 0.8"/>
      </g>
     </g>
     <g id="line2d_66">
      <g>
       <use xlink:href="#me3b84c8afb" x="67.38" y="426.710375" style="fill: #262626; stroke: #262626; stroke-width: 0.8"/>
      </g>
     </g>
     <g id="text_40">
      <!-- 0 -->
      <g style="fill: #262626" transform="translate(63.209297 556.856719) scale(0.15 -0.15)">
       <use xlink:href="#ArialMT-30"/>
      </g>
     </g>
    </g>
    <g id="xtick_22">
     <g id="line2d_67">
      <g>
       <use xlink:href="#maaa9d03b6b" x="134.785806" y="542.62" style="fill: #262626; stroke: #262626; stroke-width: 0.8"/>
      </g>
     </g>
     <g id="line2d_68">
      <g>
       <use xlink:href="#me3b84c8afb" x="134.785806" y="426.710375" style="fill: #262626; stroke: #262626; stroke-width: 0.8"/>
      </g>
     </g>
     <g id="text_41">
      <!-- 50 -->
      <g style="fill: #262626" transform="translate(126.444399 556.856719) scale(0.15 -0.15)">
       <use xlink:href="#ArialMT-35"/>
       <use xlink:href="#ArialMT-30" transform="translate(55.615234 0)"/>
      </g>
     </g>
    </g>
    <g id="xtick_23">
     <g id="line2d_69">
      <g>
       <use xlink:href="#maaa9d03b6b" x="202.191611" y="542.62" style="fill: #262626; stroke: #262626; stroke-width: 0.8"/>
      </g>
     </g>
     <g id="line2d_70">
      <g>
       <use xlink:href="#me3b84c8afb" x="202.191611" y="426.710375" style="fill: #262626; stroke: #262626; stroke-width: 0.8"/>
      </g>
     </g>
     <g id="text_42">
      <!-- 100 -->
      <g style="fill: #262626" transform="translate(189.679502 556.856719) scale(0.15 -0.15)">
       <use xlink:href="#ArialMT-31"/>
       <use xlink:href="#ArialMT-30" transform="translate(55.615234 0)"/>
       <use xlink:href="#ArialMT-30" transform="translate(111.230469 0)"/>
      </g>
     </g>
    </g>
    <g id="xtick_24">
     <g id="line2d_71">
      <g>
       <use xlink:href="#maaa9d03b6b" x="269.597417" y="542.62" style="fill: #262626; stroke: #262626; stroke-width: 0.8"/>
      </g>
     </g>
     <g id="line2d_72">
      <g>
       <use xlink:href="#me3b84c8afb" x="269.597417" y="426.710375" style="fill: #262626; stroke: #262626; stroke-width: 0.8"/>
      </g>
     </g>
     <g id="text_43">
      <!-- 150 -->
      <g style="fill: #262626" transform="translate(257.085308 556.856719) scale(0.15 -0.15)">
       <use xlink:href="#ArialMT-31"/>
       <use xlink:href="#ArialMT-35" transform="translate(55.615234 0)"/>
       <use xlink:href="#ArialMT-30" transform="translate(111.230469 0)"/>
      </g>
     </g>
    </g>
    <g id="xtick_25">
     <g id="line2d_73">
      <g>
       <use xlink:href="#maaa9d03b6b" x="337.003223" y="542.62" style="fill: #262626; stroke: #262626; stroke-width: 0.8"/>
      </g>
     </g>
     <g id="line2d_74">
      <g>
       <use xlink:href="#me3b84c8afb" x="337.003223" y="426.710375" style="fill: #262626; stroke: #262626; stroke-width: 0.8"/>
      </g>
     </g>
     <g id="text_44">
      <!-- 200 -->
      <g style="fill: #262626" transform="translate(324.491113 556.856719) scale(0.15 -0.15)">
       <use xlink:href="#ArialMT-32"/>
       <use xlink:href="#ArialMT-30" transform="translate(55.615234 0)"/>
       <use xlink:href="#ArialMT-30" transform="translate(111.230469 0)"/>
      </g>
     </g>
    </g>
   </g>
   <g id="matplotlib.axis_10">
    <g id="ytick_11">
     <g id="line2d_75">
      <g>
       <use xlink:href="#m6de2206241" x="67.38" y="524.014523" style="fill: #262626; stroke: #262626; stroke-width: 0.8"/>
      </g>
     </g>
     <g id="line2d_76">
      <g>
       <use xlink:href="#m2ebc78dd16" x="351.8325" y="524.014523" style="fill: #262626; stroke: #262626; stroke-width: 0.8"/>
      </g>
     </g>
     <g id="text_45">
      <!-- 1 -->
      <g style="fill: #262626" transform="translate(55.538594 529.382882) scale(0.15 -0.15)">
       <use xlink:href="#ArialMT-31"/>
      </g>
     </g>
    </g>
    <g id="ytick_12">
     <g id="line2d_77">
      <g>
       <use xlink:href="#m6de2206241" x="67.38" y="456.97126" style="fill: #262626; stroke: #262626; stroke-width: 0.8"/>
      </g>
     </g>
     <g id="line2d_78">
      <g>
       <use xlink:href="#m2ebc78dd16" x="351.8325" y="456.97126" style="fill: #262626; stroke: #262626; stroke-width: 0.8"/>
      </g>
     </g>
     <g id="text_46">
      <!-- 2 -->
      <g style="fill: #262626" transform="translate(55.538594 462.339619) scale(0.15 -0.15)">
       <use xlink:href="#ArialMT-32"/>
      </g>
     </g>
    </g>
    <g id="text_47">
     <!-- $\hat{k}$ (W m$^{-1}$ K$^{-1}$) -->
     <g style="fill: #262626" transform="translate(48.238594 534.690188) rotate(-90) scale(0.15 -0.15)">
      <defs>
       <path id="DejaVuSans-Oblique-6b" d="M 1172 4863 
L 1747 4863 
L 1197 2028 
L 3169 3500 
L 3916 3500 
L 1716 1825 
L 3322 0 
L 2625 0 
L 1131 1709 
L 800 0 
L 225 0 
L 1172 4863 
z
" transform="scale(0.015625)"/>
       <path id="ArialMT-57" d="M 1294 0 
L 78 4581 
L 700 4581 
L 1397 1578 
Q 1509 1106 1591 641 
Q 1766 1375 1797 1488 
L 2669 4581 
L 3400 4581 
L 4056 2263 
Q 4303 1400 4413 641 
Q 4500 1075 4641 1638 
L 5359 4581 
L 5969 4581 
L 4713 0 
L 4128 0 
L 3163 3491 
Q 3041 3928 3019 4028 
Q 2947 3713 2884 3491 
L 1913 0 
L 1294 0 
z
" transform="scale(0.015625)"/>
       <path id="DejaVuSans-2212" d="M 678 2272 
L 4684 2272 
L 4684 1741 
L 678 1741 
L 678 2272 
z
" transform="scale(0.015625)"/>
       <path id="DejaVuSans-31" d="M 794 531 
L 1825 531 
L 1825 4091 
L 703 3866 
L 703 4441 
L 1819 4666 
L 2450 4666 
L 2450 531 
L 3481 531 
L 3481 0 
L 794 0 
L 794 531 
z
" transform="scale(0.015625)"/>
       <path id="ArialMT-4b" d="M 469 0 
L 469 4581 
L 1075 4581 
L 1075 2309 
L 3350 4581 
L 4172 4581 
L 2250 2725 
L 4256 0 
L 3456 0 
L 1825 2319 
L 1075 1588 
L 1075 0 
L 469 0 
z
" transform="scale(0.015625)"/>
      </defs>
      <use xlink:href="#DejaVuSans-302" transform="translate(61.055664 33.015625)"/>
      <use xlink:href="#DejaVuSans-Oblique-6b" transform="translate(0 0.53125)"/>
      <use xlink:href="#ArialMT-20" transform="translate(57.910156 0.53125)"/>
      <use xlink:href="#ArialMT-28" transform="translate(85.693359 0.53125)"/>
      <use xlink:href="#ArialMT-57" transform="translate(118.994141 0.53125)"/>
      <use xlink:href="#ArialMT-20" transform="translate(213.378906 0.53125)"/>
      <use xlink:href="#ArialMT-6d" transform="translate(241.162109 0.53125)"/>
      <use xlink:href="#DejaVuSans-2212" transform="translate(325.419922 38.8125) scale(0.7)"/>
      <use xlink:href="#DejaVuSans-31" transform="translate(384.072266 38.8125) scale(0.7)"/>
      <use xlink:href="#ArialMT-20" transform="translate(431.342773 0.53125)"/>
      <use xlink:href="#ArialMT-4b" transform="translate(459.125977 0.53125)"/>
      <use xlink:href="#DejaVuSans-2212" transform="translate(526.782227 38.8125) scale(0.7)"/>
      <use xlink:href="#DejaVuSans-31" transform="translate(585.43457 38.8125) scale(0.7)"/>
      <use xlink:href="#ArialMT-29" transform="translate(632.705078 0.53125)"/>
     </g>
    </g>
   </g>
   <g id="line2d_79">
    <path d="M 67.38 431.978994 
L 82.209277 505.265564 
L 84.905509 517.87696 
L 86.253626 523.484441 
L 87.601742 528.321804 
L 88.949858 532.190594 
L 90.297974 534.979346 
L 91.64609 536.676565 
L 92.994206 537.351381 
L 94.342322 537.12312 
L 95.690438 536.110555 
L 97.038555 534.467862 
L 98.386671 532.347153 
L 101.082903 527.260978 
L 103.779135 521.986195 
L 105.127251 519.599866 
L 106.475367 517.51935 
L 107.823483 515.815274 
L 109.1716 514.53933 
L 110.519716 513.706665 
L 111.867832 513.307168 
L 113.215948 513.310125 
L 114.564064 513.667631 
L 115.91218 514.318418 
L 117.260296 515.191372 
L 124.000877 520.306903 
L 125.348993 521.050974 
L 126.697109 521.605792 
L 128.045225 521.958774 
L 129.393341 522.112472 
L 130.741457 522.082541 
L 132.089573 521.896371 
L 134.785806 521.204153 
L 137.482038 520.46024 
L 138.830154 520.188035 
L 140.17827 520.035376 
L 141.526386 520.04125 
L 142.874502 520.237946 
L 144.222618 520.649639 
L 145.570735 521.31888 
L 146.918851 522.333464 
L 148.266967 523.968048 
L 149.615083 526.912647 
L 150.963199 529.470692 
L 152.311315 531.211884 
L 153.659431 531.999557 
L 155.007547 531.853664 
L 156.355664 530.881052 
L 157.70378 529.234955 
L 159.051896 527.091971 
L 164.44436 517.303697 
L 165.792476 515.416895 
L 167.140592 513.990907 
L 168.488709 513.077169 
L 169.836825 512.692497 
L 171.184941 512.820236 
L 172.533057 513.416309 
L 173.881173 514.412454 
L 175.229289 515.717713 
L 180.621754 521.877686 
L 181.96987 523.038406 
L 183.317986 523.864038 
L 184.666102 524.321099 
L 186.014218 524.412401 
L 187.362334 524.172208 
L 188.71045 523.658407 
L 191.406682 522.168169 
L 194.102915 520.531579 
L 195.451031 519.810492 
L 196.799147 519.216577 
L 198.147263 518.782099 
L 199.495379 518.526469 
L 200.843495 518.455346 
L 202.191611 518.56014 
L 203.539727 518.839115 
L 206.23596 519.754267 
L 210.280308 521.241804 
L 211.628424 521.582542 
L 212.97654 521.800777 
L 214.324656 521.891816 
L 217.020889 521.753527 
L 221.065237 521.142341 
L 225.109585 520.564331 
L 227.805818 520.40396 
L 230.50205 520.486751 
L 234.546398 520.974305 
L 238.590746 521.418079 
L 241.286979 521.495052 
L 245.331327 521.323084 
L 252.071908 520.949154 
L 256.116256 520.950617 
L 269.597417 521.370046 
L 280.382346 521.133638 
L 299.255972 521.209268 
L 308.692784 521.17638 
L 322.173945 521.194178 
L 351.8325 521.194178 
L 351.8325 521.194178 
" clip-path="url(#pdb910fc37a)" style="fill: none; stroke: #000000; stroke-width: 2; stroke-linecap: round"/>
   </g>
   <g id="patch_23">
    <path d="M 67.38 542.62 
L 67.38 426.710375 
" style="fill: none; stroke: #262626; stroke-width: 1.5; stroke-linejoin: miter; stroke-linecap: square"/>
   </g>
   <g id="patch_24">
    <path d="M 351.8325 542.62 
L 351.8325 426.710375 
" style="fill: none; stroke: #262626; stroke-width: 1.5; stroke-linejoin: miter; stroke-linecap: square"/>
   </g>
   <g id="patch_25">
    <path d="M 67.38 542.62 
L 351.8325 542.62 
" style="fill: none; stroke: #262626; stroke-width: 1.5; stroke-linejoin: miter; stroke-linecap: square"/>
   </g>
   <g id="patch_26">
    <path d="M 67.38 426.710375 
L 351.8325 426.710375 
" style="fill: none; stroke: #262626; stroke-width: 1.5; stroke-linejoin: miter; stroke-linecap: square"/>
   </g>
   <g id="text_48">
    <!-- (e) -->
    <g style="fill: #262626" transform="translate(67.38 416.710375) scale(0.2 -0.2)">
     <use xlink:href="#ArialMT-28"/>
     <use xlink:href="#ArialMT-65" transform="translate(33.300781 0)"/>
     <use xlink:href="#ArialMT-29" transform="translate(88.916016 0)"/>
    </g>
   </g>
  </g>
  <g id="axes_6">
   <g id="patch_27">
    <path d="M 419.3475 542.62 
L 703.8 542.62 
L 703.8 426.710375 
L 419.3475 426.710375 
z
" style="fill: #ffffff"/>
   </g>
   <g id="matplotlib.axis_11">
    <g id="xtick_26">
     <g id="line2d_80">
      <g>
       <use xlink:href="#maaa9d03b6b" x="419.3475" y="542.62" style="fill: #262626; stroke: #262626; stroke-width: 0.8"/>
      </g>
     </g>
     <g id="line2d_81">
      <g>
       <use xlink:href="#me3b84c8afb" x="419.3475" y="426.710375" style="fill: #262626; stroke: #262626; stroke-width: 0.8"/>
      </g>
     </g>
     <g id="text_49">
      <!-- 0 -->
      <g style="fill: #262626" transform="translate(415.176797 556.856719) scale(0.15 -0.15)">
       <use xlink:href="#ArialMT-30"/>
      </g>
     </g>
    </g>
    <g id="xtick_27">
     <g id="line2d_82">
      <g>
       <use xlink:href="#maaa9d03b6b" x="486.753306" y="542.62" style="fill: #262626; stroke: #262626; stroke-width: 0.8"/>
      </g>
     </g>
     <g id="line2d_83">
      <g>
       <use xlink:href="#me3b84c8afb" x="486.753306" y="426.710375" style="fill: #262626; stroke: #262626; stroke-width: 0.8"/>
      </g>
     </g>
     <g id="text_50">
      <!-- 50 -->
      <g style="fill: #262626" transform="translate(478.411899 556.856719) scale(0.15 -0.15)">
       <use xlink:href="#ArialMT-35"/>
       <use xlink:href="#ArialMT-30" transform="translate(55.615234 0)"/>
      </g>
     </g>
    </g>
    <g id="xtick_28">
     <g id="line2d_84">
      <g>
       <use xlink:href="#maaa9d03b6b" x="554.159111" y="542.62" style="fill: #262626; stroke: #262626; stroke-width: 0.8"/>
      </g>
     </g>
     <g id="line2d_85">
      <g>
       <use xlink:href="#me3b84c8afb" x="554.159111" y="426.710375" style="fill: #262626; stroke: #262626; stroke-width: 0.8"/>
      </g>
     </g>
     <g id="text_51">
      <!-- 100 -->
      <g style="fill: #262626" transform="translate(541.647002 556.856719) scale(0.15 -0.15)">
       <use xlink:href="#ArialMT-31"/>
       <use xlink:href="#ArialMT-30" transform="translate(55.615234 0)"/>
       <use xlink:href="#ArialMT-30" transform="translate(111.230469 0)"/>
      </g>
     </g>
    </g>
    <g id="xtick_29">
     <g id="line2d_86">
      <g>
       <use xlink:href="#maaa9d03b6b" x="621.564917" y="542.62" style="fill: #262626; stroke: #262626; stroke-width: 0.8"/>
      </g>
     </g>
     <g id="line2d_87">
      <g>
       <use xlink:href="#me3b84c8afb" x="621.564917" y="426.710375" style="fill: #262626; stroke: #262626; stroke-width: 0.8"/>
      </g>
     </g>
     <g id="text_52">
      <!-- 150 -->
      <g style="fill: #262626" transform="translate(609.052808 556.856719) scale(0.15 -0.15)">
       <use xlink:href="#ArialMT-31"/>
       <use xlink:href="#ArialMT-35" transform="translate(55.615234 0)"/>
       <use xlink:href="#ArialMT-30" transform="translate(111.230469 0)"/>
      </g>
     </g>
    </g>
    <g id="xtick_30">
     <g id="line2d_88">
      <g>
       <use xlink:href="#maaa9d03b6b" x="688.970723" y="542.62" style="fill: #262626; stroke: #262626; stroke-width: 0.8"/>
      </g>
     </g>
     <g id="line2d_89">
      <g>
       <use xlink:href="#me3b84c8afb" x="688.970723" y="426.710375" style="fill: #262626; stroke: #262626; stroke-width: 0.8"/>
      </g>
     </g>
     <g id="text_53">
      <!-- 200 -->
      <g style="fill: #262626" transform="translate(676.458613 556.856719) scale(0.15 -0.15)">
       <use xlink:href="#ArialMT-32"/>
       <use xlink:href="#ArialMT-30" transform="translate(55.615234 0)"/>
       <use xlink:href="#ArialMT-30" transform="translate(111.230469 0)"/>
      </g>
     </g>
    </g>
   </g>
   <g id="matplotlib.axis_12">
    <g id="ytick_13">
     <g id="line2d_90">
      <g>
       <use xlink:href="#m6de2206241" x="419.3475" y="529.238475" style="fill: #262626; stroke: #262626; stroke-width: 0.8"/>
      </g>
     </g>
     <g id="line2d_91">
      <g>
       <use xlink:href="#m2ebc78dd16" x="703.8" y="529.238475" style="fill: #262626; stroke: #262626; stroke-width: 0.8"/>
      </g>
     </g>
     <g id="text_54">
      <!-- $\mathdefault{1.0}$ -->
      <g style="fill: #262626" transform="translate(394.8475 534.606835) scale(0.15 -0.15)">
       <use xlink:href="#ArialMT-31" transform="translate(0 0.125)"/>
       <use xlink:href="#ArialMT-2e" transform="translate(55.615234 0.125)"/>
       <use xlink:href="#ArialMT-30" transform="translate(83.398438 0.125)"/>
      </g>
     </g>
    </g>
    <g id="ytick_14">
     <g id="line2d_92">
      <g>
       <use xlink:href="#m6de2206241" x="419.3475" y="479.004701" style="fill: #262626; stroke: #262626; stroke-width: 0.8"/>
      </g>
     </g>
     <g id="line2d_93">
      <g>
       <use xlink:href="#m2ebc78dd16" x="703.8" y="479.004701" style="fill: #262626; stroke: #262626; stroke-width: 0.8"/>
      </g>
     </g>
     <g id="text_55">
      <!-- $\mathdefault{1.5}$ -->
      <g style="fill: #262626" transform="translate(394.8475 484.373061) scale(0.15 -0.15)">
       <use xlink:href="#ArialMT-31" transform="translate(0 0.125)"/>
       <use xlink:href="#ArialMT-2e" transform="translate(55.615234 0.125)"/>
       <use xlink:href="#ArialMT-35" transform="translate(83.398438 0.125)"/>
      </g>
     </g>
    </g>
    <g id="ytick_15">
     <g id="line2d_94">
      <g>
       <use xlink:href="#m6de2206241" x="419.3475" y="428.770927" style="fill: #262626; stroke: #262626; stroke-width: 0.8"/>
      </g>
     </g>
     <g id="line2d_95">
      <g>
       <use xlink:href="#m2ebc78dd16" x="703.8" y="428.770927" style="fill: #262626; stroke: #262626; stroke-width: 0.8"/>
      </g>
     </g>
     <g id="text_56">
      <!-- $\mathdefault{2.0}$ -->
      <g style="fill: #262626" transform="translate(394.8475 434.139287) scale(0.15 -0.15)">
       <use xlink:href="#ArialMT-32" transform="translate(0 0.125)"/>
       <use xlink:href="#ArialMT-2e" transform="translate(55.615234 0.125)"/>
       <use xlink:href="#ArialMT-30" transform="translate(83.398438 0.125)"/>
      </g>
     </g>
    </g>
    <g id="text_57">
     <!-- $\hat{C}$ (J m$^{-3}$ K$^{-1}$) -->
     <g style="fill: #262626" transform="translate(387.5475 532.215188) rotate(-90) scale(0.15 -0.15)">
      <defs>
       <path id="DejaVuSans-Oblique-43" d="M 4447 4306 
L 4319 3641 
Q 4019 3944 3683 4091 
Q 3347 4238 2956 4238 
Q 2422 4238 2017 3981 
Q 1613 3725 1319 3200 
Q 1131 2863 1032 2486 
Q 934 2109 934 1728 
Q 934 1091 1264 756 
Q 1594 422 2222 422 
Q 2656 422 3056 561 
Q 3456 700 3834 978 
L 3688 231 
Q 3316 72 2936 -9 
Q 2556 -91 2175 -91 
Q 1278 -91 773 396 
Q 269 884 269 1753 
Q 269 2309 461 2846 
Q 653 3384 1013 3828 
Q 1394 4300 1883 4525 
Q 2372 4750 3022 4750 
Q 3422 4750 3780 4639 
Q 4138 4528 4447 4306 
z
" transform="scale(0.015625)"/>
       <path id="ArialMT-4a" d="M 184 1300 
L 731 1375 
Q 753 850 928 656 
Q 1103 463 1413 463 
Q 1641 463 1806 567 
Q 1972 672 2034 851 
Q 2097 1031 2097 1425 
L 2097 4581 
L 2703 4581 
L 2703 1459 
Q 2703 884 2564 568 
Q 2425 253 2123 87 
Q 1822 -78 1416 -78 
Q 813 -78 492 269 
Q 172 616 184 1300 
z
" transform="scale(0.015625)"/>
       <path id="DejaVuSans-33" d="M 2597 2516 
Q 3050 2419 3304 2112 
Q 3559 1806 3559 1356 
Q 3559 666 3084 287 
Q 2609 -91 1734 -91 
Q 1441 -91 1130 -33 
Q 819 25 488 141 
L 488 750 
Q 750 597 1062 519 
Q 1375 441 1716 441 
Q 2309 441 2620 675 
Q 2931 909 2931 1356 
Q 2931 1769 2642 2001 
Q 2353 2234 1838 2234 
L 1294 2234 
L 1294 2753 
L 1863 2753 
Q 2328 2753 2575 2939 
Q 2822 3125 2822 3475 
Q 2822 3834 2567 4026 
Q 2313 4219 1838 4219 
Q 1578 4219 1281 4162 
Q 984 4106 628 3988 
L 628 4550 
Q 988 4650 1302 4700 
Q 1616 4750 1894 4750 
Q 2613 4750 3031 4423 
Q 3450 4097 3450 3541 
Q 3450 3153 3228 2886 
Q 3006 2619 2597 2516 
z
" transform="scale(0.015625)"/>
      </defs>
      <use xlink:href="#DejaVuSans-302" transform="translate(69.03418 31.015625)"/>
      <use xlink:href="#DejaVuSans-Oblique-43" transform="translate(0 0.296875)"/>
      <use xlink:href="#ArialMT-20" transform="translate(69.824219 0.296875)"/>
      <use xlink:href="#ArialMT-28" transform="translate(97.607422 0.296875)"/>
      <use xlink:href="#ArialMT-4a" transform="translate(130.908203 0.296875)"/>
      <use xlink:href="#ArialMT-20" transform="translate(180.908203 0.296875)"/>
      <use xlink:href="#ArialMT-6d" transform="translate(208.691406 0.296875)"/>
      <use xlink:href="#DejaVuSans-2212" transform="translate(292.949219 38.578125) scale(0.7)"/>
      <use xlink:href="#DejaVuSans-33" transform="translate(351.601562 38.578125) scale(0.7)"/>
      <use xlink:href="#ArialMT-20" transform="translate(398.87207 0.296875)"/>
      <use xlink:href="#ArialMT-4b" transform="translate(426.655273 0.296875)"/>
      <use xlink:href="#DejaVuSans-2212" transform="translate(494.311523 38.578125) scale(0.7)"/>
      <use xlink:href="#DejaVuSans-31" transform="translate(552.963867 38.578125) scale(0.7)"/>
      <use xlink:href="#ArialMT-29" transform="translate(600.234375 0.296875)"/>
     </g>
    </g>
    <g id="text_58">
     <!-- $\times\mathdefault{10^{6}}\mathdefault{}$ -->
     <g style="fill: #262626" transform="translate(376.679625 423.710375) scale(0.15 -0.15)">
      <use xlink:href="#DejaVuSans-d7" transform="translate(0 0.99375)"/>
      <use xlink:href="#ArialMT-31" transform="translate(83.789062 0.99375)"/>
      <use xlink:href="#ArialMT-30" transform="translate(139.404297 0.99375)"/>
      <use xlink:href="#ArialMT-36" transform="translate(196.761875 70.6875) scale(0.7)"/>
     </g>
    </g>
   </g>
   <g id="line2d_96">
    <path d="M 419.3475 431.978994 
L 420.695616 450.795951 
L 422.043732 467.757171 
L 423.391848 482.976272 
L 424.739964 496.547943 
L 426.088081 508.520623 
L 427.436197 518.846301 
L 428.784313 527.280162 
L 430.132429 533.30976 
L 431.480545 536.544174 
L 432.828661 537.351381 
L 434.176777 536.475737 
L 435.524893 534.563833 
L 436.873009 532.023511 
L 439.569242 525.890388 
L 443.61359 515.551832 
L 446.309822 508.698237 
L 449.006055 502.480187 
L 450.354171 499.798784 
L 451.702287 497.513486 
L 453.050403 495.704354 
L 454.398519 494.437974 
L 455.746635 493.763434 
L 457.094751 493.703782 
L 458.442867 494.255324 
L 459.790983 495.387693 
L 461.1391 497.064045 
L 462.487216 499.208236 
L 463.835332 501.725576 
L 466.531564 507.429369 
L 469.227796 513.190832 
L 470.575912 515.783811 
L 471.924028 518.045738 
L 473.272145 519.900507 
L 474.620261 521.304641 
L 475.968377 522.236302 
L 477.316493 522.697749 
L 478.664609 522.713259 
L 480.012725 522.323169 
L 481.360841 521.580311 
L 482.708957 520.545458 
L 484.057073 519.285356 
L 490.797654 512.285167 
L 492.14577 511.275029 
L 493.493886 510.550092 
L 494.842002 510.166294 
L 496.190118 510.15523 
L 497.538235 510.564183 
L 498.886351 511.467901 
L 500.234467 513.088782 
L 502.930699 518.443614 
L 504.278815 520.414725 
L 505.626931 521.728388 
L 506.975047 522.400365 
L 508.323164 522.48619 
L 509.67128 522.060898 
L 511.019396 521.207627 
L 512.367512 520.012817 
L 515.063744 516.99329 
L 517.759976 513.845026 
L 519.108092 512.462969 
L 520.456209 511.331604 
L 521.804325 510.53339 
L 523.152441 510.124562 
L 524.500557 510.127413 
L 525.848673 510.522137 
L 527.196789 511.243067 
L 529.893021 513.29479 
L 531.241137 514.354497 
L 532.589254 515.272256 
L 533.93737 515.963912 
L 535.285486 516.384984 
L 536.633602 516.529268 
L 537.981718 516.419984 
L 539.329834 516.101691 
L 542.026066 515.089631 
L 546.070415 513.497999 
L 548.766647 512.756561 
L 550.114763 512.543557 
L 551.462879 512.458386 
L 552.810995 512.512161 
L 554.159111 512.704908 
L 556.855344 513.487136 
L 560.899692 514.928732 
L 562.247808 515.267019 
L 563.595924 515.474949 
L 564.94404 515.544108 
L 567.640273 515.316876 
L 577.077085 513.748753 
L 579.773318 513.623495 
L 582.46955 513.768985 
L 586.513898 514.403324 
L 589.21013 514.817364 
L 591.906363 515.032239 
L 594.602595 515.019115 
L 599.995059 514.681745 
L 605.387524 514.34823 
L 609.431872 514.331277 
L 621.564917 514.758176 
L 637.74231 514.697204 
L 645.831007 514.758402 
L 656.615936 514.78701 
L 672.793329 514.906943 
L 703.8 514.906943 
L 703.8 514.906943 
" clip-path="url(#pcaccbcf85b)" style="fill: none; stroke: #000000; stroke-width: 2; stroke-linecap: round"/>
   </g>
   <g id="patch_28">
    <path d="M 419.3475 542.62 
L 419.3475 426.710375 
" style="fill: none; stroke: #262626; stroke-width: 1.5; stroke-linejoin: miter; stroke-linecap: square"/>
   </g>
   <g id="patch_29">
    <path d="M 703.8 542.62 
L 703.8 426.710375 
" style="fill: none; stroke: #262626; stroke-width: 1.5; stroke-linejoin: miter; stroke-linecap: square"/>
   </g>
   <g id="patch_30">
    <path d="M 419.3475 542.62 
L 703.8 542.62 
" style="fill: none; stroke: #262626; stroke-width: 1.5; stroke-linejoin: miter; stroke-linecap: square"/>
   </g>
   <g id="patch_31">
    <path d="M 419.3475 426.710375 
L 703.8 426.710375 
" style="fill: none; stroke: #262626; stroke-width: 1.5; stroke-linejoin: miter; stroke-linecap: square"/>
   </g>
   <g id="text_59">
    <!-- (f) -->
    <g style="fill: #262626" transform="translate(419.3475 416.710375) scale(0.2 -0.2)">
     <defs>
      <path id="ArialMT-66" d="M 556 0 
L 556 2881 
L 59 2881 
L 59 3319 
L 556 3319 
L 556 3672 
Q 556 4006 616 4169 
Q 697 4388 901 4523 
Q 1106 4659 1475 4659 
Q 1713 4659 2000 4603 
L 1916 4113 
Q 1741 4144 1584 4144 
Q 1328 4144 1222 4034 
Q 1116 3925 1116 3625 
L 1116 3319 
L 1763 3319 
L 1763 2881 
L 1116 2881 
L 1116 0 
L 556 0 
z
" transform="scale(0.015625)"/>
     </defs>
     <use xlink:href="#ArialMT-28"/>
     <use xlink:href="#ArialMT-66" transform="translate(33.300781 0)"/>
     <use xlink:href="#ArialMT-29" transform="translate(61.083984 0)"/>
    </g>
   </g>
  </g>
 </g>
 <defs>
  <clipPath id="pb150decd2a">
   <rect x="67.38" y="40.9" width="284.4525" height="115.909625"/>
  </clipPath>
  <clipPath id="pd8126969d2">
   <rect x="419.3475" y="40.9" width="284.4525" height="115.909625"/>
  </clipPath>
  <clipPath id="p55f6d35789">
   <rect x="67.38" y="233.805188" width="284.4525" height="115.909625"/>
  </clipPath>
  <clipPath id="pa8e7f1baba">
   <rect x="419.3475" y="233.805188" width="284.4525" height="115.909625"/>
  </clipPath>
  <clipPath id="pdb910fc37a">
   <rect x="67.38" y="426.710375" width="284.4525" height="115.909625"/>
  </clipPath>
  <clipPath id="pcaccbcf85b">
   <rect x="419.3475" y="426.710375" width="284.4525" height="115.909625"/>
  </clipPath>
 </defs>
</svg>
